<svg width="426mm" height="283mm" viewBox="0 0 426 283" xmlns="http://www.w3.org/2000/svg" version="1.1" preserveAspectRatio="xMidYMid meet"><g id="svgGroup" stroke-linecap="round" fill-rule="evenodd" font-size="9pt" stroke="#000" stroke-width="0.25mm" fill="none" style="stroke:#000;stroke-width:0.25mm;fill:none"><path d="M 0 143 L 0 171.414 L 2.5 171.414 L 2.5 199.138 L 0 199.138 L 0 226.862 L 2.5 226.862 L 2.5 254.586 L 0 254.586 L 0 283 L 28.414 283 L 28.414 280.5 L 56.138 280.5 L 56.138 283 L 83.862 283 L 83.862 280.5 L 111.586 280.5 L 111.586 283 L 140 283 L 140 254.586 L 137.5 254.586 L 137.5 226.862 L 140 226.862 L 140 199.138 L 137.5 199.138 L 137.5 171.414 L 140 171.414 L 140 143 L 111.586 143 L 111.586 145.5 L 83.862 145.5 L 83.862 143 L 56.138 143 L 56.138 145.5 L 28.414 145.5 L 28.414 143 L 0 143 Z" id="front_outsideCutPath" stroke="#FF0000" stroke-width="0.1" style="stroke:#FF0000;stroke-width:0.1" vector-effect="non-scaling-stroke"/><path d="M 90.405 223.575 L 88.136 223.575 L 88.136 213.882 Q 88.136 212.05 87.302 211.147 Q 86.468 210.245 84.69 210.245 A 6.869 6.869 0 0 0 83.405 210.357 Q 82.689 210.493 82.138 210.797 A 3.2 3.2 0 0 0 81.245 211.516 A 3.71 3.71 0 0 0 80.6 212.644 Q 80.212 213.678 80.16 215.221 A 14.539 14.539 0 0 0 80.151 215.714 L 80.151 223.575 L 77.882 223.575 L 77.882 208.591 L 79.728 208.591 L 80.097 210.641 L 80.206 210.641 A 4.596 4.596 0 0 1 82.006 209.003 A 5.526 5.526 0 0 1 82.161 208.925 Q 83.419 208.317 84.964 208.317 A 8.96 8.96 0 0 1 86.489 208.438 Q 87.313 208.581 87.965 208.891 A 4.078 4.078 0 0 1 89.038 209.623 A 3.933 3.933 0 0 1 89.996 211.127 Q 90.226 211.747 90.327 212.515 A 9.904 9.904 0 0 1 90.405 213.8 L 90.405 223.575 Z M 46.806 208.591 L 46.806 210.354 L 42.991 210.354 L 42.991 223.575 L 40.722 223.575 L 40.722 210.354 L 38.042 210.354 L 38.042 209.329 L 40.722 208.508 L 40.722 207.675 A 9.198 9.198 0 0 1 40.936 205.59 Q 41.601 202.747 44.318 202.254 A 6.898 6.898 0 0 1 45.548 202.151 Q 46.737 202.151 48.337 202.63 L 47.749 204.448 A 11.021 11.021 0 0 0 46.892 204.207 Q 46.459 204.105 46.078 204.06 A 4.881 4.881 0 0 0 45.507 204.024 A 3.061 3.061 0 0 0 44.769 204.108 A 1.966 1.966 0 0 0 43.606 204.879 Q 42.991 205.733 42.991 207.62 L 42.991 208.591 L 46.806 208.591 Z M 101.958 221.702 L 101.958 223.438 Q 101.625 223.599 101.007 223.709 A 8.487 8.487 0 0 1 100.871 223.732 A 9.837 9.837 0 0 1 100.23 223.816 Q 99.927 223.844 99.656 223.848 A 5.818 5.818 0 0 1 99.579 223.848 A 5.928 5.928 0 0 1 97.832 223.613 Q 95.912 223.021 95.41 220.935 A 7.134 7.134 0 0 1 95.231 219.268 L 95.231 210.354 L 93.085 210.354 L 93.085 209.26 L 95.231 208.317 L 96.188 205.118 L 97.501 205.118 L 97.501 208.591 L 101.849 208.591 L 101.849 210.354 L 97.501 210.354 L 97.501 219.173 Q 97.501 220.124 97.818 220.764 A 2.201 2.201 0 0 0 98.144 221.251 A 2.108 2.108 0 0 0 99.44 221.941 A 3.033 3.033 0 0 0 99.907 221.975 A 7.453 7.453 0 0 0 100.999 221.897 A 6.868 6.868 0 0 0 101.069 221.886 A 12.277 12.277 0 0 0 101.397 221.83 Q 101.732 221.768 101.958 221.702 Z M 58.167 208.481 L 57.853 210.587 A 10.002 10.002 0 0 0 57.133 210.454 Q 56.774 210.402 56.455 210.387 A 5.323 5.323 0 0 0 56.212 210.382 Q 54.394 210.382 53.102 211.858 A 5.183 5.183 0 0 0 51.851 214.768 A 6.889 6.889 0 0 0 51.81 215.536 L 51.81 223.575 L 49.54 223.575 L 49.54 208.591 L 51.413 208.591 L 51.673 211.366 L 51.782 211.366 Q 52.616 209.903 53.792 209.11 Q 54.968 208.317 56.376 208.317 A 10.419 10.419 0 0 1 57.309 208.357 A 7.604 7.604 0 0 1 58.167 208.481 Z M 73.695 218.35 A 11.723 11.723 0 0 0 73.903 216.069 Q 73.903 214.612 73.595 213.402 A 7.067 7.067 0 0 0 72.051 210.409 A 5.941 5.941 0 0 0 69.293 208.63 A 7.626 7.626 0 0 0 67.054 208.317 A 8.815 8.815 0 0 0 65.47 208.453 A 6.003 6.003 0 0 0 61.968 210.361 Q 60.136 212.405 60.136 216.069 A 11.354 11.354 0 0 0 60.278 217.908 A 8.396 8.396 0 0 0 60.983 220.198 A 7.459 7.459 0 0 0 61.149 220.521 A 6.144 6.144 0 0 0 63.39 222.905 A 6.319 6.319 0 0 0 64.84 223.55 A 7.288 7.288 0 0 0 66.958 223.848 A 8.813 8.813 0 0 0 68.497 223.72 A 6.051 6.051 0 0 0 72.058 221.791 A 6.331 6.331 0 0 0 72.811 220.755 Q 73.426 219.703 73.695 218.35 Z M 62.487 216.069 Q 62.487 218.94 63.636 220.444 A 3.72 3.72 0 0 0 66.058 221.871 A 5.637 5.637 0 0 0 67.013 221.948 Q 69.241 221.948 70.396 220.451 Q 71.552 218.954 71.552 216.069 A 11.324 11.324 0 0 0 71.445 214.455 Q 71.2 212.76 70.396 211.728 A 3.733 3.733 0 0 0 68.075 210.343 A 5.724 5.724 0 0 0 66.985 210.245 A 5.401 5.401 0 0 0 65.641 210.402 A 3.615 3.615 0 0 0 63.622 211.708 A 4.692 4.692 0 0 0 62.893 213.117 Q 62.487 214.337 62.487 216.069 Z" id="front_labelLayer" stroke="#000000" fill="#000000" style="stroke:#000000;fill:#000000" vector-effect="non-scaling-stroke"/><path d="M 145.5 143 L 145.5 171.414 L 143 171.414 L 143 199.138 L 145.5 199.138 L 145.5 226.862 L 143 226.862 L 143 254.586 L 145.5 254.586 L 145.5 283 L 171.414 283 L 171.414 280.5 L 199.138 280.5 L 199.138 283 L 226.862 283 L 226.862 280.5 L 254.586 280.5 L 254.586 283 L 280.5 283 L 280.5 254.586 L 283 254.586 L 283 226.862 L 280.5 226.862 L 280.5 199.138 L 283 199.138 L 283 171.414 L 280.5 171.414 L 280.5 143 L 254.586 143 L 254.586 145.5 L 226.862 145.5 L 226.862 143 L 199.138 143 L 199.138 145.5 L 171.414 145.5 L 171.414 143 L 145.5 143 Z" id="left_outsideCutPath" stroke="#FF0000" stroke-width="0.1" style="stroke:#FF0000;stroke-width:0.1" vector-effect="non-scaling-stroke"/><path d="M 222.96 208.591 L 222.96 210.354 L 219.146 210.354 L 219.146 223.575 L 216.876 223.575 L 216.876 210.354 L 214.196 210.354 L 214.196 209.329 L 216.876 208.508 L 216.876 207.675 A 9.198 9.198 0 0 1 217.091 205.59 Q 217.755 202.747 220.473 202.254 A 6.898 6.898 0 0 1 221.702 202.151 Q 222.892 202.151 224.491 202.63 L 223.903 204.448 A 11.021 11.021 0 0 0 223.046 204.207 Q 222.613 204.105 222.232 204.06 A 4.881 4.881 0 0 0 221.661 204.024 A 3.061 3.061 0 0 0 220.923 204.108 A 1.966 1.966 0 0 0 219.761 204.879 Q 219.146 205.733 219.146 207.62 L 219.146 208.591 L 222.96 208.591 Z M 212.337 215.057 L 212.337 216.493 L 202.015 216.493 A 9.109 9.109 0 0 0 202.174 218.018 Q 202.338 218.849 202.666 219.505 A 4.261 4.261 0 0 0 203.348 220.499 A 4.124 4.124 0 0 0 205.513 221.719 A 6.248 6.248 0 0 0 206.909 221.866 A 11.987 11.987 0 0 0 211.398 220.977 A 13.735 13.735 0 0 0 211.694 220.854 L 211.694 222.878 A 13.625 13.625 0 0 1 210.453 223.347 A 10.419 10.419 0 0 1 209.418 223.623 A 9.527 9.527 0 0 1 208.473 223.769 Q 208.007 223.819 207.481 223.837 A 18.49 18.49 0 0 1 206.827 223.848 Q 203.505 223.848 201.584 221.825 A 6.679 6.679 0 0 1 199.986 218.891 Q 199.663 217.681 199.663 216.206 A 11.917 11.917 0 0 1 199.884 213.842 Q 200.29 211.833 201.447 210.45 A 5.816 5.816 0 0 1 205.686 208.336 A 8.023 8.023 0 0 1 206.239 208.317 A 6.914 6.914 0 0 1 208.186 208.578 A 5.261 5.261 0 0 1 210.696 210.17 A 6.346 6.346 0 0 1 212.134 213.069 A 9.237 9.237 0 0 1 212.337 215.057 Z M 232.585 221.702 L 232.585 223.438 Q 232.252 223.599 231.634 223.709 A 8.487 8.487 0 0 1 231.498 223.732 A 9.837 9.837 0 0 1 230.857 223.816 Q 230.554 223.844 230.283 223.848 A 5.818 5.818 0 0 1 230.206 223.848 A 5.928 5.928 0 0 1 228.459 223.613 Q 226.539 223.021 226.037 220.935 A 7.134 7.134 0 0 1 225.858 219.268 L 225.858 210.354 L 223.712 210.354 L 223.712 209.26 L 225.858 208.317 L 226.815 205.118 L 228.128 205.118 L 228.128 208.591 L 232.476 208.591 L 232.476 210.354 L 228.128 210.354 L 228.128 219.173 Q 228.128 220.124 228.445 220.764 A 2.201 2.201 0 0 0 228.771 221.251 A 2.108 2.108 0 0 0 230.067 221.941 A 3.033 3.033 0 0 0 230.534 221.975 A 7.453 7.453 0 0 0 231.626 221.897 A 6.868 6.868 0 0 0 231.696 221.886 A 12.277 12.277 0 0 0 232.024 221.83 Q 232.359 221.768 232.585 221.702 Z M 195.685 202.301 L 195.685 223.575 L 193.415 223.575 L 193.415 202.301 L 195.685 202.301 Z M 202.069 214.647 L 209.903 214.647 A 7.734 7.734 0 0 0 209.81 213.404 Q 209.701 212.737 209.465 212.203 A 3.511 3.511 0 0 0 208.946 211.359 A 3.109 3.109 0 0 0 207.074 210.293 A 4.664 4.664 0 0 0 206.212 210.217 A 4.474 4.474 0 0 0 204.92 210.395 A 3.456 3.456 0 0 0 203.334 211.393 A 4.483 4.483 0 0 0 202.443 212.897 Q 202.159 213.673 202.069 214.647 Z" id="left_labelLayer" stroke="#000000" fill="#000000" style="stroke:#000000;fill:#000000" vector-effect="non-scaling-stroke"/><path d="M 288.5 145.5 L 288.5 171.414 L 286 171.414 L 286 199.138 L 288.5 199.138 L 288.5 226.862 L 286 226.862 L 286 254.586 L 288.5 254.586 L 288.5 280.5 L 314.414 280.5 L 314.414 283 L 342.138 283 L 342.138 280.5 L 369.862 280.5 L 369.862 283 L 397.586 283 L 397.586 280.5 L 423.5 280.5 L 423.5 254.586 L 426 254.586 L 426 226.862 L 423.5 226.862 L 423.5 199.138 L 426 199.138 L 426 171.414 L 423.5 171.414 L 423.5 145.5 L 397.586 145.5 L 397.586 143 L 369.862 143 L 369.862 145.5 L 342.138 145.5 L 342.138 143 L 314.414 143 L 314.414 145.5 L 288.5 145.5 Z" id="top_outsideCutPath" stroke="#FF0000" stroke-width="0.1" style="stroke:#FF0000;stroke-width:0.1" vector-effect="non-scaling-stroke"/><path d="M 366.062 216.938 L 365.898 216.938 A 21.478 21.478 0 0 1 366.039 218.525 A 17.998 17.998 0 0 1 366.062 219.426 L 366.062 225.592 L 363.793 225.592 L 363.793 203.881 L 365.639 203.881 L 365.953 205.932 L 366.062 205.932 A 6.109 6.109 0 0 1 366.946 204.928 A 4.724 4.724 0 0 1 368.099 204.154 A 5.684 5.684 0 0 1 369.729 203.678 A 7.356 7.356 0 0 1 370.766 203.607 A 6.957 6.957 0 0 1 372.731 203.87 A 5.142 5.142 0 0 1 375.366 205.645 Q 376.986 207.682 376.986 211.359 Q 376.986 215.051 375.339 217.095 A 5.373 5.373 0 0 1 371.52 219.103 A 7.697 7.697 0 0 1 370.766 219.139 A 6.884 6.884 0 0 1 369.036 218.928 A 5.99 5.99 0 0 1 368.093 218.599 Q 366.883 218.059 366.062 216.938 Z M 343.887 216.992 L 343.887 218.729 Q 343.553 218.889 342.935 218.999 A 8.487 8.487 0 0 1 342.8 219.022 A 9.837 9.837 0 0 1 342.158 219.106 Q 341.856 219.135 341.585 219.138 A 5.818 5.818 0 0 1 341.508 219.139 A 5.928 5.928 0 0 1 339.761 218.904 Q 337.841 218.311 337.338 216.225 A 7.134 7.134 0 0 1 337.16 214.559 L 337.16 205.645 L 335.014 205.645 L 335.014 204.551 L 337.16 203.607 L 338.117 200.408 L 339.43 200.408 L 339.43 203.881 L 343.777 203.881 L 343.777 205.645 L 339.43 205.645 L 339.43 214.463 Q 339.43 215.414 339.747 216.054 A 2.201 2.201 0 0 0 340.072 216.541 A 2.108 2.108 0 0 0 341.368 217.231 A 3.033 3.033 0 0 0 341.836 217.266 A 7.453 7.453 0 0 0 342.928 217.188 A 6.868 6.868 0 0 0 342.998 217.177 A 12.277 12.277 0 0 0 343.326 217.121 Q 343.661 217.058 343.887 216.992 Z M 359.606 213.64 A 11.723 11.723 0 0 0 359.814 211.359 Q 359.814 209.903 359.506 208.692 A 7.067 7.067 0 0 0 357.962 205.699 A 5.941 5.941 0 0 0 355.204 203.92 A 7.626 7.626 0 0 0 352.965 203.607 A 8.815 8.815 0 0 0 351.381 203.743 A 6.003 6.003 0 0 0 347.879 205.651 Q 346.047 207.695 346.047 211.359 A 11.354 11.354 0 0 0 346.189 213.198 A 8.396 8.396 0 0 0 346.894 215.488 A 7.459 7.459 0 0 0 347.06 215.812 A 6.144 6.144 0 0 0 349.301 218.195 A 6.319 6.319 0 0 0 350.751 218.84 A 7.288 7.288 0 0 0 352.869 219.139 A 8.813 8.813 0 0 0 354.408 219.01 A 6.051 6.051 0 0 0 357.969 217.081 A 6.331 6.331 0 0 0 358.722 216.045 Q 359.337 214.993 359.606 213.64 Z M 348.398 211.359 Q 348.398 214.23 349.547 215.734 A 3.72 3.72 0 0 0 351.969 217.161 A 5.637 5.637 0 0 0 352.924 217.238 Q 355.152 217.238 356.308 215.741 Q 357.463 214.244 357.463 211.359 A 11.324 11.324 0 0 0 357.356 209.746 Q 357.111 208.05 356.308 207.019 A 3.733 3.733 0 0 0 353.986 205.634 A 5.724 5.724 0 0 0 352.896 205.535 A 5.401 5.401 0 0 0 351.552 205.693 A 3.615 3.615 0 0 0 349.533 206.998 A 4.692 4.692 0 0 0 348.804 208.408 Q 348.398 209.627 348.398 211.359 Z M 366.062 210.854 L 366.062 211.359 Q 366.062 214.518 367.115 215.878 A 3.292 3.292 0 0 0 368.785 217.005 Q 369.53 217.238 370.492 217.238 Q 372.359 217.238 373.448 215.785 A 4.523 4.523 0 0 0 373.534 215.666 A 5.487 5.487 0 0 0 374.286 214.063 Q 374.504 213.327 374.586 212.444 A 12.091 12.091 0 0 0 374.635 211.332 A 11.453 11.453 0 0 0 374.527 209.708 Q 374.409 208.885 374.161 208.216 A 4.811 4.811 0 0 0 373.534 207.032 A 3.53 3.53 0 0 0 370.952 205.562 A 4.883 4.883 0 0 0 370.437 205.535 Q 368.141 205.535 367.115 206.807 A 3.888 3.888 0 0 0 366.507 207.915 Q 366.08 209.076 366.062 210.854 Z" id="top_labelLayer" stroke="#000000" fill="#000000" style="stroke:#000000;fill:#000000" vector-effect="non-scaling-stroke"/><path d="M 0 0 L 0 28.414 L 2.5 28.414 L 2.5 56.138 L 0 56.138 L 0 83.862 L 2.5 83.862 L 2.5 111.586 L 0 111.586 L 0 140 L 28.414 140 L 28.414 137.5 L 56.138 137.5 L 56.138 140 L 83.862 140 L 83.862 137.5 L 111.586 137.5 L 111.586 140 L 140 140 L 140 111.586 L 137.5 111.586 L 137.5 83.862 L 140 83.862 L 140 56.138 L 137.5 56.138 L 137.5 28.414 L 140 28.414 L 140 0 L 111.586 0 L 111.586 2.5 L 83.862 2.5 L 83.862 0 L 56.138 0 L 56.138 2.5 L 28.414 2.5 L 28.414 0 L 0 0 Z" id="back_outsideCutPath" stroke="#FF0000" stroke-width="0.1" style="stroke:#FF0000;stroke-width:0.1" vector-effect="non-scaling-stroke"/><path d="M 89.168 72.83 L 89.277 72.83 A 13.435 13.435 0 0 1 89.61 72.38 Q 89.992 71.883 90.538 71.248 A 48.767 48.767 0 0 1 91.068 70.642 L 95.908 65.515 L 98.602 65.515 L 92.531 71.9 L 99.025 80.5 L 96.277 80.5 L 90.986 73.418 L 89.277 74.894 L 89.277 80.5 L 87.035 80.5 L 87.035 59.226 L 89.277 59.226 L 89.277 70.506 A 15.124 15.124 0 0 1 89.271 70.933 Q 89.25 71.633 89.172 72.773 A 93.552 93.552 0 0 1 89.168 72.83 Z M 43.244 78.572 L 43.08 78.572 L 42.602 80.5 L 40.975 80.5 L 40.975 59.226 L 43.244 59.226 L 43.244 64.394 A 47.318 47.318 0 0 1 43.218 65.993 Q 43.191 66.8 43.135 67.512 L 43.244 67.512 A 5.16 5.16 0 0 1 47.011 65.324 A 7.751 7.751 0 0 1 47.947 65.269 A 6.936 6.936 0 0 1 49.899 65.53 A 5.193 5.193 0 0 1 52.534 67.286 Q 53.842 68.901 54.103 71.59 A 14.567 14.567 0 0 1 54.168 72.994 Q 54.168 76.685 52.521 78.729 A 5.373 5.373 0 0 1 48.702 80.737 A 7.697 7.697 0 0 1 47.947 80.773 A 6.884 6.884 0 0 1 46.217 80.562 A 5.99 5.99 0 0 1 45.274 80.233 Q 44.064 79.693 43.244 78.572 Z M 69.029 80.5 L 67.348 80.5 L 66.896 78.367 L 66.787 78.367 A 9.408 9.408 0 0 1 66.026 79.219 Q 65.287 79.945 64.552 80.274 Q 63.633 80.686 62.339 80.758 A 10.213 10.213 0 0 1 61.77 80.773 A 6.965 6.965 0 0 1 60.352 80.638 Q 59.486 80.458 58.821 80.038 A 3.908 3.908 0 0 1 58.276 79.625 A 3.73 3.73 0 0 1 57.151 77.657 A 5.711 5.711 0 0 1 57.012 76.357 A 3.927 3.927 0 0 1 59.245 72.651 Q 61.039 71.697 64.271 71.599 L 66.814 71.517 L 66.814 70.588 Q 66.814 68.824 66.056 67.983 A 2.304 2.304 0 0 0 65.112 67.368 Q 64.734 67.23 64.266 67.177 A 5.608 5.608 0 0 0 63.629 67.142 Q 62.123 67.142 60.299 67.885 A 15.2 15.2 0 0 0 59.391 68.291 L 58.693 66.555 A 10.464 10.464 0 0 1 60.713 65.724 A 11.911 11.911 0 0 1 61.12 65.611 A 10.51 10.51 0 0 1 63.766 65.269 Q 65.442 65.269 66.575 65.735 A 3.863 3.863 0 0 1 67.737 66.459 Q 68.75 67.392 68.969 69.207 A 8.93 8.93 0 0 1 69.029 70.273 L 69.029 80.5 Z M 83.699 66.021 L 83.002 67.949 A 10.096 10.096 0 0 0 81.907 67.585 A 12.058 12.058 0 0 0 81.361 67.45 Q 80.601 67.28 79.991 67.256 A 5.031 5.031 0 0 0 79.789 67.252 A 5.034 5.034 0 0 0 77.745 67.636 Q 75.223 68.748 75.223 73.076 Q 75.223 74.888 75.703 76.147 A 4.707 4.707 0 0 0 76.337 77.314 A 3.605 3.605 0 0 0 78.672 78.71 A 5.491 5.491 0 0 0 79.639 78.791 A 9.501 9.501 0 0 0 82.259 78.41 A 11.73 11.73 0 0 0 83.48 77.984 L 83.48 79.994 A 6.456 6.456 0 0 1 81.901 80.553 Q 81.171 80.715 80.323 80.758 A 12.446 12.446 0 0 1 79.693 80.773 A 8.482 8.482 0 0 1 77.63 80.537 A 5.752 5.752 0 0 1 74.655 78.77 A 6.565 6.565 0 0 1 73.29 76.263 Q 72.989 75.268 72.904 74.071 A 13.723 13.723 0 0 1 72.871 73.103 A 12.522 12.522 0 0 1 73.065 70.826 Q 73.464 68.673 74.683 67.293 A 5.877 5.877 0 0 1 77.9 65.442 A 8.909 8.909 0 0 1 79.844 65.242 A 10.242 10.242 0 0 1 82.004 65.474 A 11.328 11.328 0 0 1 82.634 65.628 Q 83.266 65.802 83.686 66.014 A 3.402 3.402 0 0 1 83.699 66.021 Z M 47.619 67.17 A 6.378 6.378 0 0 0 46.384 67.281 Q 45.68 67.42 45.146 67.733 A 3.018 3.018 0 0 0 44.27 68.503 A 3.885 3.885 0 0 0 43.707 69.574 Q 43.328 70.638 43.259 72.254 A 17.486 17.486 0 0 0 43.244 72.994 Q 43.244 76.152 44.297 77.513 A 3.292 3.292 0 0 0 45.967 78.64 Q 46.711 78.873 47.674 78.873 A 4.524 4.524 0 0 0 48.959 78.701 A 3.264 3.264 0 0 0 50.791 77.348 A 5.21 5.21 0 0 0 51.436 75.954 Q 51.638 75.292 51.733 74.49 A 13.004 13.004 0 0 0 51.816 72.967 A 13.409 13.409 0 0 0 51.735 71.439 Q 51.528 69.637 50.791 68.605 A 3.31 3.31 0 0 0 48.684 67.272 A 5.249 5.249 0 0 0 47.619 67.17 Z M 66.76 74.484 L 66.76 73.131 L 64.49 73.226 A 16.664 16.664 0 0 0 63.159 73.323 Q 61.465 73.52 60.587 74.067 A 2.422 2.422 0 0 0 59.433 75.824 A 3.585 3.585 0 0 0 59.391 76.385 A 3.243 3.243 0 0 0 59.471 77.129 Q 59.606 77.701 59.967 78.094 A 2.021 2.021 0 0 0 60.136 78.258 A 2.471 2.471 0 0 0 61.061 78.749 Q 61.428 78.858 61.866 78.888 A 5.104 5.104 0 0 0 62.221 78.9 A 6.249 6.249 0 0 0 63.57 78.763 Q 64.51 78.555 65.204 78.032 A 3.789 3.789 0 0 0 65.55 77.738 Q 66.753 76.582 66.76 74.507 A 7.228 7.228 0 0 0 66.76 74.484 Z" id="back_labelLayer" stroke="#000000" fill="#000000" style="stroke:#000000;fill:#000000" vector-effect="non-scaling-stroke"/><path d="M 145.5 0 L 145.5 28.414 L 143 28.414 L 143 56.138 L 145.5 56.138 L 145.5 83.862 L 143 83.862 L 143 111.586 L 145.5 111.586 L 145.5 140 L 171.414 140 L 171.414 137.5 L 199.138 137.5 L 199.138 140 L 226.862 140 L 226.862 137.5 L 254.586 137.5 L 254.586 140 L 280.5 140 L 280.5 111.586 L 283 111.586 L 283 83.862 L 280.5 83.862 L 280.5 56.138 L 283 56.138 L 283 28.414 L 280.5 28.414 L 280.5 0 L 254.586 0 L 254.586 2.5 L 226.862 2.5 L 226.862 0 L 199.138 0 L 199.138 2.5 L 171.414 2.5 L 171.414 0 L 145.5 0 Z" id="right_outsideCutPath" stroke="#FF0000" stroke-width="0.1" style="stroke:#FF0000;stroke-width:0.1" vector-effect="non-scaling-stroke"/><path d="M 230.411 77.273 L 228.142 77.273 L 228.142 67.58 Q 228.142 65.748 227.308 64.846 Q 226.474 63.943 224.696 63.943 A 6.868 6.868 0 0 0 223.412 64.055 Q 222.7 64.191 222.152 64.491 A 3.177 3.177 0 0 0 221.244 65.228 A 3.776 3.776 0 0 0 220.603 66.364 Q 220.217 67.404 220.165 68.95 A 14.648 14.648 0 0 0 220.157 69.439 L 220.157 77.273 L 217.888 77.273 L 217.888 56 L 220.157 56 L 220.157 62.439 Q 220.157 63.601 220.048 64.367 L 220.185 64.367 A 4.534 4.534 0 0 1 221.773 62.838 A 5.54 5.54 0 0 1 222.092 62.665 A 5.826 5.826 0 0 1 224.004 62.098 A 7.366 7.366 0 0 1 224.915 62.043 Q 226.723 62.043 227.936 62.608 A 4.091 4.091 0 0 1 229.037 63.349 Q 230.104 64.363 230.343 66.305 A 9.814 9.814 0 0 1 230.411 67.498 L 230.411 77.273 Z M 209.63 62.289 L 214.812 62.289 L 214.812 63.725 L 212.036 64.053 A 3.688 3.688 0 0 1 212.355 64.528 Q 212.551 64.869 212.72 65.304 A 4.366 4.366 0 0 1 212.978 66.347 A 5.607 5.607 0 0 1 213.021 67.047 A 5.203 5.203 0 0 1 212.782 68.66 A 4.208 4.208 0 0 1 211.517 70.56 Q 210.162 71.743 207.897 71.86 A 9.857 9.857 0 0 1 207.388 71.873 A 7.294 7.294 0 0 1 206.544 71.826 A 6.159 6.159 0 0 1 206.13 71.764 Q 205.302 72.201 204.947 72.767 A 1.708 1.708 0 0 0 204.681 73.691 Q 204.681 74.288 205.156 74.582 A 1.259 1.259 0 0 0 205.187 74.601 A 1.592 1.592 0 0 0 205.54 74.746 Q 205.909 74.854 206.472 74.883 A 8.633 8.633 0 0 0 206.923 74.894 L 209.575 74.894 A 9.29 9.29 0 0 1 210.986 74.995 Q 211.724 75.108 212.32 75.351 A 4.101 4.101 0 0 1 213.314 75.92 A 3.32 3.32 0 0 1 214.548 78.035 A 4.987 4.987 0 0 1 214.62 78.9 A 4.914 4.914 0 0 1 214.339 80.6 Q 213.872 81.878 212.624 82.694 A 6.806 6.806 0 0 1 210.869 83.49 Q 210.005 83.753 208.95 83.88 A 17.988 17.988 0 0 1 206.8 84 A 12.716 12.716 0 0 1 205.094 83.893 Q 204.228 83.776 203.522 83.529 A 5.274 5.274 0 0 1 202.268 82.906 A 3.617 3.617 0 0 1 201.101 81.641 Q 200.728 80.948 200.681 80.071 A 4.792 4.792 0 0 1 200.675 79.816 A 3.47 3.47 0 0 1 201.55 77.451 A 3.963 3.963 0 0 1 202.911 76.459 A 5.617 5.617 0 0 1 204.011 76.098 A 2.355 2.355 0 0 1 203.096 75.358 A 2.796 2.796 0 0 1 203.047 75.291 A 2.104 2.104 0 0 1 202.661 74.154 A 2.606 2.606 0 0 1 202.657 74.019 A 2.595 2.595 0 0 1 202.788 73.184 A 2.3 2.3 0 0 1 203.095 72.584 Q 203.425 72.119 204.045 71.678 A 7.129 7.129 0 0 1 204.476 71.394 Q 203.313 70.916 202.582 69.767 A 4.692 4.692 0 0 1 201.862 67.507 A 5.726 5.726 0 0 1 201.851 67.142 A 6.557 6.557 0 0 1 202.023 65.592 A 4.314 4.314 0 0 1 203.327 63.349 A 4.82 4.82 0 0 1 205.177 62.328 Q 206.2 62.016 207.511 62.016 A 8.699 8.699 0 0 1 208.661 62.088 A 6.626 6.626 0 0 1 209.63 62.289 Z M 241.964 75.4 L 241.964 77.137 Q 241.63 77.297 241.012 77.408 A 8.487 8.487 0 0 1 240.877 77.431 A 9.837 9.837 0 0 1 240.236 77.514 Q 239.933 77.543 239.662 77.546 A 5.818 5.818 0 0 1 239.585 77.547 A 5.928 5.928 0 0 1 237.838 77.312 Q 235.918 76.719 235.415 74.633 A 7.134 7.134 0 0 1 235.237 72.967 L 235.237 64.053 L 233.091 64.053 L 233.091 62.959 L 235.237 62.016 L 236.194 58.816 L 237.507 58.816 L 237.507 62.289 L 241.854 62.289 L 241.854 64.053 L 237.507 64.053 L 237.507 72.871 Q 237.507 73.822 237.824 74.463 A 2.201 2.201 0 0 0 238.149 74.949 A 2.108 2.108 0 0 0 239.446 75.639 A 3.033 3.033 0 0 0 239.913 75.674 A 7.453 7.453 0 0 0 241.005 75.596 A 6.868 6.868 0 0 0 241.075 75.585 A 12.277 12.277 0 0 0 241.403 75.529 Q 241.738 75.466 241.964 75.4 Z M 192.663 62.18 L 192.349 64.285 A 10.002 10.002 0 0 0 191.629 64.152 Q 191.271 64.1 190.952 64.086 A 5.323 5.323 0 0 0 190.708 64.08 Q 188.89 64.08 187.598 65.557 A 5.183 5.183 0 0 0 186.347 68.467 A 6.889 6.889 0 0 0 186.306 69.234 L 186.306 77.273 L 184.036 77.273 L 184.036 62.289 L 185.909 62.289 L 186.169 65.064 L 186.278 65.064 Q 187.112 63.601 188.288 62.809 Q 189.464 62.016 190.872 62.016 A 10.419 10.419 0 0 1 191.805 62.055 A 7.604 7.604 0 0 1 192.663 62.18 Z M 197.735 62.289 L 197.735 77.273 L 195.466 77.273 L 195.466 62.289 L 197.735 62.289 Z M 208.851 76.932 L 206.13 76.932 Q 204.999 76.932 204.234 77.327 A 2.658 2.658 0 0 0 203.724 77.67 A 2.392 2.392 0 0 0 202.938 79.026 A 3.632 3.632 0 0 0 202.862 79.789 A 2.279 2.279 0 0 0 203.013 80.634 Q 203.228 81.18 203.754 81.547 A 2.663 2.663 0 0 0 203.888 81.635 A 3.635 3.635 0 0 0 204.782 82.018 Q 205.631 82.264 206.827 82.264 A 15.257 15.257 0 0 0 208.317 82.196 Q 209.811 82.049 210.749 81.582 A 3.769 3.769 0 0 0 211.059 81.409 Q 212.433 80.555 212.433 79.092 A 3.071 3.071 0 0 0 212.376 78.482 Q 212.227 77.746 211.681 77.403 Q 211.108 77.044 209.766 76.958 A 14.441 14.441 0 0 0 208.851 76.932 Z M 204.599 69.024 A 2.428 2.428 0 0 0 204.981 69.467 A 2.934 2.934 0 0 0 206.162 70.108 Q 206.612 70.237 207.149 70.265 A 5.844 5.844 0 0 0 207.456 70.273 A 4.944 4.944 0 0 0 208.751 70.119 Q 210.232 69.716 210.631 68.263 A 4.597 4.597 0 0 0 210.778 67.047 Q 210.778 64.367 208.661 63.814 A 4.936 4.936 0 0 0 207.415 63.67 Q 205.815 63.67 204.954 64.531 A 2.724 2.724 0 0 0 204.295 65.641 Q 204.156 66.071 204.113 66.594 A 5.97 5.97 0 0 0 204.093 67.088 Q 204.093 68.274 204.599 69.024 Z M 195.306 57.813 A 2.515 2.515 0 0 0 195.274 58.228 Q 195.274 58.614 195.372 58.901 A 1.172 1.172 0 0 0 195.657 59.37 A 1.273 1.273 0 0 0 196.118 59.663 A 1.442 1.442 0 0 0 196.614 59.746 Q 197.161 59.746 197.558 59.37 Q 197.954 58.994 197.954 58.228 A 2.596 2.596 0 0 0 197.943 57.983 Q 197.922 57.759 197.86 57.575 A 1.146 1.146 0 0 0 197.558 57.094 Q 197.161 56.725 196.614 56.725 A 1.732 1.732 0 0 0 196.5 56.728 A 1.312 1.312 0 0 0 195.657 57.087 Q 195.385 57.344 195.306 57.813 Z" id="right_labelLayer" stroke="#000000" fill="#000000" style="stroke:#000000;fill:#000000" vector-effect="non-scaling-stroke"/><path d="M 288.5 2.5 L 288.5 28.414 L 286 28.414 L 286 56.138 L 288.5 56.138 L 288.5 83.862 L 286 83.862 L 286 111.586 L 288.5 111.586 L 288.5 137.5 L 314.414 137.5 L 314.414 140 L 342.138 140 L 342.138 137.5 L 369.862 137.5 L 369.862 140 L 397.586 140 L 397.586 137.5 L 423.5 137.5 L 423.5 111.586 L 426 111.586 L 426 83.862 L 423.5 83.862 L 423.5 56.138 L 426 56.138 L 426 28.414 L 423.5 28.414 L 423.5 2.5 L 397.586 2.5 L 397.586 0 L 369.862 0 L 369.862 2.5 L 342.138 2.5 L 342.138 0 L 314.414 0 L 314.414 2.5 L 288.5 2.5 Z" id="bottom_outsideCutPath" stroke="#FF0000" stroke-width="0.1" style="stroke:#FF0000;stroke-width:0.1" vector-effect="non-scaling-stroke"/><path d="M 402.06 80.5 L 399.791 80.5 L 399.791 70.752 Q 399.791 68.961 399.025 68.065 Q 398.356 67.282 397.037 67.184 A 5.268 5.268 0 0 0 396.646 67.17 A 5.84 5.84 0 0 0 395.458 67.283 Q 394.751 67.43 394.219 67.768 A 3.005 3.005 0 0 0 393.516 68.386 A 3.75 3.75 0 0 0 392.88 69.537 Q 392.507 70.583 392.504 72.109 A 12.554 12.554 0 0 0 392.504 72.132 L 392.504 80.5 L 390.234 80.5 L 390.234 70.752 Q 390.234 68.961 389.469 68.065 A 2.381 2.381 0 0 0 388.374 67.353 Q 387.98 67.224 387.498 67.186 A 5.315 5.315 0 0 0 387.076 67.17 A 5.637 5.637 0 0 0 385.91 67.282 Q 384.649 67.549 383.952 68.448 Q 383.054 69.606 382.97 72.107 A 15.801 15.801 0 0 0 382.961 72.638 L 382.961 80.5 L 380.691 80.5 L 380.691 65.515 L 382.537 65.515 L 382.906 67.566 L 383.016 67.566 A 4.46 4.46 0 0 1 384.827 65.857 A 5.388 5.388 0 0 1 386.955 65.26 A 6.508 6.508 0 0 1 387.445 65.242 Q 390.959 65.242 392.039 67.785 L 392.148 67.785 Q 392.818 66.609 394.09 65.925 A 5.744 5.744 0 0 1 396.197 65.285 A 7.163 7.163 0 0 1 396.988 65.242 Q 398.702 65.242 399.836 65.835 A 3.74 3.74 0 0 1 400.796 66.547 Q 401.717 67.498 401.967 69.279 A 10.41 10.41 0 0 1 402.06 70.724 L 402.06 80.5 Z M 312.209 78.572 L 312.045 78.572 L 311.566 80.5 L 309.939 80.5 L 309.939 59.226 L 312.209 59.226 L 312.209 64.394 A 47.318 47.318 0 0 1 312.183 65.993 Q 312.156 66.799 312.1 67.511 L 312.209 67.511 A 5.16 5.16 0 0 1 315.975 65.324 A 7.751 7.751 0 0 1 316.912 65.269 A 6.936 6.936 0 0 1 318.864 65.53 A 5.193 5.193 0 0 1 321.499 67.286 Q 322.807 68.901 323.068 71.589 A 14.567 14.567 0 0 1 323.133 72.994 Q 323.133 76.685 321.485 78.729 A 5.373 5.373 0 0 1 317.667 80.737 A 7.697 7.697 0 0 1 316.912 80.773 A 6.884 6.884 0 0 1 315.182 80.562 A 5.99 5.99 0 0 1 314.239 80.233 Q 313.029 79.693 312.209 78.572 Z M 350.9 78.627 L 350.9 80.363 Q 350.567 80.523 349.949 80.634 A 8.487 8.487 0 0 1 349.813 80.657 A 9.837 9.837 0 0 1 349.172 80.74 Q 348.87 80.769 348.598 80.773 A 5.818 5.818 0 0 1 348.521 80.773 A 5.928 5.928 0 0 1 346.775 80.538 Q 344.854 79.945 344.352 77.86 A 7.134 7.134 0 0 1 344.174 76.193 L 344.174 67.279 L 342.027 67.279 L 342.027 66.185 L 344.174 65.242 L 345.131 62.043 L 346.443 62.043 L 346.443 65.515 L 350.791 65.515 L 350.791 67.279 L 346.443 67.279 L 346.443 76.097 Q 346.443 77.048 346.761 77.689 A 2.201 2.201 0 0 0 347.086 78.175 A 2.108 2.108 0 0 0 348.382 78.865 A 3.033 3.033 0 0 0 348.85 78.9 A 7.453 7.453 0 0 0 349.941 78.822 A 6.868 6.868 0 0 0 350.012 78.811 A 12.277 12.277 0 0 0 350.339 78.755 Q 350.675 78.692 350.9 78.627 Z M 360.785 78.627 L 360.785 80.363 Q 360.452 80.523 359.834 80.634 A 8.487 8.487 0 0 1 359.698 80.657 A 9.837 9.837 0 0 1 359.057 80.74 Q 358.754 80.769 358.483 80.773 A 5.818 5.818 0 0 1 358.406 80.773 A 5.928 5.928 0 0 1 356.659 80.538 Q 354.739 79.945 354.237 77.86 A 7.134 7.134 0 0 1 354.059 76.193 L 354.059 67.279 L 351.912 67.279 L 351.912 66.185 L 354.059 65.242 L 355.016 62.043 L 356.328 62.043 L 356.328 65.515 L 360.676 65.515 L 360.676 67.279 L 356.328 67.279 L 356.328 76.097 Q 356.328 77.048 356.645 77.689 A 2.201 2.201 0 0 0 356.971 78.175 A 2.108 2.108 0 0 0 358.267 78.865 A 3.033 3.033 0 0 0 358.734 78.9 A 7.453 7.453 0 0 0 359.826 78.822 A 6.868 6.868 0 0 0 359.896 78.811 A 12.277 12.277 0 0 0 360.224 78.755 Q 360.56 78.692 360.785 78.627 Z M 339.823 75.274 A 11.723 11.723 0 0 0 340.031 72.994 Q 340.031 71.537 339.722 70.327 A 7.067 7.067 0 0 0 338.179 67.334 A 5.941 5.941 0 0 0 335.42 65.555 A 7.626 7.626 0 0 0 333.182 65.242 A 8.815 8.815 0 0 0 331.598 65.378 A 6.003 6.003 0 0 0 328.096 67.286 Q 326.264 69.33 326.264 72.994 A 11.354 11.354 0 0 0 326.406 74.833 A 8.396 8.396 0 0 0 327.111 77.123 A 7.459 7.459 0 0 0 327.276 77.446 A 6.144 6.144 0 0 0 329.518 79.83 A 6.319 6.319 0 0 0 330.968 80.475 A 7.288 7.288 0 0 0 333.086 80.773 A 8.813 8.813 0 0 0 334.625 80.644 A 6.051 6.051 0 0 0 338.185 78.715 A 6.331 6.331 0 0 0 338.939 77.68 Q 339.554 76.628 339.823 75.274 Z M 376.505 75.274 A 11.723 11.723 0 0 0 376.713 72.994 Q 376.713 71.537 376.404 70.327 A 7.067 7.067 0 0 0 374.86 67.334 A 5.941 5.941 0 0 0 372.102 65.555 A 7.626 7.626 0 0 0 369.863 65.242 A 8.815 8.815 0 0 0 368.28 65.378 A 6.003 6.003 0 0 0 364.777 67.286 Q 362.945 69.33 362.945 72.994 A 11.354 11.354 0 0 0 363.088 74.833 A 8.396 8.396 0 0 0 363.793 77.123 A 7.459 7.459 0 0 0 363.958 77.446 A 6.144 6.144 0 0 0 366.199 79.83 A 6.319 6.319 0 0 0 367.65 80.475 A 7.288 7.288 0 0 0 369.768 80.773 A 8.813 8.813 0 0 0 371.306 80.644 A 6.051 6.051 0 0 0 374.867 78.715 A 6.331 6.331 0 0 0 375.621 77.68 Q 376.236 76.628 376.505 75.274 Z M 328.615 72.994 Q 328.615 75.865 329.764 77.369 A 3.72 3.72 0 0 0 332.186 78.795 A 5.637 5.637 0 0 0 333.141 78.873 Q 335.369 78.873 336.524 77.376 Q 337.68 75.879 337.68 72.994 A 11.324 11.324 0 0 0 337.572 71.38 Q 337.328 69.684 336.524 68.653 A 3.733 3.733 0 0 0 334.203 67.268 A 5.724 5.724 0 0 0 333.113 67.17 A 5.401 5.401 0 0 0 331.769 67.327 A 3.615 3.615 0 0 0 329.75 68.632 A 4.692 4.692 0 0 0 329.02 70.042 Q 328.615 71.262 328.615 72.994 Z M 365.297 72.994 Q 365.297 75.865 366.445 77.369 A 3.72 3.72 0 0 0 368.868 78.795 A 5.637 5.637 0 0 0 369.822 78.873 Q 372.051 78.873 373.206 77.376 Q 374.361 75.879 374.361 72.994 A 11.324 11.324 0 0 0 374.254 71.38 Q 374.009 69.684 373.206 68.653 A 3.733 3.733 0 0 0 370.885 67.268 A 5.724 5.724 0 0 0 369.795 67.17 A 5.401 5.401 0 0 0 368.45 67.327 A 3.615 3.615 0 0 0 366.432 68.632 A 4.692 4.692 0 0 0 365.702 70.042 Q 365.297 71.262 365.297 72.994 Z M 316.584 67.17 A 6.378 6.378 0 0 0 315.349 67.281 Q 314.645 67.42 314.111 67.733 A 3.018 3.018 0 0 0 313.234 68.503 A 3.885 3.885 0 0 0 312.672 69.574 Q 312.293 70.637 312.224 72.254 A 17.486 17.486 0 0 0 312.209 72.994 Q 312.209 76.152 313.262 77.512 A 3.292 3.292 0 0 0 314.932 78.639 Q 315.676 78.873 316.639 78.873 A 4.524 4.524 0 0 0 317.924 78.701 A 3.264 3.264 0 0 0 319.756 77.348 A 5.21 5.21 0 0 0 320.4 75.954 Q 320.603 75.292 320.698 74.49 A 13.004 13.004 0 0 0 320.781 72.966 A 13.409 13.409 0 0 0 320.7 71.439 Q 320.493 69.637 319.756 68.605 A 3.31 3.31 0 0 0 317.649 67.272 A 5.249 5.249 0 0 0 316.584 67.17 Z" id="bottom_labelLayer" stroke="#000000" fill="#000000" style="stroke:#000000;fill:#000000" vector-effect="non-scaling-stroke"/></g></svg>