0
SECTION
2
HEADER
9
$INSUNITS
70
4
9
$ACADVER
1
AC1014
9
$HANDSEED
5
FFFF
0
ENDSEC
0
SECTION
2
TABLES
0
TABLE
2
VPORT
5
8
100
AcDbSymbolTable
0
ENDTAB
0
TABLE
2
LTYPE
5
5
100
AcDbSymbolTable
0
LTYPE
5
14
100
AcDbSymbolTableRecord
100
AcDbLinetypeTableRecord
2
BYBLOCK
70
0
0
LTYPE
5
15
100
AcDbSymbolTableRecord
100
AcDbLinetypeTableRecord
2
BYLAYER
70
0
0
ENDTAB
0
TABLE
2
LAYER
5
2
100
AcDbSymbolTable
70
2
0
LAYER
5
50
100
AcDbSymbolTableRecord
100
AcDbLayerTableRecord
2
0
70
0
6
CONTINUOUS
0
ENDTAB
0
TABLE
2
STYLE
5
3
100
AcDbSymbolTable
70
1
0
STYLE
5
11
100
AcDbSymbolTableRecord
100
AcDbTextStyleTableRecord
2
STANDARD
70
0
0
ENDTAB
0
TABLE
2
VIEW
5
6
100
AcDbSymbolTable
70
0
0
ENDTAB
0
TABLE
2
UCS
5
7
100
AcDbSymbolTable
70
0
0
ENDTAB
0
TABLE
2
APPID
5
9
100
AcDbSymbolTable
70
2
0
APPID
5
12
100
AcDbSymbolTableRecord
100
AcDbRegAppTableRecord
2
ACAD
70
0
0
ENDTAB
0
TABLE
2
DIMSTYLE
5
A
100
AcDbSymbolTable
70
1
0
ENDTAB
0
TABLE
2
BLOCK_RECORD
5
1
100
AcDbSymbolTable
70
1
0
BLOCK_RECORD
5
1F
100
AcDbSymbolTableRecord
100
AcDbBlockTableRecord
2
*MODEL_SPACE
0
BLOCK_RECORD
5
1B
100
AcDbSymbolTableRecord
100
AcDbBlockTableRecord
2
*PAPER_SPACE
0
ENDTAB
0
ENDSEC
0
SECTION
2
BLOCKS
0
BLOCK
5
20
100
AcDbEntity
100
AcDbBlockBegin
2
*MODEL_SPACE
0
ENDBLK
5
21
100
AcDbEntity
100
AcDbBlockEnd
0
BLOCK
5
1C
100
AcDbEntity
100
AcDbBlockBegin
2
*PAPER_SPACE
0
ENDBLK
5
1D
100
AcDbEntity
100
AcDbBlockEnd
0
ENDSEC
0
SECTION
2
ENTITIES
0
LWPOLYLINE
5
100
100
AcDbEntity
8
0
100
AcDbPolyline
90
4
70
1
43
0.0
10
-204.49489742783175
20
-30
10
-74.494897427831773
20
-30
42
9.8989794855663451
10
-74.494897427831788
20
-20
10
-204.49489742783175
20
-20
0
LWPOLYLINE
5
101
100
AcDbEntity
8
0
100
AcDbPolyline
90
4
70
1
43
0.0
10
179.55718717090591
20
-29.684501921559562
10
49.557187170905898
20
-29.684501921559558
42
-10.227789844002128
10
49.494897427831788
20
-20
10
179.55718717090591
20
-20
0
LWPOLYLINE
5
102
100
AcDbEntity
8
0
100
AcDbPolyline
90
4
70
1
43
0.0
10
-204.49489742783175
20
45
10
-74.494897427831773
20
45
42
9.8989794855663451
10
-74.494897427831788
20
55
10
-204.49489742783175
20
55
0
LWPOLYLINE
5
103
100
AcDbEntity
8
0
100
AcDbPolyline
90
4
70
1
43
0.0
10
179.4948974278318
20
45
10
49.494897427831788
20
45
42
-9.8989794855663451
10
49.494897427831788
20
55
10
180
20
55
0
LWPOLYLINE
5
104
100
AcDbEntity
8
0
100
AcDbPolyline
90
4
70
1
43
0.0
10
-64.999999999999972
20
-4.9999999999999556
10
-65.000000000000057
20
-45.000000000000043
10
-35.000000000000341
20
-44.999999999999424
10
-34.999999999999986
20
-5.0000000000000071
0
LWPOLYLINE
5
105
100
AcDbEntity
8
0
100
AcDbPolyline
90
4
70
1
43
0.0
10
-65
20
70
10
-65
20
30
10
-35
20
30
10
-35
20
70
0
LWPOLYLINE
5
106
100
AcDbEntity
8
0
100
AcDbPolyline
90
4
70
1
43
0.0
10
40
20
30
10
40
20
70
10
10
20
70
10
10
20
30
0
LWPOLYLINE
5
107
100
AcDbEntity
8
0
100
AcDbPolyline
90
4
70
1
43
0.0
10
40
20
-45
10
40
20
-5.3259797642995537
10
9.5749253562502901
20
-5.3259797642995554
10
9.5749253562502901
20
-45
0
SPLINE
5
108
100
AcDbEntity
8
0
100
AcDbSpline
70
0
71
2
72
6
73
3
74
0
42
0.000000001
43
0.0000000001
44
0.0000000001
40
0
40
0
40
0
40
1
40
1
40
1
10
-49.410641193389921
20
-25.720326900482249
30
0
10
-48.62482905387882
20
-27.717597484588694
30
0
10
-46.69304251670841
20
-28.503409624099806
30
0
0
SPLINE
5
109
100
AcDbEntity
8
0
100
AcDbSpline
70
0
71
2
72
6
73
3
74
0
42
0.000000001
43
0.0000000001
44
0.0000000001
40
0
40
0
40
0
40
1
40
1
40
1
10
-46.69304251670841
20
-28.503409624099806
30
0
10
-48.69031429290775
20
-29.060026407241892
30
0
10
-49.443383216857953
20
-31.646656990051341
30
0
0
LINE
5
110
100
AcDbEntity
8
0
100
AcDbLine
10
-49.443383216857953
20
-31.646656990051341
30
0
11
-48.755798339843793
21
-32.006820440292429
31
0
0
SPLINE
5
111
100
AcDbEntity
8
0
100
AcDbSpline
70
0
71
2
72
6
73
3
74
0
42
0.000000001
43
0.0000000001
44
0.0000000001
40
0
40
0
40
0
40
1
40
1
40
1
10
-48.755798339843793
20
-32.006820440292429
30
0
10
-47.969986200332677
20
-28.96180033683784
30
0
10
-45.317871570587194
20
-28.961800336837847
30
0
0
LINE
5
112
100
AcDbEntity
8
0
100
AcDbLine
10
-45.317871570587194
20
-28.961800336837847
30
0
11
-44.040927290916478
21
-28.961800336837854
31
0
0
LINE
5
113
100
AcDbEntity
8
0
100
AcDbLine
10
-44.040927290916478
20
-28.961800336837847
30
0
11
-44.040927290916478
21
-29.387447834014971
31
0
0
SPLINE
5
114
100
AcDbEntity
8
0
100
AcDbSpline
70
0
71
2
72
6
73
3
74
0
42
0.000000001
43
0.0000000001
44
0.0000000001
40
0
40
0
40
0
40
1
40
1
40
1
10
-44.040927290916478
20
-29.387447834014971
30
0
10
-44.892223477363622
20
-29.81309652328499
30
0
10
-45.678036212921178
20
-30.598907470703203
30
0
0
LINE
5
115
100
AcDbEntity
8
0
100
AcDbLine
10
-45.678036212921178
20
-30.598907470703203
30
0
11
-45.121419429779088
21
-31.155524253845293
31
0
0
SPLINE
5
116
100
AcDbEntity
8
0
100
AcDbSpline
70
0
71
2
72
6
73
3
74
0
42
0.000000001
43
0.0000000001
44
0.0000000001
40
0
40
0
40
0
40
1
40
1
40
1
10
-45.121419429779088
20
-31.155524253845293
30
0
10
-43.844474554061925
20
-29.878580570221025
30
0
10
-42.076398134231603
20
-29.485675096511926
30
0
0
LINE
5
117
100
AcDbEntity
8
0
100
AcDbLine
10
-42.076398134231603
20
-29.485675096511926
30
0
11
-42.272850871086156
21
-28.732604980468835
31
0
0
SPLINE
5
118
100
AcDbEntity
8
0
100
AcDbSpline
70
0
71
2
72
6
73
3
74
0
42
0.000000001
43
0.0000000001
44
0.0000000001
40
0
40
0
40
0
40
1
40
1
40
1
10
-42.272850871086156
20
-28.732604980468835
30
0
10
-42.371077537536657
20
-28.601636886596765
30
0
10
-42.502046227455175
20
-28.830831050872888
30
0
0
SPLINE
5
119
100
AcDbEntity
8
0
100
AcDbSpline
70
0
71
2
72
6
73
3
74
0
42
0.000000001
43
0.0000000001
44
0.0000000001
40
0
40
0
40
0
40
1
40
1
40
1
10
-42.502046227455175
20
-28.830831050872888
30
0
10
-42.796725630760228
20
-28.929058313369836
30
0
10
-43.418826460838353
20
-29.158253669738848
30
0
0
LINE
5
120
100
AcDbEntity
8
0
100
AcDbLine
10
-43.418826460838353
20
-29.158253669738848
30
0
11
-43.418826460838346
21
-26.244201660156328
31
0
0
LINE
5
121
100
AcDbEntity
8
0
100
AcDbLine
10
-43.418826460838346
20
-26.244201660156328
30
0
11
-43.287857770919828
21
-26.113232374191362
31
0
0
LINE
5
122
100
AcDbEntity
8
0
100
AcDbLine
10
-43.287857770919828
20
-26.113232374191362
30
0
11
-43.746247887611418
21
-25.556616783142168
31
0
0
SPLINE
5
123
100
AcDbEntity
8
0
100
AcDbSpline
70
0
71
2
72
6
73
3
74
0
42
0.000000001
43
0.0000000001
44
0.0000000001
40
0
40
0
40
0
40
1
40
1
40
1
10
-43.746247887611418
20
-25.556616783142168
30
0
10
-43.909958600997953
20
-25.425647497177202
30
0
10
-43.942701220512419
20
-25.687584877014238
30
0
0
SPLINE
5
124
100
AcDbEntity
8
0
100
AcDbSpline
70
0
71
2
72
6
73
3
74
0
42
0.000000001
43
0.0000000001
44
0.0000000001
40
0
40
0
40
0
40
1
40
1
40
1
10
-43.942701220512419
20
-25.687584877014238
30
0
10
-44.990450143814115
20
-26.113232374191362
30
0
10
-46.267395019531286
20
-27.030012607574541
30
0
0
LINE
5
125
100
AcDbEntity
8
0
100
AcDbLine
10
-46.267395019531286
20
-27.030012607574541
30
0
11
-45.776262283325231
21
-27.586629390716631
31
0
0
SPLINE
5
126
100
AcDbEntity
8
0
100
AcDbSpline
70
0
71
2
72
6
73
3
74
0
42
0.000000001
43
0.0000000001
44
0.0000000001
40
0
40
0
40
0
40
1
40
1
40
1
10
-45.776262283325231
20
-27.586629390716631
30
0
10
-44.793997406959569
20
-26.800818443298418
30
0
10
-44.040927290916471
20
-26.538879871368486
30
0
0
LINE
5
127
100
AcDbEntity
8
0
100
AcDbLine
10
-44.040927290916471
20
-26.538879871368486
30
0
11
-44.040927290916471
21
-28.208730220794756
31
0
0
LINE
5
128
100
AcDbEntity
8
0
100
AcDbLine
10
-44.040927290916478
20
-28.208730220794756
30
0
11
-45.154161453247106
21
-28.208730220794756
31
0
0
SPLINE
5
129
100
AcDbEntity
8
0
100
AcDbSpline
70
0
71
2
72
6
73
3
74
0
42
0.000000001
43
0.0000000001
44
0.0000000001
40
0
40
0
40
0
40
1
40
1
40
1
10
-45.154161453247106
20
-28.208730220794756
30
0
10
-47.478854656219518
20
-28.208730220794752
30
0
10
-48.624829053878813
20
-25.392905473709177
30
0
0
LINE
5
130
100
AcDbEntity
8
0
100
AcDbLine
10
-48.624829053878813
20
-25.392905473709177
30
0
11
-49.410641193389921
21
-25.720326900482249
31
0
0
SPLINE
5
131
100
AcDbEntity
8
0
100
AcDbSpline
70
0
71
2
72
6
73
3
74
0
42
0.000000001
43
0.0000000001
44
0.0000000001
40
0
40
0
40
0
40
1
40
1
40
1
10
-46.463847160339391
20
-30.500681400299147
30
0
10
-47.446111440658605
20
-31.384719610214308
30
0
10
-48.10095548629765
20
-32.334241867065501
30
0
0
SPLINE
5
132
100
AcDbEntity
8
0
100
AcDbSpline
70
0
71
2
72
6
73
3
74
0
42
0.000000001
43
0.0000000001
44
0.0000000001
40
0
40
0
40
0
40
1
40
1
40
1
10
-48.10095548629765
20
-32.334241867065501
30
0
10
-48.362891674041791
20
-32.399727106094431
30
0
10
-48.23192358016972
20
-32.497953176498484
30
0
0
LINE
5
133
100
AcDbEntity
8
0
100
AcDbLine
10
-48.23192358016972
20
-32.497953176498484
30
0
11
-47.54433870315556
21
-32.956343889236521
31
0
0
SPLINE
5
134
100
AcDbEntity
8
0
100
AcDbSpline
70
0
71
2
72
6
73
3
74
0
42
0.000000001
43
0.0000000001
44
0.0000000001
40
0
40
0
40
0
40
1
40
1
40
1
10
-47.54433870315556
20
-32.956343889236528
30
0
10
-46.824010610580487
20
-31.843110322952345
30
0
10
-45.939972400665319
20
-30.959072113037188
30
0
0
LINE
5
135
100
AcDbEntity
8
0
100
AcDbLine
10
-45.939972400665319
20
-30.959072113037188
30
0
11
-46.463847160339391
21
-30.50068140029915
31
0
0
SPLINE
5
136
100
AcDbEntity
8
0
100
AcDbSpline
70
0
71
2
72
6
73
3
74
0
42
0.000000001
43
0.0000000001
44
0.0000000001
40
0
40
0
40
0
40
1
40
1
40
1
10
-44.466575384140057
20
-31.450204849243242
30
0
10
-43.909958600997967
20
-31.941336393356401
30
0
10
-43.549795150756879
20
-32.628921270370562
30
0
0
LINE
5
137
100
AcDbEntity
8
0
100
AcDbLine
10
-43.549795150756879
20
-32.628921270370562
30
0
11
-42.894951701164288
21
-32.137789726257402
31
0
0
SPLINE
5
138
100
AcDbEntity
8
0
100
AcDbSpline
70
0
71
2
72
6
73
3
74
0
42
0.000000001
43
0.0000000001
44
0.0000000001
40
0
40
0
40
0
40
1
40
1
40
1
10
-42.894951701164288
20
-32.137789726257402
30
0
10
-43.222373723983807
20
-31.417461633682329
30
0
10
-43.746247887611425
20
-30.893588066101152
30
0
0
LINE
5
139
100
AcDbEntity
8
0
100
AcDbLine
10
-43.746247887611425
20
-30.893588066101152
30
0
11
-44.46657538414005
21
-31.450204849243242
31
0
0
LINE
5
140
100
AcDbEntity
8
0
100
AcDbLine
10
-46.562073230743422
20
-21.725783348083571
30
0
11
-46.562073230743422
21
-19.892222881317213
31
0
0
LINE
5
141
100
AcDbEntity
8
0
100
AcDbLine
10
-46.562073230743422
20
-19.892222881317213
30
0
11
-44.826738834381118
21
-19.892222881317217
31
0
0
LINE
5
142
100
AcDbEntity
8
0
100
AcDbLine
10
-44.826738834381118
20
-19.892222881317217
30
0
11
-44.826738834381118
21
-21.725783348083574
31
0
0
LINE
5
143
100
AcDbEntity
8
0
100
AcDbLine
10
-44.826738834381118
20
-21.725783348083574
30
0
11
-46.562073230743422
21
-21.725783348083571
31
0
0
LINE
5
144
100
AcDbEntity
8
0
100
AcDbLine
10
-47.511596679687514
20
-19.892222881317213
30
0
11
-47.184174060821547
21
-19.892222881317213
31
0
0
LINE
5
145
100
AcDbEntity
8
0
100
AcDbLine
10
-47.184174060821547
20
-19.892222881317213
30
0
11
-47.184174060821547
21
-21.725783348083571
31
0
0
LINE
5
146
100
AcDbEntity
8
0
100
AcDbLine
10
-47.184174060821547
20
-21.725783348083571
30
0
11
-47.544338703155532
21
-21.725783348083571
31
0
0
LINE
5
147
100
AcDbEntity
8
0
100
AcDbLine
10
-47.544338703155532
20
-21.725783348083571
30
0
11
-47.544338703155532
21
-22.380628585815504
31
0
0
LINE
5
148
100
AcDbEntity
8
0
100
AcDbLine
10
-47.544338703155532
20
-22.380628585815504
30
0
11
-44.204638004302993
21
-22.380628585815508
31
0
0
LINE
5
149
100
AcDbEntity
8
0
100
AcDbLine
10
-44.204638004302993
20
-22.380628585815508
30
0
11
-44.204638004302986
21
-19.237380027771074
31
0
0
LINE
5
150
100
AcDbEntity
8
0
100
AcDbLine
10
-44.204638004302993
20
-19.237380027771074
30
0
11
-47.511596679687514
21
-19.237380027771071
31
0
0
LINE
5
151
100
AcDbEntity
8
0
100
AcDbLine
10
-47.511596679687514
20
-19.237380027771071
30
0
11
-47.511596679687514
21
-19.892222881317213
31
0
0
LINE
5
152
100
AcDbEntity
8
0
100
AcDbLine
10
-48.428376913070693
20
-23.461117744445872
30
0
11
-48.428376913070686
21
-18.189630508422923
31
0
0
LINE
5
153
100
AcDbEntity
8
0
100
AcDbLine
10
-48.428376913070686
20
-18.189630508422923
30
0
11
-43.091405034065254
21
-18.18963050842293
31
0
0
LINE
5
154
100
AcDbEntity
8
0
100
AcDbLine
10
-43.091405034065254
20
-18.189630508422937
30
0
11
-43.091405034065261
21
-23.461117744445886
31
0
0
LINE
5
155
100
AcDbEntity
8
0
100
AcDbLine
10
-43.091405034065275
20
-23.461117744445886
30
0
11
-48.428376913070707
21
-23.461117744445875
31
0
0
LINE
5
156
100
AcDbEntity
8
0
100
AcDbLine
10
-49.345157146453865
20
-18.189630508422923
30
0
11
-49.050477743148811
21
-18.189630508422923
31
0
0
LINE
5
157
100
AcDbEntity
8
0
100
AcDbLine
10
-49.050477743148811
20
-18.189630508422923
30
0
11
-49.050477743148818
21
-23.461117744445872
31
0
0
LINE
5
158
100
AcDbEntity
8
0
100
AcDbLine
10
-49.050477743148818
20
-23.461117744445872
30
0
11
-49.50886726379396
21
-23.461117744445872
31
0
0
LINE
5
159
100
AcDbEntity
8
0
100
AcDbLine
10
-49.50886726379396
20
-23.461117744445872
30
0
11
-49.50886726379396
21
-24.115960597992014
31
0
0
LINE
5
160
100
AcDbEntity
8
0
100
AcDbLine
10
-49.508867263793974
20
-24.115960597992014
30
0
11
-42.46930420398715
21
-24.115960597992029
31
0
0
LINE
5
161
100
AcDbEntity
8
0
100
AcDbLine
10
-42.46930420398715
20
-24.115960597992029
30
0
11
-42.469304203987129
21
-17.534787654876794
31
0
0
LINE
5
162
100
AcDbEntity
8
0
100
AcDbLine
10
-42.469304203987129
20
-17.534787654876794
30
0
11
-49.345157146453865
21
-17.53478765487678
31
0
0
LINE
5
163
100
AcDbEntity
8
0
100
AcDbLine
10
-49.345157146453865
20
-17.53478765487678
30
0
11
-49.345157146453865
21
-18.189630508422923
31
0
0
SPLINE
5
164
100
AcDbEntity
8
0
100
AcDbSpline
70
0
71
2
72
6
73
3
74
0
42
0.000000001
43
0.0000000001
44
0.0000000001
40
0
40
0
40
0
40
1
40
1
40
1
10
-55.893588066101131
20
-35.051841735839901
30
0
10
-57.858116626739559
20
-37.016371488571224
30
0
10
-57.956342697143619
20
-40.126876235008297
30
0
0
LINE
5
165
100
AcDbEntity
8
0
100
AcDbLine
10
-57.956342697143619
20
-40.126876235008297
30
0
11
-57.334241867065494
21
-40.290586948394832
31
0
0
SPLINE
5
166
100
AcDbEntity
8
0
100
AcDbSpline
70
0
71
2
72
6
73
3
74
0
42
0.000000001
43
0.0000000001
44
0.0000000001
40
0
40
0
40
0
40
1
40
1
40
1
10
-57.334241867065494
20
-40.290586948394832
30
0
10
-57.170531749725399
20
-36.950887441635189
30
0
10
-55.238745212554988
20
-35.346521139144961
30
0
0
LINE
5
167
100
AcDbEntity
8
0
100
AcDbLine
10
-55.238745212554988
20
-35.346521139144961
30
0
11
-55.697135925293026
21
-34.88813161849982
31
0
0
SPLINE
5
168
100
AcDbEntity
8
0
100
AcDbSpline
70
0
71
2
72
6
73
3
74
0
42
0.000000001
43
0.0000000001
44
0.0000000001
40
0
40
0
40
0
40
1
40
1
40
1
10
-55.697135925293026
20
-34.88813161849982
30
0
10
-55.860846042633113
20
-34.724420309066836
30
0
10
-55.893588066101131
20
-35.051841735839901
30
0
0
LINE
5
169
100
AcDbEntity
8
0
100
AcDbLine
10
-51.833560466766414
20
-38.653479218483035
30
0
11
-51.735334396362347
21
-36.165075302124087
31
0
0
SPLINE
5
170
100
AcDbEntity
8
0
100
AcDbSpline
70
0
71
2
72
6
73
3
74
0
42
0.000000001
43
0.0000000001
44
0.0000000001
40
0
40
0
40
0
40
1
40
1
40
1
10
-51.735334396362362
20
-36.165075302124087
30
0
10
-51.375169754028377
20
-36.623465418815677
30
0
10
-51.113232374191341
20
-37.016371488571231
30
0
0
LINE
5
171
100
AcDbEntity
8
0
100
AcDbLine
10
-51.113232374191341
20
-37.016371488571231
30
0
11
-50.78581094741827
21
-36.557980775833194
31
0
0
SPLINE
5
172
100
AcDbEntity
8
0
100
AcDbSpline
70
0
71
2
72
6
73
3
74
0
42
0.000000001
43
0.0000000001
44
0.0000000001
40
0
40
0
40
0
40
1
40
1
40
1
10
-50.78581094741827
20
-36.557980775833201
30
0
10
-51.440653800964412
20
-35.542974472045962
30
0
10
-52.160981893539486
20
-34.724420309066836
30
0
0
LINE
5
173
100
AcDbEntity
8
0
100
AcDbLine
10
-52.160981893539486
20
-34.724420309066836
30
0
11
-52.553887367248592
21
-35.281037092208926
31
0
0
LINE
5
174
100
AcDbEntity
8
0
100
AcDbLine
10
-52.553887367248592
20
-35.281037092208926
30
0
11
-52.160981893539486
21
-35.67394316196448
31
0
0
LINE
5
175
100
AcDbEntity
8
0
100
AcDbLine
10
-52.160981893539486
20
-35.67394316196448
30
0
11
-52.291949987411556
21
-37.47476160526282
31
0
0
SPLINE
5
176
100
AcDbEntity
8
0
100
AcDbSpline
70
0
71
2
72
6
73
3
74
0
42
0.000000001
43
0.0000000001
44
0.0000000001
40
0
40
0
40
0
40
1
40
1
40
1
10
-52.291949987411556
20
-37.47476160526282
30
0
10
-52.619371414184627
20
-37.638472318649356
30
0
10
-52.881308794021663
20
-37.802183032035892
30
0
0
LINE
5
177
100
AcDbEntity
8
0
100
AcDbLine
10
-52.881308794021663
20
-37.802183032035892
30
0
11
-52.881308794021649
21
-34.102319478988711
31
0
0
LINE
5
178
100
AcDbEntity
8
0
100
AcDbLine
10
-52.881308794021649
20
-34.102319478988711
30
0
11
-53.503409624099774
21
-34.102319478988711
31
0
0
LINE
5
179
100
AcDbEntity
8
0
100
AcDbLine
10
-53.503409624099774
20
-34.102319478988711
30
0
11
-53.503409624099788
21
-36.263301968574588
31
0
0
SPLINE
5
180
100
AcDbEntity
8
0
100
AcDbSpline
70
0
71
2
72
6
73
3
74
0
42
0.000000001
43
0.0000000001
44
0.0000000001
40
0
40
0
40
0
40
1
40
1
40
1
10
-53.503409624099788
20
-36.263301968574588
30
0
10
-54.289221763610897
20
-35.542974472045962
30
0
10
-54.649385213851971
20
-33.90586614608771
30
0
0
LINE
5
181
100
AcDbEntity
8
0
100
AcDbLine
10
-54.649385213851971
20
-33.90586614608771
30
0
11
-55.304229259491009
21
-34.069577455520694
31
0
0
SPLINE
5
182
100
AcDbEntity
8
0
100
AcDbSpline
70
0
71
2
72
6
73
3
74
0
42
0.000000001
43
0.0000000001
44
0.0000000001
40
0
40
0
40
0
40
1
40
1
40
1
10
-55.304229259491024
20
-34.069577455520694
30
0
10
-54.813096523284969
20
-36.13233327865607
30
0
10
-53.503409624099788
20
-37.049113512039249
30
0
0
LINE
5
183
100
AcDbEntity
8
0
100
AcDbLine
10
-53.503409624099788
20
-37.049113512039249
30
0
11
-53.503409624099788
21
-38.064120411872928
31
0
0
SPLINE
5
184
100
AcDbEntity
8
0
100
AcDbSpline
70
0
71
2
72
6
73
3
74
0
42
0.000000001
43
0.0000000001
44
0.0000000001
40
0
40
0
40
0
40
1
40
1
40
1
10
-53.503409624099788
20
-38.064120411872928
30
0
10
-54.747612476348934
20
-38.915416002273624
30
0
10
-55.402455329895083
20
-41.207367181778018
30
0
0
LINE
5
185
100
AcDbEntity
8
0
100
AcDbLine
10
-55.402455329895083
20
-41.207367181778018
30
0
11
-54.747612476348941
21
-41.469304561615054
31
0
0
SPLINE
5
186
100
AcDbEntity
8
0
100
AcDbSpline
70
0
71
2
72
6
73
3
74
0
42
0.000000001
43
0.0000000001
44
0.0000000001
40
0
40
0
40
0
40
1
40
1
40
1
10
-54.747612476348941
20
-41.469304561615054
30
0
10
-54.289221763610904
20
-39.504775404930179
30
0
10
-53.503409624099788
20
-38.849931955337588
30
0
0
LINE
5
187
100
AcDbEntity
8
0
100
AcDbLine
10
-53.503409624099788
20
-38.849931955337588
30
0
11
-53.503409624099795
21
-41.24010950326926
31
0
0
LINE
5
188
100
AcDbEntity
8
0
100
AcDbLine
10
-53.503409624099795
20
-41.24010950326926
30
0
11
-52.88130879402167
21
-41.24010950326926
31
0
0
LINE
5
189
100
AcDbEntity
8
0
100
AcDbLine
10
-52.88130879402167
20
-41.24010950326926
30
0
11
-52.881308794021663
21
-38.457026481628482
31
0
0
SPLINE
5
190
100
AcDbEntity
8
0
100
AcDbSpline
70
0
71
2
72
6
73
3
74
0
42
0.000000001
43
0.0000000001
44
0.0000000001
40
0
40
0
40
0
40
1
40
1
40
1
10
-52.881308794021663
20
-38.457026481628482
30
0
10
-52.58662939071661
20
-38.260573148727481
30
0
10
-52.324693202972469
20
-38.162347078323428
30
0
0
LINE
5
191
100
AcDbEntity
8
0
100
AcDbLine
10
-52.324693202972469
20
-38.162347078323428
30
0
11
-52.422919273376529
21
-40.192360281944339
31
0
0
SPLINE
5
192
100
AcDbEntity
8
0
100
AcDbSpline
70
0
71
2
72
6
73
3
74
0
42
0.000000001
43
0.0000000001
44
0.0000000001
40
0
40
0
40
0
40
1
40
1
40
1
10
-52.422919273376529
20
-40.192360281944339
30
0
10
-52.717597484588687
20
-40.388813316822116
30
0
10
-52.390177249908511
20
-40.454297661781375
30
0
0
LINE
5
193
100
AcDbEntity
8
0
100
AcDbLine
10
-52.390177249908511
20
-40.454297661781375
30
0
11
-51.833560466766421
21
-40.585266351699893
31
0
0
LINE
5
194
100
AcDbEntity
8
0
100
AcDbLine
10
-51.833560466766421
20
-40.5852663516999
30
0
11
-51.833560466766421
21
-39.275580048561167
31
0
0
LINE
5
195
100
AcDbEntity
8
0
100
AcDbLine
10
-51.833560466766414
20
-39.27558004856116
30
0
11
-50.392905473709163
21
-38.326057195663523
31
0
0
LINE
5
196
100
AcDbEntity
8
0
100
AcDbLine
10
-50.392905473709163
20
-38.326057195663523
30
0
11
-50.622100830078182
21
-37.703956365585398
31
0
0
SPLINE
5
197
100
AcDbEntity
8
0
100
AcDbSpline
70
0
71
2
72
6
73
3
74
0
42
0.000000001
43
0.0000000001
44
0.0000000001
40
0
40
0
40
0
40
1
40
1
40
1
10
-50.622100830078182
20
-37.703956365585398
30
0
10
-50.78581094741827
20
-37.442018985748362
30
0
10
-50.851294994354305
20
-37.834925651550364
30
0
0
LINE
5
198
100
AcDbEntity
8
0
100
AcDbLine
10
-50.851294994354305
20
-37.834925651550364
30
0
11
-51.833560466766414
21
-38.653479218483042
31
0
0
SPLINE
5
199
100
AcDbEntity
8
0
100
AcDbSpline
70
0
71
2
72
6
73
3
74
0
42
0.000000001
43
0.0000000001
44
0.0000000001
40
0
40
0
40
0
40
1
40
1
40
1
10
-54.256479740142879
20
-37.049113512039249
30
0
10
-54.452931880950985
20
-36.852660179138248
30
0
10
-54.452931880950985
20
-37.180082201957767
30
0
0
SPLINE
5
200
100
AcDbEntity
8
0
100
AcDbSpline
70
0
71
2
72
6
73
3
74
0
42
0.000000001
43
0.0000000001
44
0.0000000001
40
0
40
0
40
0
40
1
40
1
40
1
10
-54.452931880950985
20
-37.180082201957767
30
0
10
-55.566165447235164
20
-38.424284458160464
30
0
10
-55.959072113037166
20
-39.930423498153743
30
0
0
LINE
5
201
100
AcDbEntity
8
0
100
AcDbLine
10
-55.959072113037166
20
-39.930423498153743
30
0
11
-55.369713306427059
21
-40.192360281944339
31
0
0
SPLINE
5
202
100
AcDbEntity
8
0
100
AcDbSpline
70
0
71
2
72
6
73
3
74
0
42
0.000000001
43
0.0000000001
44
0.0000000001
40
0
40
0
40
0
40
1
40
1
40
1
10
-55.369713306427066
20
-40.192360281944339
30
0
10
-54.845838546752987
20
-38.358799815177981
30
0
10
-53.863573074340877
20
-37.540246248245303
30
0
0
LINE
5
203
100
AcDbEntity
8
0
100
AcDbLine
10
-53.863573074340877
20
-37.540246248245303
30
0
11
-54.256479740142879
21
-37.049113512039249
31
0
0
SPLINE
5
204
100
AcDbEntity
8
0
100
AcDbSpline
70
0
71
2
72
6
73
3
74
0
42
0.000000001
43
0.0000000001
44
0.0000000001
40
0
40
0
40
0
40
1
40
1
40
1
10
-55.107774734497127
20
-36.197817325592105
30
0
10
-55.271487236023006
20
-36.001364588737552
30
0
10
-55.304229259491024
20
-36.328786015510623
30
0
0
SPLINE
5
205
100
AcDbEntity
8
0
100
AcDbSpline
70
0
71
2
72
6
73
3
74
0
42
0.000000001
43
0.0000000001
44
0.0000000001
40
0
40
0
40
0
40
1
40
1
40
1
10
-55.304229259491024
20
-36.328786015510623
30
0
10
-56.548430919647274
20
-37.736698389053402
30
0
10
-56.908593177795467
20
-39.570259451866207
30
0
0
LINE
5
206
100
AcDbEntity
8
0
100
AcDbLine
10
-56.908593177795467
20
-39.570259451866207
30
0
11
-56.286492347717342
21
-39.733970165252742
31
0
0
SPLINE
5
207
100
AcDbEntity
8
0
100
AcDbSpline
70
0
71
2
72
6
73
3
74
0
42
0.000000001
43
0.0000000001
44
0.0000000001
40
0
40
0
40
0
40
1
40
1
40
1
10
-56.286492347717342
20
-39.733970165252742
30
0
10
-56.024556159973201
20
-37.933151721954403
30
0
10
-54.714870452880916
20
-36.656208038330142
30
0
0
LINE
5
208
100
AcDbEntity
8
0
100
AcDbLine
10
-54.714870452880916
20
-36.656208038330142
30
0
11
-55.107774734497127
21
-36.197817325592105
31
0
0
LINE
5
209
100
AcDbEntity
8
0
100
AcDbLine
10
-52.652113437652623
20
-29.878581762313907
30
0
11
-52.652113437652623
21
-30.860846042633121
31
0
0
LINE
5
210
100
AcDbEntity
8
0
100
AcDbLine
10
-52.652113437652623
20
-30.860846042633121
30
0
11
-53.208730220794713
21
-30.860846042633121
31
0
0
SPLINE
5
211
100
AcDbEntity
8
0
100
AcDbSpline
70
0
71
2
72
6
73
3
74
0
42
0.000000001
43
0.0000000001
44
0.0000000001
40
0
40
0
40
0
40
1
40
1
40
1
10
-53.208730220794713
20
-30.860846042633121
30
0
10
-55.959072113037145
20
-30.860846042633121
30
0
10
-57.694406509399457
20
-32.465212345123348
30
0
0
LINE
5
212
100
AcDbEntity
8
0
100
AcDbLine
10
-57.694406509399457
20
-32.465212345123348
30
0
11
-57.203273773193402
21
-33.021829128265438
31
0
0
SPLINE
5
213
100
AcDbEntity
8
0
100
AcDbSpline
70
0
71
2
72
6
73
3
74
0
42
0.000000001
43
0.0000000001
44
0.0000000001
40
0
40
0
40
0
40
1
40
1
40
1
10
-57.203273773193402
20
-33.021829128265438
30
0
10
-55.500681400299108
20
-31.515688896179263
30
0
10
-53.175988197326703
20
-31.515688896179263
30
0
0
LINE
5
214
100
AcDbEntity
8
0
100
AcDbLine
10
-53.175988197326703
20
-31.515688896179263
30
0
11
-52.652113437652631
21
-31.515688896179263
31
0
0
LINE
5
215
100
AcDbEntity
8
0
100
AcDbLine
10
-52.652113437652631
20
-31.515688896179263
30
0
11
-52.652113437652631
21
-32.727148532867496
31
0
0
LINE
5
216
100
AcDbEntity
8
0
100
AcDbLine
10
-52.652113437652631
20
-32.727148532867496
30
0
11
-52.030012607574506
21
-32.727148532867496
31
0
0
LINE
5
217
100
AcDbEntity
8
0
100
AcDbLine
10
-52.030012607574506
20
-32.727148532867496
30
0
11
-52.030012607574506
21
-31.515688896179267
31
0
0
LINE
5
218
100
AcDbEntity
8
0
100
AcDbLine
10
-52.030012607574506
20
-31.515688896179267
30
0
11
-50.556615591049237
21
-31.51568889617927
31
0
0
LINE
5
219
100
AcDbEntity
8
0
100
AcDbLine
10
-50.556615591049237
20
-31.51568889617927
30
0
11
-50.556615591049237
21
-30.893588066101145
31
0
0
SPLINE
5
220
100
AcDbEntity
8
0
100
AcDbSpline
70
0
71
2
72
6
73
3
74
0
42
0.000000001
43
0.0000000001
44
0.0000000001
40
0
40
0
40
0
40
1
40
1
40
1
10
-50.55661559104923
20
-30.893588066101145
30
0
10
-50.589357614517247
20
-30.631650686264109
30
0
10
-50.753068923950231
20
-30.860846042633128
30
0
0
LINE
5
221
100
AcDbEntity
8
0
100
AcDbLine
10
-50.753068923950231
20
-30.860846042633128
30
0
11
-52.030012607574498
21
-30.860846042633124
31
0
0
LINE
5
222
100
AcDbEntity
8
0
100
AcDbLine
10
-52.030012607574498
20
-30.860846042633124
30
0
11
-52.030012607574498
21
-29.223738908767768
31
0
0
LINE
5
223
100
AcDbEntity
8
0
100
AcDbLine
10
-52.030012607574498
20
-29.223738908767768
30
0
11
-55.140516757965123
21
-29.223738908767764
31
0
0
SPLINE
5
224
100
AcDbEntity
8
0
100
AcDbSpline
70
0
71
2
72
6
73
3
74
0
42
0.000000001
43
0.0000000001
44
0.0000000001
40
0
40
0
40
0
40
1
40
1
40
1
10
-55.140516757965123
20
-29.223738908767764
30
0
10
-56.4502048492432
20
-29.223738908767757
30
0
10
-56.941337585449254
20
-29.420191049575863
30
0
0
SPLINE
5
225
100
AcDbEntity
8
0
100
AcDbSpline
70
0
71
2
72
6
73
3
74
0
42
0.000000001
43
0.0000000001
44
0.0000000001
40
0
40
0
40
0
40
1
40
1
40
1
10
-56.941337585449254
20
-29.420191049575863
30
0
10
-57.497951984405553
20
-29.649386405944878
30
0
10
-57.497951984405553
20
-30.369714498519951
30
0
0
LINE
5
226
100
AcDbEntity
8
0
100
AcDbLine
10
-57.497951984405553
20
-30.369714498519951
30
0
11
-57.497951984405553
21
-30.893588066101128
31
0
0
LINE
5
227
100
AcDbEntity
8
0
100
AcDbLine
10
-57.497951984405553
20
-30.893588066101128
30
0
11
-56.777625083923375
21
-30.959073305130058
31
0
0
LINE
5
228
100
AcDbEntity
8
0
100
AcDbLine
10
-56.777625083923375
20
-30.959073305130062
30
0
11
-56.777625083923375
21
-30.435198545455989
31
0
0
SPLINE
5
229
100
AcDbEntity
8
0
100
AcDbSpline
70
0
71
2
72
6
73
3
74
0
42
0.000000001
43
0.0000000001
44
0.0000000001
40
0
40
0
40
0
40
1
40
1
40
1
10
-56.777625083923375
20
-30.435198545455989
30
0
10
-56.777625083923375
20
-30.107775926590023
30
0
10
-56.482946872711217
20
-30.00954985618597
30
0
0
SPLINE
5
230
100
AcDbEntity
8
0
100
AcDbSpline
70
0
71
2
72
6
73
3
74
0
42
0.000000001
43
0.0000000001
44
0.0000000001
40
0
40
0
40
0
40
1
40
1
40
1
10
-56.482946872711217
20
-30.00954985618597
30
0
10
-56.15552425384525
20
-29.8785817623139
30
0
10
-55.238745212554967
20
-29.878581762313907
30
0
0
LINE
5
231
100
AcDbEntity
8
0
100
AcDbLine
10
-55.238745212554967
20
-29.878581762313907
30
0
11
-52.652113437652623
21
-29.87858176231391
31
0
0
LINE
5
232
100
AcDbEntity
8
0
100
AcDbLine
10
-51.669847965240514
20
-28.667122125625678
30
0
11
-51.669847965240507
21
-25.785812139511176
31
0
0
LINE
5
233
100
AcDbEntity
8
0
100
AcDbLine
10
-51.669847965240507
20
-25.785812139511176
30
0
11
-57.268757820129423
21
-25.785812139511165
31
0
0
LINE
5
234
100
AcDbEntity
8
0
100
AcDbLine
10
-57.268757820129423
20
-25.785812139511162
30
0
11
-57.268757820129423
21
-26.440654993057304
31
0
0
LINE
5
235
100
AcDbEntity
8
0
100
AcDbLine
10
-57.26875782012943
20
-26.440654993057304
30
0
11
-56.875851154327428
21
-26.440654993057304
31
0
0
LINE
5
236
100
AcDbEntity
8
0
100
AcDbLine
10
-56.875851154327428
20
-26.440654993057308
30
0
11
-56.875851154327428
21
-28.012279272079525
31
0
0
LINE
5
237
100
AcDbEntity
8
0
100
AcDbLine
10
-56.875851154327428
20
-28.012279272079525
30
0
11
-57.3997259140015
21
-28.012279272079525
31
0
0
LINE
5
238
100
AcDbEntity
8
0
100
AcDbLine
10
-57.3997259140015
20
-28.012279272079521
30
0
11
-57.3997259140015
21
-28.667122125625664
31
0
0
LINE
5
239
100
AcDbEntity
8
0
100
AcDbLine
10
-57.3997259140015
20
-28.667122125625664
30
0
11
-51.669847965240514
21
-28.667122125625674
31
0
0
LINE
5
240
100
AcDbEntity
8
0
100
AcDbLine
10
-52.291949987411535
20
-28.012279272079535
30
0
11
-56.253750324249303
21
-28.012279272079525
31
0
0
LINE
5
241
100
AcDbEntity
8
0
100
AcDbLine
10
-56.253750324249303
20
-28.012279272079525
30
0
11
-56.253750324249303
21
-26.440654993057308
31
0
0
LINE
5
242
100
AcDbEntity
8
0
100
AcDbLine
10
-56.253750324249303
20
-26.440654993057308
30
0
11
-52.291949987411535
21
-26.440654993057318
31
0
0
LINE
5
243
100
AcDbEntity
8
0
100
AcDbLine
10
-52.291949987411527
20
-26.440654993057318
30
0
11
-52.291949987411527
21
-28.012279272079535
31
0
0
LINE
5
244
100
AcDbEntity
8
0
100
AcDbLine
10
-54.714870452880874
20
-23.297407627105777
30
0
11
-54.092769622802749
21
-23.297407627105777
31
0
0
LINE
5
245
100
AcDbEntity
8
0
100
AcDbLine
10
-54.092769622802749
20
-23.297407627105777
30
0
11
-54.092769622802741
21
-18.353343009948794
31
0
0
LINE
5
246
100
AcDbEntity
8
0
100
AcDbLine
10
-54.092769622802741
20
-18.353343009948794
30
0
11
-54.714870452880866
21
-18.353343009948791
31
0
0
LINE
5
247
100
AcDbEntity
8
0
100
AcDbLine
10
-54.714870452880866
20
-18.353343009948794
30
0
11
-54.714870452880874
21
-23.297407627105777
31
0
0
LINE
5
248
100
AcDbEntity
8
0
100
AcDbLine
10
-55.206003189086942
20
-24.246931076049869
30
0
11
-55.206003189086921
21
-17.403817176818912
31
0
0
LINE
5
249
100
AcDbEntity
8
0
100
AcDbLine
10
-55.206003189086921
20
-17.403817176818912
30
0
11
-55.828104019165046
21
-17.403817176818908
31
0
0
LINE
5
250
100
AcDbEntity
8
0
100
AcDbLine
10
-55.828104019165046
20
-17.403817176818904
30
0
11
-55.828104019165053
21
-20.350613594055233
31
0
0
LINE
5
251
100
AcDbEntity
8
0
100
AcDbLine
10
-55.828104019165053
20
-20.350613594055233
30
0
11
-57.203273773193374
21
-20.350613594055229
31
0
0
SPLINE
5
252
100
AcDbEntity
8
0
100
AcDbSpline
70
0
71
2
72
6
73
3
74
0
42
0.000000001
43
0.0000000001
44
0.0000000001
40
0
40
0
40
0
40
1
40
1
40
1
10
-57.203273773193374
20
-20.350613594055233
30
0
10
-57.825374603271499
20
-20.350613594055229
30
0
10
-57.825374603271499
20
-20.87448596954351
30
0
0
LINE
5
253
100
AcDbEntity
8
0
100
AcDbLine
10
-57.825374603271499
20
-20.87448596954351
30
0
11
-57.825374603271499
21
-21.660299301147514
31
0
0
LINE
5
254
100
AcDbEntity
8
0
100
AcDbLine
10
-57.825374603271499
20
-21.660299301147514
30
0
11
-57.105047702789321
21
-21.725783348083549
31
0
0
LINE
5
255
100
AcDbEntity
8
0
100
AcDbLine
10
-57.105047702789321
20
-21.725783348083553
30
0
11
-57.105047702789321
21
-21.234650611877498
31
0
0
SPLINE
5
256
100
AcDbEntity
8
0
100
AcDbSpline
70
0
71
2
72
6
73
3
74
0
42
0.000000001
43
0.0000000001
44
0.0000000001
40
0
40
0
40
0
40
1
40
1
40
1
10
-57.105047702789321
20
-21.234650611877498
30
0
10
-57.105047702789321
20
-21.103682518005428
30
0
10
-56.974079608917251
20
-21.103682518005428
30
0
0
LINE
5
257
100
AcDbEntity
8
0
100
AcDbLine
10
-56.974079608917251
20
-21.103682518005428
30
0
11
-55.828104019165053
21
-21.103682518005428
31
0
0
LINE
5
258
100
AcDbEntity
8
0
100
AcDbLine
10
-55.828104019165053
20
-21.103682518005428
30
0
11
-55.828104019165067
21
-24.246931076049862
31
0
0
LINE
5
259
100
AcDbEntity
8
0
100
AcDbLine
10
-55.828104019165067
20
-24.246931076049862
30
0
11
-55.206003189086942
21
-24.246931076049862
31
0
0
LINE
5
260
100
AcDbEntity
8
0
100
AcDbLine
10
-50.491131544113173
20
-22.806274890899729
30
0
11
-50.491131544113173
21
-22.282400131225657
31
0
0
SPLINE
5
261
100
AcDbEntity
8
0
100
AcDbSpline
70
0
71
2
72
6
73
3
74
0
42
0.000000001
43
0.0000000001
44
0.0000000001
40
0
40
0
40
0
40
1
40
1
40
1
10
-50.491131544113173
20
-22.282400131225657
30
0
10
-50.523873567581191
20
-22.020463943481516
30
0
10
-50.687584877014174
20
-22.249658107757636
30
0
0
LINE
5
262
100
AcDbEntity
8
0
100
AcDbLine
10
-50.687584877014174
20
-22.249658107757636
30
0
11
-51.342427730560317
21
-22.249658107757636
31
0
0
LINE
5
263
100
AcDbEntity
8
0
100
AcDbLine
10
-51.342427730560317
20
-22.249658107757636
30
0
11
-51.342427730560317
21
-21.103682518005439
31
0
0
LINE
5
264
100
AcDbEntity
8
0
100
AcDbLine
10
-51.342427730560317
20
-21.103682518005439
30
0
11
-51.866302490234389
21
-21.103682518005439
31
0
0
LINE
5
265
100
AcDbEntity
8
0
100
AcDbLine
10
-51.866302490234389
20
-21.103682518005439
30
0
11
-51.866302490234389
21
-22.249658107757636
31
0
0
LINE
5
266
100
AcDbEntity
8
0
100
AcDbLine
10
-51.866302490234389
20
-22.249658107757636
30
0
11
-52.030012607574477
21
-22.249658107757636
31
0
0
SPLINE
5
267
100
AcDbEntity
8
0
100
AcDbSpline
70
0
71
2
72
6
73
3
74
0
42
0.000000001
43
0.0000000001
44
0.0000000001
40
0
40
0
40
0
40
1
40
1
40
1
10
-52.030012607574477
20
-22.249658107757636
30
0
10
-52.226465940475478
20
-21.824011802673407
30
0
10
-52.717597484588637
20
-21.103682518005439
30
0
0
LINE
5
268
100
AcDbEntity
8
0
100
AcDbLine
10
-52.717597484588637
20
-21.103682518005439
30
0
11
-53.339699506759658
21
-21.365618705749579
31
0
0
SPLINE
5
269
100
AcDbEntity
8
0
100
AcDbSpline
70
0
71
2
72
6
73
3
74
0
42
0.000000001
43
0.0000000001
44
0.0000000001
40
0
40
0
40
0
40
1
40
1
40
1
10
-53.339699506759658
20
-21.365618705749576
30
0
10
-52.914052009582534
20
-21.889495849609443
30
0
10
-52.68485546112062
20
-22.249658107757636
30
0
0
LINE
5
270
100
AcDbEntity
8
0
100
AcDbLine
10
-52.68485546112062
20
-22.249658107757636
30
0
11
-53.765347003936782
21
-22.249658107757636
31
0
0
LINE
5
271
100
AcDbEntity
8
0
100
AcDbLine
10
-53.765347003936782
20
-22.249658107757632
30
0
11
-53.765347003936782
21
-22.806274890899722
31
0
0
LINE
5
272
100
AcDbEntity
8
0
100
AcDbLine
10
-53.765347003936782
20
-22.806274890899722
30
0
11
-52.68485546112062
21
-22.806274890899722
31
0
0
SPLINE
5
273
100
AcDbEntity
8
0
100
AcDbSpline
70
0
71
2
72
6
73
3
74
0
42
0.000000001
43
0.0000000001
44
0.0000000001
40
0
40
0
40
0
40
1
40
1
40
1
10
-52.68485546112062
20
-22.806274890899726
30
0
10
-53.30695748329164
20
-23.199181556701724
30
0
10
-53.798089027404814
20
-24.21418666839606
30
0
0
LINE
5
274
100
AcDbEntity
8
0
100
AcDbLine
10
-53.798089027404814
20
-24.21418666839606
30
0
11
-53.175988197326689
21
-24.541609287262027
31
0
0
SPLINE
5
275
100
AcDbEntity
8
0
100
AcDbSpline
70
0
71
2
72
6
73
3
74
0
42
0.000000001
43
0.0000000001
44
0.0000000001
40
0
40
0
40
0
40
1
40
1
40
1
10
-53.175988197326689
20
-24.541609287262027
30
0
10
-52.68485546112062
20
-23.395633697509833
30
0
10
-51.866302490234389
20
-22.806274890899726
30
0
0
LINE
5
276
100
AcDbEntity
8
0
100
AcDbLine
10
-51.866302490234389
20
-22.806274890899726
30
0
11
-51.866302490234389
21
-24.214186668396064
31
0
0
LINE
5
277
100
AcDbEntity
8
0
100
AcDbLine
10
-51.866302490234403
20
-24.214186668396064
30
0
11
-51.342427730560331
21
-24.214186668396064
31
0
0
LINE
5
278
100
AcDbEntity
8
0
100
AcDbLine
10
-51.342427730560331
20
-24.214186668396064
30
0
11
-51.342427730560331
21
-22.806274890899726
31
0
0
LINE
5
279
100
AcDbEntity
8
0
100
AcDbLine
10
-51.342427730560317
20
-22.806274890899726
30
0
11
-50.491131544113173
21
-22.806274890899726
31
0
0
SPLINE
5
280
100
AcDbEntity
8
0
100
AcDbSpline
70
0
71
2
72
6
73
3
74
0
42
0.000000001
43
0.0000000001
44
0.0000000001
40
0
40
0
40
0
40
1
40
1
40
1
10
-53.208730220794692
20
-21.103682518005435
30
0
10
-52.68485546112062
20
-20.088677406311103
30
0
10
-51.866302490234389
20
-19.499316215515204
30
0
0
LINE
5
281
100
AcDbEntity
8
0
100
AcDbLine
10
-51.866302490234389
20
-19.499316215515204
30
0
11
-51.866302490234389
21
-20.678033828735419
31
0
0
LINE
5
282
100
AcDbEntity
8
0
100
AcDbLine
10
-51.866302490234389
20
-20.678033828735419
30
0
11
-51.342427730560317
21
-20.678033828735419
31
0
0
LINE
5
283
100
AcDbEntity
8
0
100
AcDbLine
10
-51.342427730560317
20
-20.678033828735419
30
0
11
-51.342427730560317
21
-19.499316215515204
31
0
0
LINE
5
284
100
AcDbEntity
8
0
100
AcDbLine
10
-51.342427730560317
20
-19.499316215515204
30
0
11
-50.425647497177138
21
-19.499316215515204
31
0
0
LINE
5
285
100
AcDbEntity
8
0
100
AcDbLine
10
-50.425647497177138
20
-19.499316215515208
30
0
11
-50.425647497177138
21
-18.975443840026927
31
0
0
SPLINE
5
286
100
AcDbEntity
8
0
100
AcDbSpline
70
0
71
2
72
6
73
3
74
0
42
0.000000001
43
0.0000000001
44
0.0000000001
40
0
40
0
40
0
40
1
40
1
40
1
10
-50.425647497177138
20
-18.975443840026927
30
0
10
-50.458389520645156
20
-18.713502883911204
30
0
10
-50.622100830078139
20
-18.942699432373114
30
0
0
LINE
5
287
100
AcDbEntity
8
0
100
AcDbLine
10
-50.622100830078139
20
-18.942699432373114
30
0
11
-51.342427730560317
21
-18.942699432373111
31
0
0
LINE
5
288
100
AcDbEntity
8
0
100
AcDbLine
10
-51.342427730560317
20
-18.942699432373114
30
0
11
-51.342427730560317
21
-17.436561584472724
31
0
0
LINE
5
289
100
AcDbEntity
8
0
100
AcDbLine
10
-51.34242773056031
20
-17.436561584472724
30
0
11
-51.866302490234382
21
-17.436561584472724
31
0
0
LINE
5
290
100
AcDbEntity
8
0
100
AcDbLine
10
-51.866302490234382
20
-17.436561584472724
30
0
11
-51.866302490234382
21
-18.942699432373114
31
0
0
SPLINE
5
291
100
AcDbEntity
8
0
100
AcDbSpline
70
0
71
2
72
6
73
3
74
0
42
0.000000001
43
0.0000000001
44
0.0000000001
40
0
40
0
40
0
40
1
40
1
40
1
10
-51.866302490234389
20
-18.942699432373114
30
0
10
-52.619371414184577
20
-18.156890869140693
30
0
10
-52.979536056518562
20
-17.141880989074775
30
0
0
LINE
5
292
100
AcDbEntity
8
0
100
AcDbLine
10
-52.979536056518562
20
-17.141880989074775
30
0
11
-53.634378910064704
21
-17.403817176818912
31
0
0
SPLINE
5
293
100
AcDbEntity
8
0
100
AcDbSpline
70
0
71
2
72
6
73
3
74
0
42
0.000000001
43
0.0000000001
44
0.0000000001
40
0
40
0
40
0
40
1
40
1
40
1
10
-53.634378910064704
20
-17.403817176818912
30
0
10
-53.306957483291633
20
-18.189630508422916
30
0
10
-52.553887367248549
20
-18.942699432373114
30
0
0
LINE
5
294
100
AcDbEntity
8
0
100
AcDbLine
10
-52.553887367248549
20
-18.942699432373114
30
0
11
-53.765347003936782
21
-18.942699432373111
31
0
0
LINE
5
295
100
AcDbEntity
8
0
100
AcDbLine
10
-53.765347003936782
20
-18.942699432373111
30
0
11
-53.765347003936782
21
-19.499316215515201
31
0
0
LINE
5
296
100
AcDbEntity
8
0
100
AcDbLine
10
-53.765347003936782
20
-19.499316215515201
30
0
11
-52.68485546112062
21
-19.499316215515201
31
0
0
SPLINE
5
297
100
AcDbEntity
8
0
100
AcDbSpline
70
0
71
2
72
6
73
3
74
0
42
0.000000001
43
0.0000000001
44
0.0000000001
40
0
40
0
40
0
40
1
40
1
40
1
10
-52.68485546112062
20
-19.499316215515204
30
0
10
-53.339699506759658
20
-19.990448951721255
30
0
10
-53.798089027404799
20
-20.841746330261294
30
0
0
LINE
5
298
100
AcDbEntity
8
0
100
AcDbLine
10
-53.798089027404799
20
-20.841746330261294
30
0
11
-53.208730220794692
21
-21.103682518005435
31
0
0
SPLINE
5
299
100
AcDbEntity
8
0
100
AcDbSpline
70
0
71
2
72
6
73
3
74
0
42
0.000000001
43
0.0000000001
44
0.0000000001
40
0
40
0
40
0
40
1
40
1
40
1
10
-57.137789726257353
20
-24.345154762268123
30
0
10
-56.646656990051284
20
-23.29740762710577
30
0
10
-55.991814136505141
20
-22.609820365905819
30
0
0
LINE
5
300
100
AcDbEntity
8
0
100
AcDbLine
10
-55.991814136505141
20
-22.609820365905819
30
0
11
-56.482946872711196
21
-22.118690013885555
31
0
0
SPLINE
5
301
100
AcDbEntity
8
0
100
AcDbSpline
70
0
71
2
72
6
73
3
74
0
42
0.000000001
43
0.0000000001
44
0.0000000001
40
0
40
0
40
0
40
1
40
1
40
1
10
-56.482946872711196
20
-22.118690013885555
30
0
10
-56.679399013519301
20
-21.954979896545467
30
0
10
-56.646656990051284
20
-22.249658107757625
30
0
0
SPLINE
5
302
100
AcDbEntity
8
0
100
AcDbSpline
70
0
71
2
72
6
73
3
74
0
42
0.000000001
43
0.0000000001
44
0.0000000001
40
0
40
0
40
0
40
1
40
1
40
1
10
-56.646656990051284
20
-22.249658107757625
30
0
10
-57.301499843597426
20
-22.904500961303768
30
0
10
-57.792632579803481
20
-23.919508457183895
30
0
0
LINE
5
303
100
AcDbEntity
8
0
100
AcDbLine
10
-57.792632579803481
20
-23.919508457183895
30
0
11
-57.137789726257338
21
-24.345154762268123
31
0
0
SPLINE
5
304
100
AcDbEntity
8
0
100
AcDbSpline
70
0
71
2
72
6
73
3
74
0
42
0.000000001
43
0.0000000001
44
0.0000000001
40
0
40
0
40
0
40
1
40
1
40
1
10
-56.024556159973159
20
-19.106411933898983
30
0
10
-56.548430919647231
20
-18.386082649231014
30
0
10
-56.941337585449226
20
-17.272849082946834
30
0
0
LINE
5
305
100
AcDbEntity
8
0
100
AcDbLine
10
-56.941337585449226
20
-17.272849082946834
30
0
11
-57.596180438995368
21
-17.665758132934627
31
0
0
SPLINE
5
306
100
AcDbEntity
8
0
100
AcDbSpline
70
0
71
2
72
6
73
3
74
0
42
0.000000001
43
0.0000000001
44
0.0000000001
40
0
40
0
40
0
40
1
40
1
40
1
10
-57.596180438995368
20
-17.665758132934627
30
0
10
-57.301499843597426
20
-18.648018836975154
30
0
10
-56.515688896179213
20
-19.597544670105037
30
0
0
LINE
5
307
100
AcDbEntity
8
0
100
AcDbLine
10
-56.515688896179213
20
-19.597544670105037
30
0
11
-56.024556159973159
21
-19.106411933898983
31
0
0
SPLINE
5
308
100
AcDbEntity
8
0
100
AcDbSpline
70
0
71
2
72
6
73
3
74
0
42
0.000000001
43
0.0000000001
44
0.0000000001
40
0
40
0
40
0
40
1
40
1
40
1
10
-50.68758487701416
20
-11.739425659179755
30
0
10
-50.753068923950195
20
-11.412005424499579
30
0
10
-50.949522256851196
20
-11.706681251525946
30
0
0
LINE
5
309
100
AcDbEntity
8
0
100
AcDbLine
10
-50.949522256851196
20
-11.706681251525946
30
0
11
-52.946794033050537
21
-11.706681251525941
31
0
0
LINE
5
310
100
AcDbEntity
8
0
100
AcDbLine
10
-52.946794033050537
20
-11.706681251525946
30
0
11
-52.94679403305053
21
-9.5457029342652042
31
0
0
LINE
5
311
100
AcDbEntity
8
0
100
AcDbLine
10
-52.94679403305053
20
-9.5457029342652042
30
0
11
-53.667120933532708
21
-9.5457029342652024
31
0
0
LINE
5
312
100
AcDbEntity
8
0
100
AcDbLine
10
-53.667120933532708
20
-9.5457029342651989
30
0
11
-53.667120933532715
21
-11.706681251525941
31
0
0
LINE
5
313
100
AcDbEntity
8
0
100
AcDbLine
10
-53.667120933532715
20
-11.706681251525941
30
0
11
-56.613914966583252
21
-11.706681251525936
31
0
0
LINE
5
314
100
AcDbEntity
8
0
100
AcDbLine
10
-56.613914966583252
20
-11.706681251525936
30
0
11
-56.613914966583245
21
-8.6944055557251545
31
0
0
LINE
5
315
100
AcDbEntity
8
0
100
AcDbLine
10
-56.613914966583245
20
-8.6944055557251545
30
0
11
-57.334241867065423
21
-8.6944055557251545
31
0
0
LINE
5
316
100
AcDbEntity
8
0
100
AcDbLine
10
-57.334241867065423
20
-8.6944055557251545
30
0
11
-57.334241867065437
21
-16.192359924316463
31
0
0
LINE
5
317
100
AcDbEntity
8
0
100
AcDbLine
10
-57.334241867065437
20
-16.192359924316463
30
0
11
-56.613914966583259
21
-16.192359924316467
31
0
0
LINE
5
318
100
AcDbEntity
8
0
100
AcDbLine
10
-56.613914966583259
20
-16.192359924316463
30
0
11
-56.613914966583259
21
-14.68621730804449
31
0
0
LINE
5
319
100
AcDbEntity
8
0
100
AcDbLine
10
-56.613914966583252
20
-14.68621730804449
30
0
11
-52.324693202972412
21
-14.686217308044501
31
0
0
LINE
5
320
100
AcDbEntity
8
0
100
AcDbLine
10
-52.324693202972412
20
-14.686217308044501
30
0
11
-52.324693202972412
21
-13.965892791748114
31
0
0
SPLINE
5
321
100
AcDbEntity
8
0
100
AcDbSpline
70
0
71
2
72
6
73
3
74
0
42
0.000000001
43
0.0000000001
44
0.0000000001
40
0
40
0
40
0
40
1
40
1
40
1
10
-52.324693202972412
20
-13.965892791748114
30
0
10
-52.390177249908447
20
-13.638472557067939
30
0
10
-52.586629390716553
20
-13.933148384094306
30
0
0
LINE
5
322
100
AcDbEntity
8
0
100
AcDbLine
10
-52.586629390716553
20
-13.933148384094306
30
0
11
-56.613914966583252
21
-13.933148384094299
31
0
0
LINE
5
323
100
AcDbEntity
8
0
100
AcDbLine
10
-56.613914966583252
20
-13.933148384094295
30
0
11
-56.613914966583252
21
-12.459754943847713
31
0
0
LINE
5
324
100
AcDbEntity
8
0
100
AcDbLine
10
-56.613914966583252
20
-12.459754943847713
30
0
11
-50.68758487701416
21
-12.459754943847726
31
0
0
LINE
5
325
100
AcDbEntity
8
0
100
AcDbLine
10
-50.68758487701416
20
-12.459754943847724
30
0
11
-50.68758487701416
21
-11.739425659179755
31
0
0
SPLINE
5
326
100
AcDbEntity
8
0
100
AcDbSpline
70
0
71
2
72
6
73
3
74
0
42
0.000000001
43
0.0000000001
44
0.0000000001
40
0
40
0
40
0
40
1
40
1
40
1
10
-51.52796745300293
20
36.229195594787598
30
0
10
-51.795361042022705
20
35.770804882049561
30
0
10
-51.795361042022705
20
35.274215936660767
30
0
0
SPLINE
5
327
100
AcDbEntity
8
0
100
AcDbSpline
70
0
71
2
72
6
73
3
74
0
42
0.000000001
43
0.0000000001
44
0.0000000001
40
0
40
0
40
0
40
1
40
1
40
1
10
-51.795361042022705
20
35.274215936660767
30
0
10
-51.795361042022705
20
34.624829888343811
30
0
10
-51.451568603515625
20
34.281037151813507
30
0
0
SPLINE
5
328
100
AcDbEntity
8
0
100
AcDbSpline
70
0
71
2
72
6
73
3
74
0
42
0.000000001
43
0.0000000001
44
0.0000000001
40
0
40
0
40
0
40
1
40
1
40
1
10
-51.451568603515625
20
34.281037151813507
30
0
10
-50.993177890777588
20
33.822647035121918
30
0
10
-50.420191287994385
20
33.822647035121918
30
0
0
SPLINE
5
329
100
AcDbEntity
8
0
100
AcDbSpline
70
0
71
2
72
6
73
3
74
0
42
0.000000001
43
0.0000000001
44
0.0000000001
40
0
40
0
40
0
40
1
40
1
40
1
10
-50.420191287994385
20
33.822647035121918
30
0
10
-49.809004068374634
20
33.822647035121918
30
0
10
-49.350613355636597
20
34.281037151813507
30
0
0
SPLINE
5
330
100
AcDbEntity
8
0
100
AcDbSpline
70
0
71
2
72
6
73
3
74
0
42
0.000000001
43
0.0000000001
44
0.0000000001
40
0
40
0
40
0
40
1
40
1
40
1
10
-49.350613355636597
20
34.281037151813507
30
0
10
-48.892223834991455
20
34.739427268505096
30
0
10
-48.892223834991455
20
35.42701244354248
30
0
0
SPLINE
5
331
100
AcDbEntity
8
0
100
AcDbSpline
70
0
71
2
72
6
73
3
74
0
42
0.000000001
43
0.0000000001
44
0.0000000001
40
0
40
0
40
0
40
1
40
1
40
1
10
-48.892223834991455
20
35.42701244354248
30
0
10
-48.892223834991455
20
35.885403156280518
30
0
10
-49.006820917129517
20
36.305593252182007
30
0
0
LINE
5
332
100
AcDbEntity
8
0
100
AcDbLine
10
-49.006820917129517
20
36.305593252182007
30
0
11
-48.166439533233643
21
36.305593252182007
31
0
0
LINE
5
333
100
AcDbEntity
8
0
100
AcDbLine
10
-48.166439533233643
20
36.305593252182007
30
0
11
-48.433833122253418
21
32.103683948516846
31
0
0
LINE
5
334
100
AcDbEntity
8
0
100
AcDbLine
10
-48.433833122253418
20
32.103683948516846
30
0
11
-47.631651163101196
21
31.950887143611908
31
0
0
LINE
5
335
100
AcDbEntity
8
0
100
AcDbLine
10
-47.631651163101196
20
31.950887143611908
30
0
11
-47.44065523147583
21
36.305593252182007
31
0
0
LINE
5
336
100
AcDbEntity
8
0
100
AcDbLine
10
-47.44065523147583
20
36.305593252182007
30
0
11
-45.645294189453125
21
36.305593252182007
31
0
0
LINE
5
337
100
AcDbEntity
8
0
100
AcDbLine
10
-45.645294189453125
20
36.305593252182007
30
0
11
-45.645294189453125
21
36.993179321289062
31
0
0
SPLINE
5
338
100
AcDbEntity
8
0
100
AcDbSpline
70
0
71
2
72
6
73
3
74
0
42
0.000000001
43
0.0000000001
44
0.0000000001
40
0
40
0
40
0
40
1
40
1
40
1
10
-45.645294189453125
20
36.993179321289062
30
0
10
-45.721691846847534
20
37.413369417190552
30
0
10
-45.950887203216553
20
37.069576978683472
30
0
0
LINE
5
339
100
AcDbEntity
8
0
100
AcDbLine
10
-45.950887203216553
20
37.069576978683472
30
0
11
-47.402455806732178
21
37.069576978683472
31
0
0
LINE
5
340
100
AcDbEntity
8
0
100
AcDbLine
10
-47.402455806732178
20
37.069576978683472
30
0
11
-47.173261642456055
21
40.316507816314697
31
0
0
LINE
5
341
100
AcDbEntity
8
0
100
AcDbLine
10
-47.173261642456055
20
40.316507816314697
30
0
11
-47.975443601608276
21
40.316507816314697
31
0
0
LINE
5
342
100
AcDbEntity
8
0
100
AcDbLine
10
-47.975443601608276
20
40.316507816314697
30
0
11
-48.12824010848999
21
37.069576978683472
31
0
0
LINE
5
343
100
AcDbEntity
8
0
100
AcDbLine
10
-48.12824010848999
20
37.069576978683472
30
0
11
-49.579808712005615
21
37.069576978683472
31
0
0
SPLINE
5
344
100
AcDbEntity
8
0
100
AcDbSpline
70
0
71
2
72
6
73
3
74
0
42
0.000000001
43
0.0000000001
44
0.0000000001
40
0
40
0
40
0
40
1
40
1
40
1
10
-49.579808712005615
20
37.069576978683472
30
0
10
-50.267393589019775
20
37.222373485565186
30
0
10
-51.107776165008545
20
37.222373485565186
30
0
0
SPLINE
5
345
100
AcDbEntity
8
0
100
AcDbSpline
70
0
71
2
72
6
73
3
74
0
42
0.000000001
43
0.0000000001
44
0.0000000001
40
0
40
0
40
0
40
1
40
1
40
1
10
-51.107776165008545
20
37.222373485565186
30
0
10
-53.055933713912964
20
37.184175252914429
30
0
10
-54.392905235290527
20
35.045020580291748
30
0
0
LINE
5
346
100
AcDbEntity
8
0
100
AcDbLine
10
-54.392905235290527
20
35.045020580291748
30
0
11
-53.858116865158081
21
34.319236278533936
31
0
0
SPLINE
5
347
100
AcDbEntity
8
0
100
AcDbSpline
70
0
71
2
72
6
73
3
74
0
42
0.000000001
43
0.0000000001
44
0.0000000001
40
0
40
0
40
0
40
1
40
1
40
1
10
-53.858116865158081
20
34.319236278533936
30
0
10
-52.750340700149536
20
36.229195594787598
30
0
10
-51.52796745300293
20
36.229195594787598
30
0
0
SPLINE
5
348
100
AcDbEntity
8
0
100
AcDbSpline
70
0
71
2
72
6
73
3
74
0
42
0.000000001
43
0.0000000001
44
0.0000000001
40
0
40
0
40
0
40
1
40
1
40
1
10
-49.541609287261963
20
35.503411293029785
30
0
10
-49.541609287261963
20
35.0832200050354
30
0
10
-49.809004068374634
20
34.815825521945953
30
0
0
SPLINE
5
349
100
AcDbEntity
8
0
100
AcDbSpline
70
0
71
2
72
6
73
3
74
0
42
0.000000001
43
0.0000000001
44
0.0000000001
40
0
40
0
40
0
40
1
40
1
40
1
10
-49.809004068374634
20
34.815825521945953
30
0
10
-50.038199424743652
20
34.586630463600159
30
0
10
-50.420191287994385
20
34.586630463600159
30
0
0
SPLINE
5
350
100
AcDbEntity
8
0
100
AcDbSpline
70
0
71
2
72
6
73
3
74
0
42
0.000000001
43
0.0000000001
44
0.0000000001
40
0
40
0
40
0
40
1
40
1
40
1
10
-50.420191287994385
20
34.586630463600159
30
0
10
-50.763983726501465
20
34.586630463600159
30
0
10
-50.954979658126831
20
34.777626395225525
30
0
0
SPLINE
5
351
100
AcDbEntity
8
0
100
AcDbSpline
70
0
71
2
72
6
73
3
74
0
42
0.000000001
43
0.0000000001
44
0.0000000001
40
0
40
0
40
0
40
1
40
1
40
1
10
-50.954979658126831
20
34.777626395225525
30
0
10
-51.145975589752197
20
34.968622326850891
30
0
10
-51.145975589752197
20
35.388813018798828
30
0
0
SPLINE
5
352
100
AcDbEntity
8
0
100
AcDbSpline
70
0
71
2
72
6
73
3
74
0
42
0.000000001
43
0.0000000001
44
0.0000000001
40
0
40
0
40
0
40
1
40
1
40
1
10
-51.145975589752197
20
35.388813018798828
30
0
10
-51.145975589752197
20
35.809004306793213
30
0
10
-50.878580808639526
20
36.076398491859436
30
0
0
SPLINE
5
353
100
AcDbEntity
8
0
100
AcDbSpline
70
0
71
2
72
6
73
3
74
0
42
0.000000001
43
0.0000000001
44
0.0000000001
40
0
40
0
40
0
40
1
40
1
40
1
10
-50.878580808639526
20
36.076398491859436
30
0
10
-50.649385452270508
20
36.305593252182007
30
0
10
-50.305593013763428
20
36.305593252182007
30
0
0
SPLINE
5
354
100
AcDbEntity
8
0
100
AcDbSpline
70
0
71
2
72
6
73
3
74
0
42
0.000000001
43
0.0000000001
44
0.0000000001
40
0
40
0
40
0
40
1
40
1
40
1
10
-50.305593013763428
20
36.305593252182007
30
0
10
-49.961800575256348
20
36.305593252182007
30
0
10
-49.732605218887329
20
36.076398491859436
30
0
0
SPLINE
5
355
100
AcDbEntity
8
0
100
AcDbSpline
70
0
71
2
72
6
73
3
74
0
42
0.000000001
43
0.0000000001
44
0.0000000001
40
0
40
0
40
0
40
1
40
1
40
1
10
-49.732605218887329
20
36.076398491859436
30
0
10
-49.541609287261963
20
35.885403156280518
30
0
10
-49.541609287261963
20
35.503411293029785
30
0
0
SPLINE
5
356
100
AcDbEntity
8
0
100
AcDbSpline
70
0
71
2
72
6
73
3
74
0
42
0.000000001
43
0.0000000001
44
0.0000000001
40
0
40
0
40
0
40
1
40
1
40
1
10
-46.294679641723633
20
45.931787490844727
30
0
10
-46.676671504974365
20
46.275579929351807
30
0
10
-46.600272655487061
20
45.74079155921936
30
0
0
SPLINE
5
357
100
AcDbEntity
8
0
100
AcDbSpline
70
0
71
2
72
6
73
3
74
0
42
0.000000001
43
0.0000000001
44
0.0000000001
40
0
40
0
40
0
40
1
40
1
40
1
10
-46.600272655487061
20
45.74079155921936
30
0
10
-47.44065523147583
20
45.167803764343262
30
0
10
-49.732605218887329
20
42.723056077957153
30
0
0
SPLINE
5
358
100
AcDbEntity
8
0
100
AcDbSpline
70
0
71
2
72
6
73
3
74
0
42
0.000000001
43
0.0000000001
44
0.0000000001
40
0
40
0
40
0
40
1
40
1
40
1
10
-49.732605218887329
20
42.723056077957153
30
0
10
-49.885401725769043
20
42.570259571075439
30
0
10
-50
20
42.570259571075439
30
0
0
SPLINE
5
359
100
AcDbEntity
8
0
100
AcDbSpline
70
0
71
2
72
6
73
3
74
0
42
0.000000001
43
0.0000000001
44
0.0000000001
40
0
40
0
40
0
40
1
40
1
40
1
10
-50
20
42.570259571075439
30
0
10
-50.229194164276123
20
42.570259571075439
30
0
10
-50.34379243850708
20
42.723056077957153
30
0
0
SPLINE
5
360
100
AcDbEntity
8
0
100
AcDbSpline
70
0
71
2
72
6
73
3
74
0
42
0.000000001
43
0.0000000001
44
0.0000000001
40
0
40
0
40
0
40
1
40
1
40
1
10
-50.34379243850708
20
42.723056077957153
30
0
10
-52.024556398391724
20
44.862209558486938
30
0
10
-53.514324426651001
20
46.160982847213745
30
0
0
LINE
5
361
100
AcDbEntity
8
0
100
AcDbLine
10
-53.514324426651001
20
46.160982847213745
30
0
11
-54.201909303665161
21
45.473396778106689
31
0
0
SPLINE
5
362
100
AcDbEntity
8
0
100
AcDbSpline
70
0
71
2
72
6
73
3
74
0
42
0.000000001
43
0.0000000001
44
0.0000000001
40
0
40
0
40
0
40
1
40
1
40
1
10
-54.201909303665161
20
45.473396778106689
30
0
10
-52.635743618011475
20
44.136425256729126
30
0
10
-50.954979658126831
20
42.188267707824707
30
0
0
SPLINE
5
363
100
AcDbEntity
8
0
100
AcDbSpline
70
0
71
2
72
6
73
3
74
0
42
0.000000001
43
0.0000000001
44
0.0000000001
40
0
40
0
40
0
40
1
40
1
40
1
10
-50.954979658126831
20
42.188267707824707
30
0
10
-50.458389520645142
20
41.615279912948608
30
0
10
-50.076398849487305
20
41.615279912948608
30
0
0
SPLINE
5
364
100
AcDbEntity
8
0
100
AcDbSpline
70
0
71
2
72
6
73
3
74
0
42
0.000000001
43
0.0000000001
44
0.0000000001
40
0
40
0
40
0
40
1
40
1
40
1
10
-50.076398849487305
20
41.615279912948608
30
0
10
-49.65620756149292
20
41.615279912948608
30
0
10
-49.274215698242188
20
42.035471200942993
30
0
0
SPLINE
5
365
100
AcDbEntity
8
0
100
AcDbSpline
70
0
71
2
72
6
73
3
74
0
42
0.000000001
43
0.0000000001
44
0.0000000001
40
0
40
0
40
0
40
1
40
1
40
1
10
-49.274215698242188
20
42.035471200942993
30
0
10
-46.944065093994141
20
44.518417119979858
30
0
10
-45.759891271591187
20
45.244201421737671
30
0
0
LINE
5
366
100
AcDbEntity
8
0
100
AcDbLine
10
-45.759891271591187
20
45.244201421737671
30
0
11
-46.294679641723633
21
45.931787490844727
31
0
0
SPLINE
5
367
100
AcDbEntity
8
0
100
AcDbSpline
70
0
71
2
72
6
73
3
74
0
42
0.000000001
43
0.0000000001
44
0.0000000001
40
0
40
0
40
0
40
1
40
1
40
1
10
-47.09686279296875
20
46.351977586746216
30
0
10
-47.593451738357544
20
47.001364231109619
30
0
10
-48.319236040115356
20
47.803547382354736
30
0
0
LINE
5
368
100
AcDbEntity
8
0
100
AcDbLine
10
-48.319236040115356
20
47.803547382354736
30
0
11
-48.854024410247803
21
47.383356094360352
31
0
0
SPLINE
5
369
100
AcDbEntity
8
0
100
AcDbSpline
70
0
71
2
72
6
73
3
74
0
42
0.000000001
43
0.0000000001
44
0.0000000001
40
0
40
0
40
0
40
1
40
1
40
1
10
-48.854024410247803
20
47.383356094360352
30
0
10
-48.090040683746338
20
46.466575860977173
30
0
10
-47.631651163101196
20
45.931787490844727
30
0
0
LINE
5
370
100
AcDbEntity
8
0
100
AcDbLine
10
-47.631651163101196
20
45.931787490844727
30
0
11
-47.09686279296875
21
46.351977586746216
31
0
0
SPLINE
5
371
100
AcDbEntity
8
0
100
AcDbSpline
70
0
71
2
72
6
73
3
74
0
42
0.000000001
43
0.0000000001
44
0.0000000001
40
0
40
0
40
0
40
1
40
1
40
1
10
-46.180081367492676
20
47.077761888504028
30
0
10
-46.676671504974365
20
47.688950300216675
30
0
10
-47.402455806732178
20
48.529331684112549
30
0
0
LINE
5
372
100
AcDbEntity
8
0
100
AcDbLine
10
-47.402455806732178
20
48.529331684112549
30
0
11
-47.937244176864624
21
48.109140396118164
31
0
0
SPLINE
5
373
100
AcDbEntity
8
0
100
AcDbSpline
70
0
71
2
72
6
73
3
74
0
42
0.000000001
43
0.0000000001
44
0.0000000001
40
0
40
0
40
0
40
1
40
1
40
1
10
-47.937244176864624
20
48.109140396118164
30
0
10
-47.249659299850464
20
47.345156669616699
30
0
10
-46.714870929718018
20
46.657571792602539
30
0
0
LINE
5
374
100
AcDbEntity
8
0
100
AcDbLine
10
-46.714870929718018
20
46.657571792602539
30
0
11
-46.180081367492676
21
47.077761888504028
31
0
0
LINE
5
375
100
AcDbEntity
8
0
100
AcDbLine
10
-45.874488353729248
20
50.897679328918457
30
0
11
-45.874488353729248
21
51.62346363067627
31
0
0
SPLINE
5
376
100
AcDbEntity
8
0
100
AcDbSpline
70
0
71
2
72
6
73
3
74
0
42
0.000000001
43
0.0000000001
44
0.0000000001
40
0
40
0
40
0
40
1
40
1
40
1
10
-45.874488353729248
20
51.62346363067627
30
0
10
-45.9126877784729
20
51.929059028625488
30
0
10
-46.103682518005371
20
51.661663055419922
30
0
0
LINE
5
377
100
AcDbEntity
8
0
100
AcDbLine
10
-46.103682518005371
20
51.661663055419922
30
0
11
-51.145975589752197
21
51.661663055419922
31
0
0
SPLINE
5
378
100
AcDbEntity
8
0
100
AcDbSpline
70
0
71
2
72
6
73
3
74
0
42
0.000000001
43
0.0000000001
44
0.0000000001
40
0
40
0
40
0
40
1
40
1
40
1
10
-51.145975589752197
20
51.661663055419922
30
0
10
-53.132332563400269
20
51.661663055419922
30
0
10
-54.43110466003418
20
50.324692726135254
30
0
0
LINE
5
379
100
AcDbEntity
8
0
100
AcDbLine
10
-54.43110466003418
20
50.324692726135254
30
0
11
-53.781719207763672
21
49.675307273864746
31
0
0
SPLINE
5
380
100
AcDbEntity
8
0
100
AcDbSpline
70
0
71
2
72
6
73
3
74
0
42
0.000000001
43
0.0000000001
44
0.0000000001
40
0
40
0
40
0
40
1
40
1
40
1
10
-53.781719207763672
20
49.675307273864746
30
0
10
-52.712141275405884
20
50.897679328918457
30
0
10
-51.069576740264893
20
50.897679328918457
30
0
0
LINE
5
381
100
AcDbEntity
8
0
100
AcDbLine
10
-51.069576740264893
20
50.897679328918457
30
0
11
-45.874488353729248
21
50.897679328918457
31
0
0
SPLINE
5
382
100
AcDbEntity
8
0
100
AcDbSpline
70
0
71
2
72
6
73
3
74
0
42
0.000000001
43
0.0000000001
44
0.0000000001
40
0
40
0
40
0
40
1
40
1
40
1
10
-51.298772096633911
20
49.407912492752075
30
0
10
-49.885401725769043
20
49.675307273864746
30
0
10
-47.860846519470215
20
49.675307273864746
30
0
0
LINE
5
383
100
AcDbEntity
8
0
100
AcDbLine
10
-47.860846519470215
20
49.675307273864746
30
0
11
-47.899044752120972
21
50.439291000366211
31
0
0
SPLINE
5
384
100
AcDbEntity
8
0
100
AcDbSpline
70
0
71
2
72
6
73
3
74
0
42
0.000000001
43
0.0000000001
44
0.0000000001
40
0
40
0
40
0
40
1
40
1
40
1
10
-47.899044752120972
20
50.439291000366211
30
0
10
-47.937244176864624
20
50.668485164642334
30
0
10
-48.12824010848999
20
50.439291000366211
30
0
0
SPLINE
5
385
100
AcDbEntity
8
0
100
AcDbSpline
70
0
71
2
72
6
73
3
74
0
42
0.000000001
43
0.0000000001
44
0.0000000001
40
0
40
0
40
0
40
1
40
1
40
1
10
-48.12824010848999
20
50.439291000366211
30
0
10
-50
20
50.477490425109863
30
0
10
-51.37516975402832
20
50.210094451904297
30
0
0
LINE
5
386
100
AcDbEntity
8
0
100
AcDbLine
10
-51.37516975402832
20
50.210094451904297
30
0
11
-51.298772096633911
21
49.407912492752075
31
0
0
LINE
5
387
100
AcDbEntity
8
0
100
AcDbLine
10
-51.069576740264893
20
58.11732292175293
30
0
11
-51.069576740264893
21
57.42973804473877
31
0
0
LINE
5
388
100
AcDbEntity
8
0
100
AcDbLine
10
-51.069576740264893
20
57.42973804473877
30
0
11
-53.094133138656616
21
57.42973804473877
31
0
0
SPLINE
5
389
100
AcDbEntity
8
0
100
AcDbSpline
70
0
71
2
72
6
73
3
74
0
42
0.000000001
43
0.0000000001
44
0.0000000001
40
0
40
0
40
0
40
1
40
1
40
1
10
-53.094133138656616
20
57.42973804473877
30
0
10
-53.705320358276367
20
57.42973804473877
30
0
10
-53.705320358276367
20
56.818552017211914
30
0
0
LINE
5
390
100
AcDbEntity
8
0
100
AcDbLine
10
-53.705320358276367
20
56.818552017211914
30
0
11
-53.705320358276367
21
56.130967140197754
31
0
0
LINE
5
391
100
AcDbEntity
8
0
100
AcDbLine
10
-53.705320358276367
20
56.130967140197754
30
0
11
-52.979536056518555
21
55.978169441223145
31
0
0
LINE
5
392
100
AcDbEntity
8
0
100
AcDbLine
10
-52.979536056518555
20
55.978169441223145
30
0
11
-52.979536056518555
21
56.512961387634277
31
0
0
SPLINE
5
393
100
AcDbEntity
8
0
100
AcDbSpline
70
0
71
2
72
6
73
3
74
0
42
0.000000001
43
0.0000000001
44
0.0000000001
40
0
40
0
40
0
40
1
40
1
40
1
10
-52.979536056518555
20
56.512961387634277
30
0
10
-52.979536056518555
20
56.665754318237305
30
0
10
-52.826739549636841
20
56.665754318237305
30
0
0
LINE
5
394
100
AcDbEntity
8
0
100
AcDbLine
10
-52.826739549636841
20
56.665754318237305
30
0
11
-51.451568603515625
21
56.665754318237305
31
0
0
LINE
5
395
100
AcDbEntity
8
0
100
AcDbLine
10
-51.451568603515625
20
56.665754318237305
30
0
11
-51.451568603515625
21
55.443382263183594
31
0
0
LINE
5
396
100
AcDbEntity
8
0
100
AcDbLine
10
-51.451568603515625
20
55.443382263183594
30
0
11
-54.392905235290527
21
55.443382263183594
31
0
0
LINE
5
397
100
AcDbEntity
8
0
100
AcDbLine
10
-54.392905235290527
20
55.443382263183594
30
0
11
-54.392905235290527
21
54.679398536682129
31
0
0
LINE
5
398
100
AcDbEntity
8
0
100
AcDbLine
10
-54.392905235290527
20
54.679398536682129
30
0
11
-51.451568603515625
21
54.679398536682129
31
0
0
LINE
5
399
100
AcDbEntity
8
0
100
AcDbLine
10
-51.451568603515625
20
54.679398536682129
30
0
11
-51.451568603515625
21
53.571624755859375
31
0
0
LINE
5
400
100
AcDbEntity
8
0
100
AcDbLine
10
-51.451568603515625
20
53.571624755859375
30
0
11
-53.705320358276367
21
53.571624755859375
31
0
0
LINE
5
401
100
AcDbEntity
8
0
100
AcDbLine
10
-53.705320358276367
20
53.571624755859375
30
0
11
-53.705320358276367
21
52.80764102935791
31
0
0
LINE
5
402
100
AcDbEntity
8
0
100
AcDbLine
10
-53.705320358276367
20
52.80764102935791
30
0
11
-51.069576740264893
21
52.80764102935791
31
0
0
LINE
5
403
100
AcDbEntity
8
0
100
AcDbLine
10
-51.069576740264893
20
52.80764102935791
30
0
11
-51.069576740264893
21
52.12005615234375
31
0
0
LINE
5
404
100
AcDbEntity
8
0
100
AcDbLine
10
-51.069576740264893
20
52.12005615234375
30
0
11
-49.350614547729492
21
52.12005615234375
31
0
0
LINE
5
405
100
AcDbEntity
8
0
100
AcDbLine
10
-49.350614547729492
20
52.12005615234375
30
0
11
-49.350614547729492
21
58.11732292175293
31
0
0
LINE
5
406
100
AcDbEntity
8
0
100
AcDbLine
10
-49.350614547729492
20
58.11732292175293
30
0
11
-51.069576740264893
21
58.11732292175293
31
0
0
LINE
5
407
100
AcDbEntity
8
0
100
AcDbLine
10
-50.840381383895874
20
57.353339195251465
30
0
11
-49.961800575256348
21
57.353339195251465
31
0
0
LINE
5
408
100
AcDbEntity
8
0
100
AcDbLine
10
-49.961800575256348
20
57.353339195251465
30
0
11
-49.961800575256348
21
55.443382263183594
31
0
0
LINE
5
409
100
AcDbEntity
8
0
100
AcDbLine
10
-49.961800575256348
20
55.443382263183594
30
0
11
-50.840381383895874
21
55.443382263183594
31
0
0
LINE
5
410
100
AcDbEntity
8
0
100
AcDbLine
10
-50.840381383895874
20
55.443382263183594
30
0
11
-50.840381383895874
21
57.353339195251465
31
0
0
LINE
5
411
100
AcDbEntity
8
0
100
AcDbLine
10
-50.840381383895874
20
54.679398536682129
30
0
11
-49.961800575256348
21
54.679398536682129
31
0
0
LINE
5
412
100
AcDbEntity
8
0
100
AcDbLine
10
-49.961800575256348
20
54.679398536682129
30
0
11
-49.961800575256348
21
52.884039878845215
31
0
0
LINE
5
413
100
AcDbEntity
8
0
100
AcDbLine
10
-49.961800575256348
20
52.884039878845215
30
0
11
-50.840381383895874
21
52.884039878845215
31
0
0
LINE
5
414
100
AcDbEntity
8
0
100
AcDbLine
10
-50.840381383895874
20
52.884039878845215
30
0
11
-50.840381383895874
21
54.679398536682129
31
0
0
LINE
5
415
100
AcDbEntity
8
0
100
AcDbLine
10
-45.989086627960205
20
57.23874568939209
30
0
11
-48.81582498550415
21
57.23874568939209
31
0
0
LINE
5
416
100
AcDbEntity
8
0
100
AcDbLine
10
-48.81582498550415
20
57.23874568939209
30
0
11
-48.81582498550415
21
52.616643905639648
31
0
0
LINE
5
417
100
AcDbEntity
8
0
100
AcDbLine
10
-48.81582498550415
20
52.616643905639648
30
0
11
-48.204638957977295
21
52.616643905639648
31
0
0
LINE
5
418
100
AcDbEntity
8
0
100
AcDbLine
10
-48.204638957977295
20
52.616643905639648
30
0
11
-48.204638957977295
21
56.58935546875
31
0
0
LINE
5
419
100
AcDbEntity
8
0
100
AcDbLine
10
-48.204638957977295
20
56.58935546875
30
0
11
-47.746248245239258
21
56.58935546875
31
0
0
LINE
5
420
100
AcDbEntity
8
0
100
AcDbLine
10
-47.746248245239258
20
56.58935546875
30
0
11
-47.746248245239258
21
52.731242179870605
31
0
0
LINE
5
421
100
AcDbEntity
8
0
100
AcDbLine
10
-47.746248245239258
20
52.731242179870605
30
0
11
-47.135061025619507
21
52.731242179870605
31
0
0
LINE
5
422
100
AcDbEntity
8
0
100
AcDbLine
10
-47.135061025619507
20
52.731242179870605
30
0
11
-47.135061025619507
21
56.58935546875
31
0
0
LINE
5
423
100
AcDbEntity
8
0
100
AcDbLine
10
-47.135061025619507
20
56.58935546875
30
0
11
-46.600272655487061
21
56.58935546875
31
0
0
LINE
5
424
100
AcDbEntity
8
0
100
AcDbLine
10
-46.600272655487061
20
56.58935546875
30
0
11
-46.600272655487061
21
52.654843330383301
31
0
0
LINE
5
425
100
AcDbEntity
8
0
100
AcDbLine
10
-46.600272655487061
20
52.654843330383301
30
0
11
-45.989086627960205
21
52.654843330383301
31
0
0
LINE
5
426
100
AcDbEntity
8
0
100
AcDbLine
10
-45.989086627960205
20
52.654843330383301
30
0
11
-45.989086627960205
21
57.23874568939209
31
0
0
SPLINE
5
427
100
AcDbEntity
8
0
100
AcDbSpline
70
0
71
2
72
6
73
3
74
0
42
0.000000001
43
0.0000000001
44
0.0000000001
40
0
40
0
40
0
40
1
40
1
40
1
10
-48.96862268447876
20
60.447478294372559
30
0
10
-48.701226711273193
20
63.770804405212402
30
0
10
-48.013641834259033
20
65.642561912536621
30
0
0
LINE
5
428
100
AcDbEntity
8
0
100
AcDbLine
10
-48.013641834259033
20
65.642561912536621
30
0
11
-48.777625560760498
21
66.139154434204102
31
0
0
SPLINE
5
429
100
AcDbEntity
8
0
100
AcDbSpline
70
0
71
2
72
6
73
3
74
0
42
0.000000001
43
0.0000000001
44
0.0000000001
40
0
40
0
40
0
40
1
40
1
40
1
10
-48.777625560760498
20
66.139154434204102
30
0
10
-48.96862268447876
20
66.215553283691406
30
0
10
-48.854024410247803
20
65.871758460998535
30
0
0
SPLINE
5
430
100
AcDbEntity
8
0
100
AcDbSpline
70
0
71
2
72
6
73
3
74
0
42
0.000000001
43
0.0000000001
44
0.0000000001
40
0
40
0
40
0
40
1
40
1
40
1
10
-48.854024410247803
20
65.871758460998535
30
0
10
-49.121417999267578
20
65.031375885009766
30
0
10
-49.350614547729492
20
63.541607856750488
30
0
0
LINE
5
431
100
AcDbEntity
8
0
100
AcDbLine
10
-49.350614547729492
20
63.541607856750488
30
0
11
-50.649385452270508
21
63.541607856750488
31
0
0
LINE
5
432
100
AcDbEntity
8
0
100
AcDbLine
10
-50.649385452270508
20
63.541607856750488
30
0
11
-50.190995931625366
21
67.705321311950684
31
0
0
LINE
5
433
100
AcDbEntity
8
0
100
AcDbLine
10
-50.190995931625366
20
67.705321311950684
30
0
11
-50.916780233383179
21
67.743520736694336
31
0
0
LINE
5
434
100
AcDbEntity
8
0
100
AcDbLine
10
-50.916780233383179
20
67.743520736694336
30
0
11
-51.37516975402832
21
63.541607856750488
31
0
0
LINE
5
435
100
AcDbEntity
8
0
100
AcDbLine
10
-51.37516975402832
20
63.541607856750488
30
0
11
-52.90313720703125
21
63.541607856750488
31
0
0
SPLINE
5
436
100
AcDbEntity
8
0
100
AcDbSpline
70
0
71
2
72
6
73
3
74
0
42
0.000000001
43
0.0000000001
44
0.0000000001
40
0
40
0
40
0
40
1
40
1
40
1
10
-52.90313720703125
20
63.541607856750488
30
0
10
-53.208731412887573
20
63.541607856750488
30
0
10
-53.208731412887573
20
63.809003829956055
30
0
0
LINE
5
437
100
AcDbEntity
8
0
100
AcDbLine
10
-53.208731412887573
20
63.809003829956055
30
0
11
-53.208731412887573
21
66.253752708435059
31
0
0
SPLINE
5
438
100
AcDbEntity
8
0
100
AcDbSpline
70
0
71
2
72
6
73
3
74
0
42
0.000000001
43
0.0000000001
44
0.0000000001
40
0
40
0
40
0
40
1
40
1
40
1
10
-53.208731412887573
20
66.253752708435059
30
0
10
-53.208731412887573
20
66.6357421875
30
0
10
-52.864937782287598
20
66.673941612243652
30
0
0
LINE
5
439
100
AcDbEntity
8
0
100
AcDbLine
10
-52.864937782287598
20
66.673941612243652
30
0
11
-52.177352905273438
21
66.788539886474609
31
0
0
LINE
5
440
100
AcDbEntity
8
0
100
AcDbLine
10
-52.177352905273438
20
66.788539886474609
30
0
11
-52.406548261642456
21
67.628922462463379
31
0
0
LINE
5
441
100
AcDbEntity
8
0
100
AcDbLine
10
-52.406548261642456
20
67.628922462463379
30
0
11
-53.055933713912964
21
67.514324188232422
31
0
0
SPLINE
5
442
100
AcDbEntity
8
0
100
AcDbSpline
70
0
71
2
72
6
73
3
74
0
42
0.000000001
43
0.0000000001
44
0.0000000001
40
0
40
0
40
0
40
1
40
1
40
1
10
-53.055933713912964
20
67.514324188232422
30
0
10
-54.049112796783447
20
67.32332706451416
30
0
10
-54.049112796783447
20
66.597542762756348
30
0
0
LINE
5
443
100
AcDbEntity
8
0
100
AcDbLine
10
-54.049112796783447
20
66.597542762756348
30
0
11
-54.049112796783447
21
63.350615501403809
31
0
0
SPLINE
5
444
100
AcDbEntity
8
0
100
AcDbSpline
70
0
71
2
72
6
73
3
74
0
42
0.000000001
43
0.0000000001
44
0.0000000001
40
0
40
0
40
0
40
1
40
1
40
1
10
-54.049112796783447
20
63.350615501403809
30
0
10
-54.049112796783447
20
62.663030624389648
30
0
10
-53.399727344512939
20
62.663030624389648
30
0
0
LINE
5
445
100
AcDbEntity
8
0
100
AcDbLine
10
-53.399727344512939
20
62.663030624389648
30
0
11
-51.451568603515625
21
62.663030624389648
31
0
0
LINE
5
446
100
AcDbEntity
8
0
100
AcDbLine
10
-51.451568603515625
20
62.663030624389648
30
0
11
-51.718963384628296
21
59.568896293640137
31
0
0
LINE
5
447
100
AcDbEntity
8
0
100
AcDbLine
10
-51.718963384628296
20
59.568896293640137
30
0
11
-50.993177890777588
21
59.530696868896484
31
0
0
LINE
5
448
100
AcDbEntity
8
0
100
AcDbLine
10
-50.993177890777588
20
59.530696868896484
30
0
11
-50.725784301757812
21
62.663030624389648
31
0
0
LINE
5
449
100
AcDbEntity
8
0
100
AcDbLine
10
-50.725784301757812
20
62.663030624389648
30
0
11
-49.503409862518311
21
62.663030624389648
31
0
0
SPLINE
5
450
100
AcDbEntity
8
0
100
AcDbSpline
70
0
71
2
72
6
73
3
74
0
42
0.000000001
43
0.0000000001
44
0.0000000001
40
0
40
0
40
0
40
1
40
1
40
1
10
-49.503409862518311
20
62.663030624389648
30
0
10
-49.579808712005615
20
61.860847473144531
30
0
10
-49.694406986236572
20
60.638470649719238
30
0
0
LINE
5
451
100
AcDbEntity
8
0
100
AcDbLine
10
-49.694406986236572
20
60.638470649719238
30
0
11
-48.96862268447876
21
60.447478294372559
31
0
0
LINE
5
452
100
AcDbEntity
8
0
100
AcDbLine
10
-47.44065523147583
20
60.600271224975586
30
0
11
-48.701226711273193
21
60.600271224975586
31
0
0
LINE
5
453
100
AcDbEntity
8
0
100
AcDbLine
10
-48.701226711273193
20
60.600271224975586
30
0
11
-48.701226711273193
21
59.721689224243164
31
0
0
LINE
5
454
100
AcDbEntity
8
0
100
AcDbLine
10
-48.701226711273193
20
59.721689224243164
30
0
11
-46.714870929718018
21
59.721689224243164
31
0
0
LINE
5
455
100
AcDbEntity
8
0
100
AcDbLine
10
-46.714870929718018
20
59.721689224243164
30
0
11
-46.714870929718018
21
63.083219528198242
31
0
0
LINE
5
456
100
AcDbEntity
8
0
100
AcDbLine
10
-46.714870929718018
20
63.083219528198242
30
0
11
-45.56889533996582
21
63.083219528198242
31
0
0
LINE
5
457
100
AcDbEntity
8
0
100
AcDbLine
10
-45.56889533996582
20
63.083219528198242
30
0
11
-45.56889533996582
21
63.923602104187012
31
0
0
SPLINE
5
458
100
AcDbEntity
8
0
100
AcDbSpline
70
0
71
2
72
6
73
3
74
0
42
0.000000001
43
0.0000000001
44
0.0000000001
40
0
40
0
40
0
40
1
40
1
40
1
10
-45.56889533996582
20
63.923602104187012
30
0
10
-45.607094764709473
20
64.229192733764648
30
0
10
-45.798089504241943
20
63.961801528930664
30
0
0
LINE
5
459
100
AcDbEntity
8
0
100
AcDbLine
10
-45.798089504241943
20
63.961801528930664
30
0
11
-46.714870929718018
21
63.961801528930664
31
0
0
LINE
5
460
100
AcDbEntity
8
0
100
AcDbLine
10
-46.714870929718018
20
63.961801528930664
30
0
11
-46.714870929718018
21
67.514324188232422
31
0
0
LINE
5
461
100
AcDbEntity
8
0
100
AcDbLine
10
-46.714870929718018
20
67.514324188232422
30
0
11
-48.586630821228027
21
67.514324188232422
31
0
0
LINE
5
462
100
AcDbEntity
8
0
100
AcDbLine
10
-48.586630821228027
20
67.514324188232422
30
0
11
-48.586630821228027
21
66.6357421875
31
0
0
LINE
5
463
100
AcDbEntity
8
0
100
AcDbLine
10
-48.586630821228027
20
66.6357421875
30
0
11
-47.44065523147583
21
66.6357421875
31
0
0
LINE
5
464
100
AcDbEntity
8
0
100
AcDbLine
10
-47.44065523147583
20
66.6357421875
30
0
11
-47.44065523147583
21
60.600271224975586
31
0
0
SPLINE
5
465
100
AcDbEntity
8
0
100
AcDbSpline
70
0
71
2
72
6
73
3
74
0
42
0.000000001
43
0.0000000001
44
0.0000000001
40
0
40
0
40
0
40
1
40
1
40
1
10
26.833560466766357
20
58.627557754516602
30
0
10
28.372441530227661
20
60.035470724105835
30
0
10
28.372441530227661
20
61.672579050064087
30
0
0
SPLINE
5
466
100
AcDbEntity
8
0
100
AcDbSpline
70
0
71
2
72
6
73
3
74
0
42
0.000000001
43
0.0000000001
44
0.0000000001
40
0
40
0
40
0
40
1
40
1
40
1
10
28.372441530227661
20
61.672579050064087
30
0
10
28.372441530227661
20
62.851296663284302
30
0
10
27.815824747085571
20
63.407912850379944
30
0
0
SPLINE
5
467
100
AcDbEntity
8
0
100
AcDbSpline
70
0
71
2
72
6
73
3
74
0
42
0.000000001
43
0.0000000001
44
0.0000000001
40
0
40
0
40
0
40
1
40
1
40
1
10
27.815824747085571
20
63.407912850379944
30
0
10
27.390177249908447
20
63.833560943603516
30
0
10
26.178717613220215
20
63.833560943603516
30
0
0
LINE
5
468
100
AcDbEntity
8
0
100
AcDbLine
10
26.178717613220215
20
63.833560943603516
30
0
11
21.791267395019531
21
63.833560943603516
31
0
0
LINE
5
469
100
AcDbEntity
8
0
100
AcDbLine
10
21.791267395019531
20
63.833560943603516
30
0
11
21.791267395019531
21
63.145976066589355
31
0
0
SPLINE
5
470
100
AcDbEntity
8
0
100
AcDbSpline
70
0
71
2
72
6
73
3
74
0
42
0.000000001
43
0.0000000001
44
0.0000000001
40
0
40
0
40
0
40
1
40
1
40
1
10
21.791267395019531
20
63.145976066589355
30
0
10
21.856752634048462
20
62.851296663284302
30
0
10
22.053205966949463
20
63.080491423606873
30
0
0
LINE
5
471
100
AcDbEntity
8
0
100
AcDbLine
10
22.053205966949463
20
63.080491423606873
30
0
11
26.178717613220215
21
63.080491423606873
31
0
0
SPLINE
5
472
100
AcDbEntity
8
0
100
AcDbSpline
70
0
71
2
72
6
73
3
74
0
42
0.000000001
43
0.0000000001
44
0.0000000001
40
0
40
0
40
0
40
1
40
1
40
1
10
26.178717613220215
20
63.080491423606873
30
0
10
26.997271776199341
20
63.080491423606873
30
0
10
27.291951179504395
20
62.785812020301819
30
0
0
SPLINE
5
473
100
AcDbEntity
8
0
100
AcDbSpline
70
0
71
2
72
6
73
3
74
0
42
0.000000001
43
0.0000000001
44
0.0000000001
40
0
40
0
40
0
40
1
40
1
40
1
10
27.291951179504395
20
62.785812020301819
30
0
10
27.652114629745483
20
62.425647974014282
30
0
10
27.652114629745483
20
61.705321073532104
30
0
0
SPLINE
5
474
100
AcDbEntity
8
0
100
AcDbSpline
70
0
71
2
72
6
73
3
74
0
42
0.000000001
43
0.0000000001
44
0.0000000001
40
0
40
0
40
0
40
1
40
1
40
1
10
27.652114629745483
20
61.705321073532104
30
0
10
27.652114629745483
20
60.428376793861389
30
0
10
26.211459636688232
20
59.118690490722656
30
0
0
LINE
5
475
100
AcDbEntity
8
0
100
AcDbLine
10
26.211459636688232
20
59.118690490722656
30
0
11
26.833560466766357
21
58.627557754516602
31
0
0
SPLINE
5
476
100
AcDbEntity
8
0
100
AcDbSpline
70
0
71
2
72
6
73
3
74
0
42
0.000000001
43
0.0000000001
44
0.0000000001
40
0
40
0
40
0
40
1
40
1
40
1
10
24.967257976531982
20
53.781718015670776
30
0
10
22.740790843963623
20
53.781718015670776
30
0
10
21.529331207275391
20
53.912687301635742
30
0
0
LINE
5
477
100
AcDbEntity
8
0
100
AcDbLine
10
21.529331207275391
20
53.912687301635742
30
0
11
21.529331207275391
21
53.2578444480896
31
0
0
SPLINE
5
478
100
AcDbEntity
8
0
100
AcDbSpline
70
0
71
2
72
6
73
3
74
0
42
0.000000001
43
0.0000000001
44
0.0000000001
40
0
40
0
40
0
40
1
40
1
40
1
10
21.529331207275391
20
53.2578444480896
30
0
10
21.562073230743408
20
52.897680997848511
30
0
10
21.791268587112427
20
53.192359209060669
30
0
0
SPLINE
5
479
100
AcDbEntity
8
0
100
AcDbSpline
70
0
71
2
72
6
73
3
74
0
42
0.000000001
43
0.0000000001
44
0.0000000001
40
0
40
0
40
0
40
1
40
1
40
1
10
21.791268587112427
20
53.192359209060669
30
0
10
22.839016914367676
20
53.094133138656616
30
0
10
25
20
53.094133138656616
30
0
0
SPLINE
5
480
100
AcDbEntity
8
0
100
AcDbSpline
70
0
71
2
72
6
73
3
74
0
42
0.000000001
43
0.0000000001
44
0.0000000001
40
0
40
0
40
0
40
1
40
1
40
1
10
25
20
53.094133138656616
30
0
10
27.455661296844482
20
53.094133138656616
30
0
10
28.699862957000732
20
55.418826341629028
30
0
0
LINE
5
481
100
AcDbEntity
8
0
100
AcDbLine
10
28.699862957000732
20
55.418826341629028
30
0
11
28.143246173858643
21
55.975443124771118
31
0
0
SPLINE
5
482
100
AcDbEntity
8
0
100
AcDbSpline
70
0
71
2
72
6
73
3
74
0
42
0.000000001
43
0.0000000001
44
0.0000000001
40
0
40
0
40
0
40
1
40
1
40
1
10
28.143246173858643
20
55.975443124771118
30
0
10
27.095497846603394
20
53.781718015670776
30
0
10
24.967257976531982
20
53.781718015670776
30
0
0
SPLINE
5
483
100
AcDbEntity
8
0
100
AcDbSpline
70
0
71
2
72
6
73
3
74
0
42
0.000000001
43
0.0000000001
44
0.0000000001
40
0
40
0
40
0
40
1
40
1
40
1
10
26.047748327255249
20
56.008185148239136
30
0
10
26.276943683624268
20
56.302864551544189
30
0
10
26.276943683624268
20
56.663028001785278
30
0
0
SPLINE
5
484
100
AcDbEntity
8
0
100
AcDbSpline
70
0
71
2
72
6
73
3
74
0
42
0.000000001
43
0.0000000001
44
0.0000000001
40
0
40
0
40
0
40
1
40
1
40
1
10
26.276943683624268
20
56.663028001785278
30
0
10
26.276943683624268
20
56.892223358154297
30
0
10
26.080490350723267
20
57.088675498962402
30
0
0
SPLINE
5
485
100
AcDbEntity
8
0
100
AcDbSpline
70
0
71
2
72
6
73
3
74
0
42
0.000000001
43
0.0000000001
44
0.0000000001
40
0
40
0
40
0
40
1
40
1
40
1
10
26.080490350723267
20
57.088675498962402
30
0
10
25.851294994354248
20
57.317872047424316
30
0
10
24.115961790084839
20
57.317872047424316
30
0
0
SPLINE
5
486
100
AcDbEntity
8
0
100
AcDbSpline
70
0
71
2
72
6
73
3
74
0
42
0.000000001
43
0.0000000001
44
0.0000000001
40
0
40
0
40
0
40
1
40
1
40
1
10
24.115961790084839
20
57.317872047424316
30
0
10
22.806274890899658
20
57.317872047424316
30
0
10
21.725784540176392
20
57.186902761459351
30
0
0
LINE
5
487
100
AcDbEntity
8
0
100
AcDbLine
10
21.725784540176392
20
57.186902761459351
30
0
11
21.725784540176392
21
56.466574668884277
31
0
0
SPLINE
5
488
100
AcDbEntity
8
0
100
AcDbSpline
70
0
71
2
72
6
73
3
74
0
42
0.000000001
43
0.0000000001
44
0.0000000001
40
0
40
0
40
0
40
1
40
1
40
1
10
21.725784540176392
20
56.466574668884277
30
0
10
21.824010610580444
20
56.204638481140137
30
0
10
21.95497989654541
20
56.466574668884277
30
0
0
SPLINE
5
489
100
AcDbEntity
8
0
100
AcDbSpline
70
0
71
2
72
6
73
3
74
0
42
0.000000001
43
0.0000000001
44
0.0000000001
40
0
40
0
40
0
40
1
40
1
40
1
10
21.95497989654541
20
56.466574668884277
30
0
10
22.740790843963623
20
56.630285978317261
30
0
10
24.115961790084839
20
56.630285978317261
30
0
0
SPLINE
5
490
100
AcDbEntity
8
0
100
AcDbSpline
70
0
71
2
72
6
73
3
74
0
42
0.000000001
43
0.0000000001
44
0.0000000001
40
0
40
0
40
0
40
1
40
1
40
1
10
24.115961790084839
20
56.630285978317261
30
0
10
25.523874759674072
20
56.630285978317261
30
0
10
25.523874759674072
20
56.499316692352295
30
0
0
SPLINE
5
491
100
AcDbEntity
8
0
100
AcDbSpline
70
0
71
2
72
6
73
3
74
0
42
0.000000001
43
0.0000000001
44
0.0000000001
40
0
40
0
40
0
40
1
40
1
40
1
10
25.523874759674072
20
56.499316692352295
30
0
10
25.523874759674072
20
56.401090621948242
30
0
10
25.392905473709106
20
56.237380504608154
30
0
0
SPLINE
5
492
100
AcDbEntity
8
0
100
AcDbSpline
70
0
71
2
72
6
73
3
74
0
42
0.000000001
43
0.0000000001
44
0.0000000001
40
0
40
0
40
0
40
1
40
1
40
1
10
25.392905473709106
20
56.237380504608154
30
0
10
25.196452140808105
20
56.008185148239136
30
0
10
24.508867263793945
20
55.484310388565063
30
0
0
LINE
5
493
100
AcDbEntity
8
0
100
AcDbLine
10
24.508867263793945
20
55.484310388565063
30
0
11
25
21
54.993178844451904
31
0
0
SPLINE
5
494
100
AcDbEntity
8
0
100
AcDbSpline
70
0
71
2
72
6
73
3
74
0
42
0.000000001
43
0.0000000001
44
0.0000000001
40
0
40
0
40
0
40
1
40
1
40
1
10
25
20
54.993178844451904
30
0
10
25.68758487701416
20
55.549795627593994
30
0
10
26.047748327255249
20
56.008185148239136
30
0
0
SPLINE
5
495
100
AcDbEntity
8
0
100
AcDbSpline
70
0
71
2
72
6
73
3
74
0
42
0.000000001
43
0.0000000001
44
0.0000000001
40
0
40
0
40
0
40
1
40
1
40
1
10
26.702592372894287
20
47.757163047790527
30
0
10
28.110504150390625
20
49.394268989562988
30
0
10
28.634378910064697
20
51.129604578018188
30
0
0
LINE
5
496
100
AcDbEntity
8
0
100
AcDbLine
10
28.634378910064697
20
51.129604578018188
30
0
11
27.848566770553589
21
51.424283981323242
31
0
0
SPLINE
5
497
100
AcDbEntity
8
0
100
AcDbSpline
70
0
71
2
72
6
73
3
74
0
42
0.000000001
43
0.0000000001
44
0.0000000001
40
0
40
0
40
0
40
1
40
1
40
1
10
27.848566770553589
20
51.424283981323242
30
0
10
27.35743522644043
20
49.688949584960938
30
0
10
26.178717613220215
20
48.313779830932617
30
0
0
SPLINE
5
498
100
AcDbEntity
8
0
100
AcDbSpline
70
0
71
2
72
6
73
3
74
0
42
0.000000001
43
0.0000000001
44
0.0000000001
40
0
40
0
40
0
40
1
40
1
40
1
10
26.178717613220215
20
48.313779830932617
30
0
10
24.934515953063965
20
49.459753036499023
30
0
10
23.297407627105713
20
49.852662086486816
30
0
0
LINE
5
499
100
AcDbEntity
8
0
100
AcDbLine
10
23.297407627105713
20
49.852662086486816
30
0
11
23.297407627105713
21
51.424283981323242
31
0
0
LINE
5
500
100
AcDbEntity
8
0
100
AcDbLine
10
23.297407627105713
20
51.424283981323242
30
0
11
22.675306797027588
21
51.424283981323242
31
0
0
LINE
5
501
100
AcDbEntity
8
0
100
AcDbLine
10
22.675306797027588
20
51.424283981323242
30
0
11
22.675306797027588
21
48.281035423278809
31
0
0
LINE
5
502
100
AcDbEntity
8
0
100
AcDbLine
10
22.675306797027588
20
48.281035423278809
30
0
11
21.431105136871338
21
48.281035423278809
31
0
0
LINE
5
503
100
AcDbEntity
8
0
100
AcDbLine
10
21.431105136871338
20
48.281035423278809
30
0
11
21.431105136871338
21
47.560710906982422
31
0
0
SPLINE
5
504
100
AcDbEntity
8
0
100
AcDbSpline
70
0
71
2
72
6
73
3
74
0
42
0.000000001
43
0.0000000001
44
0.0000000001
40
0
40
0
40
0
40
1
40
1
40
1
10
21.431105136871338
20
47.560710906982422
30
0
10
21.496589183807373
20
47.233288288116455
30
0
10
21.693041324615479
20
47.527966499328613
30
0
0
LINE
5
505
100
AcDbEntity
8
0
100
AcDbLine
10
21.693041324615479
20
47.527966499328613
30
0
11
22.675306797027588
21
47.527966499328613
31
0
0
LINE
5
506
100
AcDbEntity
8
0
100
AcDbLine
10
22.675306797027588
20
47.527966499328613
30
0
11
22.675306797027588
21
44.351978302001953
31
0
0
LINE
5
507
100
AcDbEntity
8
0
100
AcDbLine
10
22.675306797027588
20
44.351978302001953
30
0
11
23.297407627105713
21
44.351978302001953
31
0
0
LINE
5
508
100
AcDbEntity
8
0
100
AcDbLine
10
23.297407627105713
20
44.351978302001953
30
0
11
23.297407627105713
21
45.890860557556152
31
0
0
SPLINE
5
509
100
AcDbEntity
8
0
100
AcDbSpline
70
0
71
2
72
6
73
3
74
0
42
0.000000001
43
0.0000000001
44
0.0000000001
40
0
40
0
40
0
40
1
40
1
40
1
10
23.297407627105713
20
45.890860557556152
30
0
10
24.836288690567017
20
46.152796745300293
30
0
10
26.178717613220215
20
47.266030311584473
30
0
0
SPLINE
5
510
100
AcDbEntity
8
0
100
AcDbSpline
70
0
71
2
72
6
73
3
74
0
42
0.000000001
43
0.0000000001
44
0.0000000001
40
0
40
0
40
0
40
1
40
1
40
1
10
26.178717613220215
20
47.266030311584473
30
0
10
27.193723917007446
20
46.120054721832275
30
0
10
27.684856653213501
20
44.221010208129883
30
0
0
LINE
5
511
100
AcDbEntity
8
0
100
AcDbLine
10
27.684856653213501
20
44.221010208129883
30
0
11
28.470668792724609
21
44.515690803527832
31
0
0
SPLINE
5
512
100
AcDbEntity
8
0
100
AcDbSpline
70
0
71
2
72
6
73
3
74
0
42
0.000000001
43
0.0000000001
44
0.0000000001
40
0
40
0
40
0
40
1
40
1
40
1
10
28.470668792724609
20
44.515690803527832
30
0
10
28.04502010345459
20
46.185538768768311
30
0
10
26.702592372894287
20
47.757163047790527
30
0
0
SPLINE
5
513
100
AcDbEntity
8
0
100
AcDbSpline
70
0
71
2
72
6
73
3
74
0
42
0.000000001
43
0.0000000001
44
0.0000000001
40
0
40
0
40
0
40
1
40
1
40
1
10
25.654842853546143
20
47.789905071258545
30
0
10
24.476125240325928
20
46.807639598846436
30
0
10
23.297407627105713
20
46.578445434570312
30
0
0
LINE
5
514
100
AcDbEntity
8
0
100
AcDbLine
10
23.297407627105713
20
46.578445434570312
30
0
11
23.297407627105713
21
49.132332801818848
31
0
0
SPLINE
5
515
100
AcDbEntity
8
0
100
AcDbSpline
70
0
71
2
72
6
73
3
74
0
42
0.000000001
43
0.0000000001
44
0.0000000001
40
0
40
0
40
0
40
1
40
1
40
1
10
23.297407627105713
20
49.132332801818848
30
0
10
24.410641193389893
20
48.935880661010742
30
0
10
25.654842853546143
20
47.789905071258545
30
0
0
LINE
5
516
100
AcDbEntity
8
0
100
AcDbLine
10
25.065484046936035
20
39.080491065979004
30
0
11
25.491132736206055
21
39.080491065979004
31
0
0
LINE
5
517
100
AcDbEntity
8
0
100
AcDbLine
10
25.491132736206055
20
39.080491065979004
30
0
11
25.491132736206055
21
35.871758460998535
31
0
0
LINE
5
518
100
AcDbEntity
8
0
100
AcDbLine
10
25.491132736206055
20
35.871758460998535
30
0
11
26.11323356628418
21
35.871758460998535
31
0
0
LINE
5
519
100
AcDbEntity
8
0
100
AcDbLine
10
26.11323356628418
20
35.871758460998535
30
0
11
26.11323356628418
21
39.080491065979004
31
0
0
LINE
5
520
100
AcDbEntity
8
0
100
AcDbLine
10
26.11323356628418
20
39.080491065979004
30
0
11
28.012278079986572
21
39.080491065979004
31
0
0
SPLINE
5
521
100
AcDbEntity
8
0
100
AcDbSpline
70
0
71
2
72
6
73
3
74
0
42
0.000000001
43
0.0000000001
44
0.0000000001
40
0
40
0
40
0
40
1
40
1
40
1
10
28.012278079986572
20
39.080491065979004
30
0
10
28.536152839660645
20
39.080491065979004
30
0
10
28.536152839660645
20
39.604363441467285
30
0
0
LINE
5
522
100
AcDbEntity
8
0
100
AcDbLine
10
28.536152839660645
20
39.604363441467285
30
0
11
28.536152839660645
21
40.488400459289551
31
0
0
LINE
5
523
100
AcDbEntity
8
0
100
AcDbLine
10
28.536152839660645
20
40.488400459289551
30
0
11
27.91405200958252
21
40.65211296081543
31
0
0
LINE
5
524
100
AcDbEntity
8
0
100
AcDbLine
10
27.91405200958252
20
40.65211296081543
30
0
11
27.91405200958252
21
39.866299629211426
31
0
0
SPLINE
5
525
100
AcDbEntity
8
0
100
AcDbSpline
70
0
71
2
72
6
73
3
74
0
42
0.000000001
43
0.0000000001
44
0.0000000001
40
0
40
0
40
0
40
1
40
1
40
1
10
27.91405200958252
20
39.866299629211426
30
0
10
27.91405200958252
20
39.735331535339355
30
0
10
27.783082723617554
20
39.735331535339355
30
0
0
LINE
5
526
100
AcDbEntity
8
0
100
AcDbLine
10
27.783082723617554
20
39.735331535339355
30
0
11
26.11323356628418
21
39.735331535339355
31
0
0
LINE
5
527
100
AcDbEntity
8
0
100
AcDbLine
10
26.11323356628418
20
39.735331535339355
30
0
11
26.11323356628418
21
43.14051628112793
31
0
0
LINE
5
528
100
AcDbEntity
8
0
100
AcDbLine
10
26.11323356628418
20
43.14051628112793
30
0
11
25.491132736206055
21
43.14051628112793
31
0
0
LINE
5
529
100
AcDbEntity
8
0
100
AcDbLine
10
25.491132736206055
20
43.14051628112793
30
0
11
25.491132736206055
21
39.735331535339355
31
0
0
LINE
5
530
100
AcDbEntity
8
0
100
AcDbLine
10
25.491132736206055
20
39.735331535339355
30
0
11
24.639835357666016
21
39.735331535339355
31
0
0
LINE
5
531
100
AcDbEntity
8
0
100
AcDbLine
10
24.639835357666016
20
39.735331535339355
30
0
11
24.705320596694946
21
39.40791130065918
31
0
0
LINE
5
532
100
AcDbEntity
8
0
100
AcDbLine
10
24.705320596694946
20
39.40791130065918
30
0
11
24.083218574523926
21
38.491129875183105
31
0
0
LINE
5
533
100
AcDbEntity
8
0
100
AcDbLine
10
24.083218574523926
20
38.491129875183105
30
0
11
24.083218574523926
21
41.634378433227539
31
0
0
LINE
5
534
100
AcDbEntity
8
0
100
AcDbLine
10
24.083218574523926
20
41.634378433227539
30
0
11
23.461117744445801
21
41.634378433227539
31
0
0
LINE
5
535
100
AcDbEntity
8
0
100
AcDbLine
10
23.461117744445801
20
41.634378433227539
30
0
11
23.461117744445801
21
37.836289405822754
31
0
0
LINE
5
536
100
AcDbEntity
8
0
100
AcDbLine
10
23.461117744445801
20
37.836289405822754
30
0
11
23.33014965057373
21
37.705321311950684
31
0
0
LINE
5
537
100
AcDbEntity
8
0
100
AcDbLine
10
23.33014965057373
20
37.705321311950684
30
0
11
23.88676643371582
21
37.148704528808594
31
0
0
LINE
5
538
100
AcDbEntity
8
0
100
AcDbLine
10
23.88676643371582
20
37.148704528808594
30
0
11
23.952250480651855
21
37.345156669616699
31
0
0
LINE
5
539
100
AcDbEntity
8
0
100
AcDbLine
10
23.952250480651855
20
37.345156669616699
30
0
11
25.065484046936035
21
39.080491065979004
31
0
0
LINE
5
540
100
AcDbEntity
8
0
100
AcDbLine
10
22.151432037353516
20
39.11323070526123
30
0
11
22.151432037353516
21
36.068210601806641
31
0
0
LINE
5
541
100
AcDbEntity
8
0
100
AcDbLine
10
22.151432037353516
20
36.068210601806641
30
0
11
23.788540363311768
21
36.068210601806641
31
0
0
LINE
5
542
100
AcDbEntity
8
0
100
AcDbLine
10
23.788540363311768
20
36.068210601806641
30
0
11
23.788540363311768
21
36.723055839538574
31
0
0
LINE
5
543
100
AcDbEntity
8
0
100
AcDbLine
10
23.788540363311768
20
36.723055839538574
30
0
11
22.773532867431641
21
36.723055839538574
31
0
0
LINE
5
544
100
AcDbEntity
8
0
100
AcDbLine
10
22.773532867431641
20
36.723055839538574
30
0
11
22.773532867431641
21
42.256479263305664
31
0
0
LINE
5
545
100
AcDbEntity
8
0
100
AcDbLine
10
22.773532867431641
20
42.256479263305664
30
0
11
23.854024410247803
21
42.256479263305664
31
0
0
LINE
5
546
100
AcDbEntity
8
0
100
AcDbLine
10
23.854024410247803
20
42.256479263305664
30
0
11
23.854024410247803
21
42.911324501037598
31
0
0
LINE
5
547
100
AcDbEntity
8
0
100
AcDbLine
10
23.854024410247803
20
42.911324501037598
30
0
11
22.151432037353516
21
42.911324501037598
31
0
0
LINE
5
548
100
AcDbEntity
8
0
100
AcDbLine
10
22.151432037353516
20
42.911324501037598
30
0
11
22.151432037353516
21
39.866299629211426
31
0
0
LINE
5
549
100
AcDbEntity
8
0
100
AcDbLine
10
22.151432037353516
20
39.866299629211426
30
0
11
21.26739501953125
21
39.866299629211426
31
0
0
LINE
5
550
100
AcDbEntity
8
0
100
AcDbLine
10
21.26739501953125
20
39.866299629211426
30
0
11
21.26739501953125
21
39.145975112915039
31
0
0
SPLINE
5
551
100
AcDbEntity
8
0
100
AcDbSpline
70
0
71
2
72
6
73
3
74
0
42
0.000000001
43
0.0000000001
44
0.0000000001
40
0
40
0
40
0
40
1
40
1
40
1
10
21.26739501953125
20
39.145975112915039
30
0
10
21.332879066467285
20
38.818554878234863
30
0
10
21.529331207275391
20
39.11323070526123
30
0
0
LINE
5
552
100
AcDbEntity
8
0
100
AcDbLine
10
21.529331207275391
20
39.11323070526123
30
0
11
22.151432037353516
21
39.11323070526123
31
0
0
LINE
5
553
100
AcDbEntity
8
0
100
AcDbLine
10
17.846124821048264
20
-14.620015199022454
30
0
11
23.510518722873215
21
-14.620015199022454
31
0
0
LINE
5
554
100
AcDbEntity
8
0
100
AcDbLine
10
23.510518722873215
20
-14.620015199022454
30
0
11
23.510518722873215
21
-13.866945679025811
31
0
0
LINE
5
555
100
AcDbEntity
8
0
100
AcDbLine
10
23.510518722873215
20
-13.866945679025811
30
0
11
19.155811720233444
21
-13.866945679025811
31
0
0
LINE
5
556
100
AcDbEntity
8
0
100
AcDbLine
10
19.155811720233444
20
-13.866945679025811
30
0
11
19.155811720233444
21
-12.229837949114007
31
0
0
LINE
5
557
100
AcDbEntity
8
0
100
AcDbLine
10
19.155811720233444
20
-12.229837949114007
30
0
11
18.631936960559372
21
-12.229837949114007
31
0
0
SPLINE
5
558
100
AcDbEntity
8
0
100
AcDbSpline
70
0
71
2
72
6
73
3
74
0
42
0.000000001
43
0.0000000001
44
0.0000000001
40
0
40
0
40
0
40
1
40
1
40
1
10
18.631936960559372
20
-12.229837949114007
30
0
10
18.66467898402739
20
-13.670492942171258
30
0
10
17.846124821048264
20
-14.09614103539483
30
0
0
LINE
5
559
100
AcDbEntity
8
0
100
AcDbLine
10
17.846124821048264
20
-14.09614103539483
30
0
11
17.846124821048264
21
-14.620015199022454
31
0
0
SPLINE
5
560
100
AcDbEntity
8
0
100
AcDbSpline
70
0
71
2
72
6
73
3
74
0
42
0.000000001
43
0.0000000001
44
0.0000000001
40
0
40
0
40
0
40
1
40
1
40
1
10
17.813383393626694
20
-19.629565055208367
30
0
10
17.813383393626694
20
-20.611829335527581
30
0
10
18.402742200236801
20
-21.201188142137688
30
0
0
SPLINE
5
561
100
AcDbEntity
8
0
100
AcDbSpline
70
0
71
2
72
6
73
3
74
0
42
0.000000001
43
0.0000000001
44
0.0000000001
40
0
40
0
40
0
40
1
40
1
40
1
10
18.402742200236801
20
-21.201188142137688
30
0
10
19.188553743701462
20
-21.987000281648797
30
0
10
20.727434807162766
20
-21.987000281648797
30
0
0
SPLINE
5
562
100
AcDbEntity
8
0
100
AcDbSpline
70
0
71
2
72
6
73
3
74
0
42
0.000000001
43
0.0000000001
44
0.0000000001
40
0
40
0
40
0
40
1
40
1
40
1
10
20.727434807162766
20
-21.987000281648797
30
0
10
22.200831823688034
20
-21.987000281648797
30
0
10
22.986643963199143
20
-21.201188142137688
30
0
0
SPLINE
5
563
100
AcDbEntity
8
0
100
AcDbSpline
70
0
71
2
72
6
73
3
74
0
42
0.000000001
43
0.0000000001
44
0.0000000001
40
0
40
0
40
0
40
1
40
1
40
1
10
22.986643963199143
20
-21.201188142137688
30
0
10
23.57600276980925
20
-20.611829335527581
30
0
10
23.57600276980925
20
-19.629565055208367
30
0
0
SPLINE
5
564
100
AcDbEntity
8
0
100
AcDbSpline
70
0
71
2
72
6
73
3
74
0
42
0.000000001
43
0.0000000001
44
0.0000000001
40
0
40
0
40
0
40
1
40
1
40
1
10
23.57600276980925
20
-19.629565055208367
30
0
10
23.57600276980925
20
-18.647300774889153
30
0
10
22.986643963199143
20
-18.057941968279046
30
0
0
SPLINE
5
565
100
AcDbEntity
8
0
100
AcDbSpline
70
0
71
2
72
6
73
3
74
0
42
0.000000001
43
0.0000000001
44
0.0000000001
40
0
40
0
40
0
40
1
40
1
40
1
10
22.986643963199143
20
-18.057941968279046
30
0
10
22.200831823688034
20
-17.272129828767937
30
0
10
20.727434807162766
20
-17.272129828767937
30
0
0
SPLINE
5
566
100
AcDbEntity
8
0
100
AcDbSpline
70
0
71
2
72
6
73
3
74
0
42
0.000000001
43
0.0000000001
44
0.0000000001
40
0
40
0
40
0
40
1
40
1
40
1
10
20.727434807162766
20
-17.272129828767937
30
0
10
19.188553743701462
20
-17.272129828767937
30
0
10
18.402742200236801
20
-18.057941968279046
30
0
0
SPLINE
5
567
100
AcDbEntity
8
0
100
AcDbSpline
70
0
71
2
72
6
73
3
74
0
42
0.000000001
43
0.0000000001
44
0.0000000001
40
0
40
0
40
0
40
1
40
1
40
1
10
18.402742200236801
20
-18.057941968279046
30
0
10
17.813383393626694
20
-18.647300774889153
30
0
10
17.813383393626694
20
-19.629565055208367
30
0
0
SPLINE
5
568
100
AcDbEntity
8
0
100
AcDbSpline
70
0
71
2
72
6
73
3
74
0
42
0.000000001
43
0.0000000001
44
0.0000000001
40
0
40
0
40
0
40
1
40
1
40
1
10
18.435484223704819
20
-19.629565055208367
30
0
10
18.435484223704819
20
-19.007464225130242
30
0
10
18.795648269992355
20
-18.647300774889153
30
0
0
SPLINE
5
569
100
AcDbEntity
8
0
100
AcDbSpline
70
0
71
2
72
6
73
3
74
0
42
0.000000001
43
0.0000000001
44
0.0000000001
40
0
40
0
40
0
40
1
40
1
40
1
10
18.795648269992355
20
-18.647300774889153
30
0
10
19.352265053134445
20
-18.090683991747063
30
0
10
20.727434807162766
20
-18.090683991747063
30
0
0
SPLINE
5
570
100
AcDbEntity
8
0
100
AcDbSpline
70
0
71
2
72
6
73
3
74
0
42
0.000000001
43
0.0000000001
44
0.0000000001
40
0
40
0
40
0
40
1
40
1
40
1
10
20.727434807162766
20
-18.090683991747063
30
0
10
22.037121706347946
20
-18.090683991747063
30
0
10
22.593738489490036
20
-18.647300774889153
30
0
0
SPLINE
5
571
100
AcDbEntity
8
0
100
AcDbSpline
70
0
71
2
72
6
73
3
74
0
42
0.000000001
43
0.0000000001
44
0.0000000001
40
0
40
0
40
0
40
1
40
1
40
1
10
22.593738489490036
20
-18.647300774889153
30
0
10
22.953901939731125
20
-19.007464225130242
30
0
10
22.953901939731125
20
-19.629565055208367
30
0
0
SPLINE
5
572
100
AcDbEntity
8
0
100
AcDbSpline
70
0
71
2
72
6
73
3
74
0
42
0.000000001
43
0.0000000001
44
0.0000000001
40
0
40
0
40
0
40
1
40
1
40
1
10
22.953901939731125
20
-19.629565055208367
30
0
10
22.953901939731125
20
-20.251665885286492
30
0
10
22.593738489490036
20
-20.611829335527581
30
0
0
SPLINE
5
573
100
AcDbEntity
8
0
100
AcDbSpline
70
0
71
2
72
6
73
3
74
0
42
0.000000001
43
0.0000000001
44
0.0000000001
40
0
40
0
40
0
40
1
40
1
40
1
10
22.593738489490036
20
-20.611829335527581
30
0
10
22.037121706347946
20
-21.168446118669671
30
0
10
20.694692783694748
20
-21.168446118669671
30
0
0
SPLINE
5
574
100
AcDbEntity
8
0
100
AcDbSpline
70
0
71
2
72
6
73
3
74
0
42
0.000000001
43
0.0000000001
44
0.0000000001
40
0
40
0
40
0
40
1
40
1
40
1
10
20.694692783694748
20
-21.168446118669671
30
0
10
19.352265053134445
20
-21.168446118669671
30
0
10
18.795648269992355
20
-20.611829335527581
30
0
0
SPLINE
5
575
100
AcDbEntity
8
0
100
AcDbSpline
70
0
71
2
72
6
73
3
74
0
42
0.000000001
43
0.0000000001
44
0.0000000001
40
0
40
0
40
0
40
1
40
1
40
1
10
18.795648269992355
20
-20.611829335527581
30
0
10
18.435484223704819
20
-20.251665885286492
30
0
10
18.435484223704819
20
-19.629565055208367
30
0
0
LINE
5
576
100
AcDbEntity
8
0
100
AcDbLine
10
20.138076000552658
20
-28.92833667500512
30
0
11
22.790190630298142
21
-28.79736858113305
31
0
0
SPLINE
5
577
100
AcDbEntity
8
0
100
AcDbSpline
70
0
71
2
72
6
73
3
74
0
42
0.000000001
43
0.0000000001
44
0.0000000001
40
0
40
0
40
0
40
1
40
1
40
1
10
22.790190630298142
20
-28.79736858113305
30
0
10
24.165361576419357
20
-28.731884534197015
30
0
10
24.165361576419357
20
-27.847847516374749
30
0
0
LINE
5
578
100
AcDbEntity
8
0
100
AcDbLine
10
24.165361576419357
20
-27.847847516374749
30
0
11
24.165361576419357
21
-26.86558204396264
31
0
0
LINE
5
579
100
AcDbEntity
8
0
100
AcDbLine
10
24.165361576419357
20
-26.86558204396264
30
0
11
23.445033483844284
21
-26.767353589372796
31
0
0
LINE
5
580
100
AcDbEntity
8
0
100
AcDbLine
10
23.445033483844284
20
-26.767353589372796
30
0
11
23.445033483844284
21
-27.585908944444817
31
0
0
SPLINE
5
581
100
AcDbEntity
8
0
100
AcDbSpline
70
0
71
2
72
6
73
3
74
0
42
0.000000001
43
0.0000000001
44
0.0000000001
40
0
40
0
40
0
40
1
40
1
40
1
10
23.445033483844284
20
-27.585908944444817
30
0
10
23.445033483844284
20
-28.011557633714837
30
0
10
22.88841789279509
20
-28.044299657182854
30
0
0
LINE
5
582
100
AcDbEntity
8
0
100
AcDbLine
10
22.88841789279509
20
-28.044299657182854
30
0
11
20.760176830630783
21
-28.175267751054925
31
0
0
LINE
5
583
100
AcDbEntity
8
0
100
AcDbLine
10
20.760176830630783
20
-28.175267751054925
30
0
11
20.760176830630783
21
-26.374449307756585
31
0
0
LINE
5
584
100
AcDbEntity
8
0
100
AcDbLine
10
20.760176830630783
20
-26.374449307756585
30
0
11
21.022114210467819
21
-26.341707284288567
31
0
0
SPLINE
5
585
100
AcDbEntity
8
0
100
AcDbSpline
70
0
71
2
72
6
73
3
74
0
42
0.000000001
43
0.0000000001
44
0.0000000001
40
0
40
0
40
0
40
1
40
1
40
1
10
21.022114210467819
20
-26.341707284288567
30
0
10
22.822932653766159
20
-26.112513120012444
30
0
10
24.329071693759445
20
-23.755076701479119
30
0
0
LINE
5
586
100
AcDbEntity
8
0
100
AcDbLine
10
24.329071693759445
20
-23.755076701479119
30
0
11
23.70697086368132
21
-23.263943965273064
31
0
0
SPLINE
5
587
100
AcDbEntity
8
0
100
AcDbSpline
70
0
71
2
72
6
73
3
74
0
42
0.000000001
43
0.0000000001
44
0.0000000001
40
0
40
0
40
0
40
1
40
1
40
1
10
23.70697086368132
20
-23.263943965273064
30
0
10
22.495511226993088
20
-25.392183835344476
30
0
10
21.153083496432785
20
-25.62138038380639
30
0
0
LINE
5
588
100
AcDbEntity
8
0
100
AcDbLine
10
21.153083496432785
20
-25.62138038380639
30
0
11
20.760176830630783
21
-25.686864430742425
31
0
0
LINE
5
589
100
AcDbEntity
8
0
100
AcDbLine
10
20.760176830630783
20
-25.686864430742425
30
0
11
20.760176830630783
21
-24.442661578493279
31
0
0
LINE
5
590
100
AcDbEntity
8
0
100
AcDbLine
10
20.760176830630783
20
-24.442661578493279
30
0
11
20.138076000552658
21
-24.442661578493279
31
0
0
LINE
5
591
100
AcDbEntity
8
0
100
AcDbLine
10
20.138076000552658
20
-24.442661578493279
30
0
11
20.138076000552658
21
-28.92833667500512
31
0
0
SPLINE
5
592
100
AcDbEntity
8
0
100
AcDbSpline
70
0
71
2
72
6
73
3
74
0
42
0.000000001
43
0.0000000001
44
0.0000000001
40
0
40
0
40
0
40
1
40
1
40
1
10
17.551446013789658
20
-25.981542641954583
30
0
10
19.254037790637497
20
-25.19573169453637
30
0
10
20.66195076022673
20
-23.460397298174065
30
0
0
LINE
5
593
100
AcDbEntity
8
0
100
AcDbLine
10
20.66195076022673
20
-23.460397298174065
30
0
11
20.039849930148605
21
-22.936522538499993
31
0
0
SPLINE
5
594
100
AcDbEntity
8
0
100
AcDbSpline
70
0
71
2
72
6
73
3
74
0
42
0.000000001
43
0.0000000001
44
0.0000000001
40
0
40
0
40
0
40
1
40
1
40
1
10
20.039849930148605
20
-22.936522538499993
30
0
10
18.861132316928391
20
-24.63911491139428
30
0
10
16.994829230647568
20
-25.424925858812493
30
0
0
LINE
5
595
100
AcDbEntity
8
0
100
AcDbLine
10
16.994829230647568
20
-25.424925858812493
30
0
11
17.387735300403122
21
-26.047026688890618
31
0
0
SPLINE
5
596
100
AcDbEntity
8
0
100
AcDbSpline
70
0
71
2
72
6
73
3
74
0
42
0.000000001
43
0.0000000001
44
0.0000000001
40
0
40
0
40
0
40
1
40
1
40
1
10
17.387735300403122
20
-26.047026688890618
30
0
10
17.51870399032164
20
-26.243481213884515
30
0
10
17.551446013789658
20
-25.981542641954583
30
0
0
SPLINE
5
597
100
AcDbEntity
8
0
100
AcDbSpline
70
0
71
2
72
6
73
3
74
0
42
0.000000001
43
0.0000000001
44
0.0000000001
40
0
40
0
40
0
40
1
40
1
40
1
10
20.66195076022673
20
-30.0415702412893
30
0
10
19.614202432971481
20
-28.24075179799096
30
0
10
17.224024587016586
20
-27.389454419450921
30
0
0
LINE
5
598
100
AcDbEntity
8
0
100
AcDbLine
10
17.224024587016586
20
-27.389454419450921
30
0
11
16.96208720717955
21
-28.011557633714837
31
0
0
SPLINE
5
599
100
AcDbEntity
8
0
100
AcDbSpline
70
0
71
2
72
6
73
3
74
0
42
0.000000001
43
0.0000000001
44
0.0000000001
40
0
40
0
40
0
40
1
40
1
40
1
10
16.96208720717955
20
-28.011557633714837
30
0
10
19.057585053782944
20
-28.79736858113305
30
0
10
19.97436588321257
20
-30.532702977495354
30
0
0
LINE
5
600
100
AcDbEntity
8
0
100
AcDbLine
10
19.97436588321257
20
-30.532702977495354
30
0
11
20.66195076022673
21
-30.0415702412893
31
0
0
SPLINE
5
601
100
AcDbEntity
8
0
100
AcDbSpline
70
0
71
2
72
6
73
3
74
0
42
0.000000001
43
0.0000000001
44
0.0000000001
40
0
40
0
40
0
40
1
40
1
40
1
10
23.641486816745285
20
-37.670492703752679
30
0
10
23.641486816745285
20
-37.80146318181054
30
0
10
23.510518722873215
20
-37.80146318181054
30
0
0
LINE
5
602
100
AcDbEntity
8
0
100
AcDbLine
10
23.510518722873215
20
-37.80146318181054
30
0
11
19.745170526843552
21
-37.80146318181054
31
0
0
LINE
5
603
100
AcDbEntity
8
0
100
AcDbLine
10
19.745170526843552
20
-37.80146318181054
30
0
11
19.745170526843552
21
-36.622745568590325
31
0
0
LINE
5
604
100
AcDbEntity
8
0
100
AcDbLine
10
19.745170526843552
20
-36.622745568590325
30
0
11
19.745170526843552
21
-35.44402795537011
31
0
0
LINE
5
605
100
AcDbEntity
8
0
100
AcDbLine
10
19.745170526843552
20
-35.44402795537011
30
0
11
17.125797920566086
21
-35.44402795537011
31
0
0
LINE
5
606
100
AcDbEntity
8
0
100
AcDbLine
10
17.125797920566086
20
-35.44402795537011
30
0
11
17.125797920566086
21
-38.456306035356683
31
0
0
LINE
5
607
100
AcDbEntity
8
0
100
AcDbLine
10
17.125797920566086
20
-38.456306035356683
30
0
11
23.739712887149338
21
-38.456306035356683
31
0
0
SPLINE
5
608
100
AcDbEntity
8
0
100
AcDbSpline
70
0
71
2
72
6
73
3
74
0
42
0.000000001
43
0.0000000001
44
0.0000000001
40
0
40
0
40
0
40
1
40
1
40
1
10
23.739712887149338
20
-38.456306035356683
30
0
10
24.26358764682341
20
-38.456306035356683
30
0
10
24.26358764682341
20
-37.93243127568261
30
0
0
LINE
5
609
100
AcDbEntity
8
0
100
AcDbLine
10
24.26358764682341
20
-37.93243127568261
30
0
11
24.26358764682341
21
-37.277588422136468
31
0
0
LINE
5
610
100
AcDbEntity
8
0
100
AcDbLine
10
24.26358764682341
20
-37.277588422136468
30
0
11
23.641486816745285
21
-37.212104375200433
31
0
0
LINE
5
611
100
AcDbEntity
8
0
100
AcDbLine
10
23.641486816745285
20
-37.212104375200433
30
0
11
23.641486816745285
21
-37.670492703752679
31
0
0
LINE
5
612
100
AcDbEntity
8
0
100
AcDbLine
10
22.069863729815964
20
-35.935158307390374
30
0
11
22.069863729815964
21
-34.199823911028069
31
0
0
LINE
5
613
100
AcDbEntity
8
0
100
AcDbLine
10
22.069863729815964
20
-34.199823911028069
30
0
11
22.724706583362106
21
-34.199823911028069
31
0
0
LINE
5
614
100
AcDbEntity
8
0
100
AcDbLine
10
22.724706583362106
20
-34.199823911028069
30
0
11
22.724706583362106
21
-35.935158307390374
31
0
0
LINE
5
615
100
AcDbEntity
8
0
100
AcDbLine
10
22.724706583362106
20
-35.935158307390374
30
0
11
22.069863729815964
21
-35.935158307390374
31
0
0
LINE
5
616
100
AcDbEntity
8
0
100
AcDbLine
10
20.825662069659714
20
-35.935158307390374
30
0
11
20.825662069659714
21
-34.199823911028069
31
0
0
LINE
5
617
100
AcDbEntity
8
0
100
AcDbLine
10
20.825662069659714
20
-34.199823911028069
30
0
11
21.545988970141892
21
-34.199823911028069
31
0
0
LINE
5
618
100
AcDbEntity
8
0
100
AcDbLine
10
21.545988970141892
20
-34.199823911028069
30
0
11
21.545988970141892
21
-35.935158307390374
31
0
0
LINE
5
619
100
AcDbEntity
8
0
100
AcDbLine
10
21.545988970141892
20
-35.935158307390374
30
0
11
20.825662069659714
21
-35.935158307390374
31
0
0
LINE
5
620
100
AcDbEntity
8
0
100
AcDbLine
10
20.301787309985642
20
-36.590003545122308
30
0
11
23.510518722873215
21
-36.590003545122308
31
0
0
LINE
5
621
100
AcDbEntity
8
0
100
AcDbLine
10
23.510518722873215
20
-36.590003545122308
30
0
11
23.510518722873215
21
-35.935158307390374
31
0
0
LINE
5
622
100
AcDbEntity
8
0
100
AcDbLine
10
23.510518722873215
20
-35.935158307390374
30
0
11
23.248581343036179
21
-35.935158307390374
31
0
0
LINE
5
623
100
AcDbEntity
8
0
100
AcDbLine
10
23.248581343036179
20
-35.935158307390374
30
0
11
23.248581343036179
21
-34.199823911028069
31
0
0
LINE
5
624
100
AcDbEntity
8
0
100
AcDbLine
10
23.248581343036179
20
-34.199823911028069
30
0
11
23.772456102710251
21
-34.199823911028069
31
0
0
LINE
5
625
100
AcDbEntity
8
0
100
AcDbLine
10
23.772456102710251
20
-34.199823911028069
30
0
11
23.772456102710251
21
-33.544981057481927
31
0
0
LINE
5
626
100
AcDbEntity
8
0
100
AcDbLine
10
23.772456102710251
20
-33.544981057481927
30
0
11
20.301787309985642
21
-33.544981057481927
31
0
0
LINE
5
627
100
AcDbEntity
8
0
100
AcDbLine
10
20.301787309985642
20
-33.544981057481927
30
0
11
20.301787309985642
21
-36.590003545122308
31
0
0
LINE
5
628
100
AcDbEntity
8
0
100
AcDbLine
10
18.173546843867783
20
-37.80146318181054
30
0
11
17.649672680240158
21
-37.80146318181054
31
0
0
LINE
5
629
100
AcDbEntity
8
0
100
AcDbLine
10
17.649672680240158
20
-37.80146318181054
30
0
11
17.649672680240158
21
-36.098870808916253
31
0
0
LINE
5
630
100
AcDbEntity
8
0
100
AcDbLine
10
17.649672680240158
20
-36.098870808916253
30
0
11
18.173546843867783
21
-36.098870808916253
31
0
0
LINE
5
631
100
AcDbEntity
8
0
100
AcDbLine
10
18.173546843867783
20
-36.098870808916253
30
0
11
18.173546843867783
21
-37.80146318181054
31
0
0
LINE
5
632
100
AcDbEntity
8
0
100
AcDbLine
10
18.697421007495407
20
-37.80146318181054
30
0
11
18.697421007495407
21
-36.098870808916253
31
0
0
LINE
5
633
100
AcDbEntity
8
0
100
AcDbLine
10
18.697421007495407
20
-36.098870808916253
30
0
11
19.22129576716948
21
-36.098870808916253
31
0
0
LINE
5
634
100
AcDbEntity
8
0
100
AcDbLine
10
19.22129576716948
20
-36.098870808916253
30
0
11
19.22129576716948
21
-37.80146318181054
31
0
0
LINE
5
635
100
AcDbEntity
8
0
100
AcDbLine
10
19.22129576716948
20
-37.80146318181054
30
0
11
18.697421007495407
21
-37.80146318181054
31
0
0
LINE
5
636
100
AcDbEntity
8
0
100
AcDbLine
10
18.697421007495407
20
-33.937887723283929
30
0
11
18.697421007495407
21
-32.268037373857659
31
0
0
LINE
5
637
100
AcDbEntity
8
0
100
AcDbLine
10
18.697421007495407
20
-32.268037373857659
30
0
11
19.22129576716948
21
-32.268037373857659
31
0
0
LINE
5
638
100
AcDbEntity
8
0
100
AcDbLine
10
19.22129576716948
20
-32.268037373857659
30
0
11
19.22129576716948
21
-33.937887723283929
31
0
0
LINE
5
639
100
AcDbEntity
8
0
100
AcDbLine
10
19.22129576716948
20
-33.937887723283929
30
0
11
18.697421007495407
21
-33.937887723283929
31
0
0
LINE
5
640
100
AcDbEntity
8
0
100
AcDbLine
10
18.173546843867783
20
-33.937887723283929
30
0
11
17.649672680240158
21
-33.937887723283929
31
0
0
LINE
5
641
100
AcDbEntity
8
0
100
AcDbLine
10
17.649672680240158
20
-33.937887723283929
30
0
11
17.649672680240158
21
-32.268037373857659
31
0
0
LINE
5
642
100
AcDbEntity
8
0
100
AcDbLine
10
17.649672680240158
20
-32.268037373857659
30
0
11
18.173546843867783
21
-32.268037373857659
31
0
0
LINE
5
643
100
AcDbEntity
8
0
100
AcDbLine
10
18.173546843867783
20
-32.268037373857659
30
0
11
18.173546843867783
21
-33.937887723283929
31
0
0
LINE
5
644
100
AcDbEntity
8
0
100
AcDbLine
10
19.745170526843552
20
-34.592730576830071
30
0
11
19.745170526843552
21
-32.268037373857659
31
0
0
LINE
5
645
100
AcDbEntity
8
0
100
AcDbLine
10
19.745170526843552
20
-32.268037373857659
30
0
11
24.296329670291428
21
-32.268037373857659
31
0
0
LINE
5
646
100
AcDbEntity
8
0
100
AcDbLine
10
24.296329670291428
20
-32.268037373857659
30
0
11
24.296329670291428
21
-31.613194520311517
31
0
0
LINE
5
647
100
AcDbEntity
8
0
100
AcDbLine
10
24.296329670291428
20
-31.613194520311517
30
0
11
17.125797920566086
21
-31.613194520311517
31
0
0
LINE
5
648
100
AcDbEntity
8
0
100
AcDbLine
10
17.125797920566086
20
-31.613194520311517
30
0
11
17.125797920566086
21
-34.592730576830071
31
0
0
LINE
5
649
100
AcDbEntity
8
0
100
AcDbLine
10
17.125797920566086
20
-34.592730576830071
30
0
11
19.745170526843552
21
-34.592730576830071
31
0
0
SPLINE
5
650
100
AcDbEntity
8
0
100
AcDbSpline
70
0
71
2
72
6
73
3
74
0
42
0.000000001
43
0.0000000001
44
0.0000000001
40
0
40
0
40
0
40
1
40
1
40
1
10
31.073955946307663
20
-25.081133420305413
30
0
10
30.15717690501738
20
-23.836931760149163
30
0
10
28.749263935428147
20
-23.247572953539056
30
0
0
SPLINE
5
651
100
AcDbEntity
8
0
100
AcDbSpline
70
0
71
2
72
6
73
3
74
0
42
0.000000001
43
0.0000000001
44
0.0000000001
40
0
40
0
40
0
40
1
40
1
40
1
10
28.749263935428147
20
-23.247572953539056
30
0
10
30.189918928485397
20
-22.887408311205071
30
0
10
31.008471899371628
20
-21.643207843141717
30
0
0
LINE
5
652
100
AcDbEntity
8
0
100
AcDbLine
10
31.008471899371628
20
-21.643207843141717
30
0
11
30.386371069293503
21
-21.250301177339715
31
0
0
LINE
5
653
100
AcDbEntity
8
0
100
AcDbLine
10
30.386371069293503
20
-21.250301177339715
30
0
11
30.189918928485397
21
-21.544980580644769
31
0
0
SPLINE
5
654
100
AcDbEntity
8
0
100
AcDbSpline
70
0
71
2
72
6
73
3
74
0
42
0.000000001
43
0.0000000001
44
0.0000000001
40
0
40
0
40
0
40
1
40
1
40
1
10
30.189918928485397
20
-21.544980580644769
30
0
10
30.550081186633591
20
-19.285771424608392
30
0
10
30.681051664691452
20
-18.205281073885125
30
0
0
SPLINE
5
655
100
AcDbEntity
8
0
100
AcDbSpline
70
0
71
2
72
6
73
3
74
0
42
0.000000001
43
0.0000000001
44
0.0000000001
40
0
40
0
40
0
40
1
40
1
40
1
10
30.681051664691452
20
-18.205281073885125
30
0
10
30.910245828967575
20
-18.172539050417107
30
0
10
30.779277735095505
20
-18.041569764452142
30
0
0
LINE
5
656
100
AcDbEntity
8
0
100
AcDbLine
10
30.779277735095505
20
-18.041569764452142
30
0
11
30.02620881114531
21
-17.910601670580071
31
0
0
LINE
5
657
100
AcDbEntity
8
0
100
AcDbLine
10
30.02620881114531
20
-17.910601670580071
30
0
11
29.862496309619431
21
-19.711420113878411
31
0
0
LINE
5
658
100
AcDbEntity
8
0
100
AcDbLine
10
29.862496309619431
20
-19.711420113878411
30
0
11
29.207653456073288
21
-19.711420113878411
31
0
0
LINE
5
659
100
AcDbEntity
8
0
100
AcDbLine
10
29.207653456073288
20
-19.711420113878411
30
0
11
29.207653456073288
21
-18.467218453722161
31
0
0
LINE
5
660
100
AcDbEntity
8
0
100
AcDbLine
10
29.207653456073288
20
-18.467218453722161
30
0
11
28.683778696399216
21
-18.467218453722161
31
0
0
LINE
5
661
100
AcDbEntity
8
0
100
AcDbLine
10
28.683778696399216
20
-18.467218453722161
30
0
11
28.683778696399216
21
-19.711420113878411
31
0
0
LINE
5
662
100
AcDbEntity
8
0
100
AcDbLine
10
28.683778696399216
20
-19.711420113878411
30
0
11
28.127163105350022
21
-19.711420113878411
31
0
0
LINE
5
663
100
AcDbEntity
8
0
100
AcDbLine
10
28.127163105350022
20
-19.711420113878411
30
0
11
28.127163105350022
21
-18.991093213396233
31
0
0
LINE
5
664
100
AcDbEntity
8
0
100
AcDbLine
10
28.127163105350022
20
-18.991093213396233
30
0
11
28.127163105350022
21
-18.303507144289178
31
0
0
LINE
5
665
100
AcDbEntity
8
0
100
AcDbLine
10
28.127163105350022
20
-18.303507144289178
30
0
11
25.475047283511643
21
-18.303507144289178
31
0
0
LINE
5
666
100
AcDbEntity
8
0
100
AcDbLine
10
25.475047283511643
20
-18.303507144289178
30
0
11
25.475047283511643
21
-21.675949866609734
31
0
0
LINE
5
667
100
AcDbEntity
8
0
100
AcDbLine
10
25.475047283511643
20
-21.675949866609734
30
0
11
28.127163105350022
21
-21.675949866609734
31
0
0
LINE
5
668
100
AcDbEntity
8
0
100
AcDbLine
10
28.127163105350022
20
-21.675949866609734
30
0
11
28.127163105350022
21
-20.268036897020501
31
0
0
LINE
5
669
100
AcDbEntity
8
0
100
AcDbLine
10
28.127163105350022
20
-20.268036897020501
30
0
11
28.683778696399216
21
-20.268036897020501
31
0
0
LINE
5
670
100
AcDbEntity
8
0
100
AcDbLine
10
28.683778696399216
20
-20.268036897020501
30
0
11
28.683778696399216
21
-21.512238557176751
31
0
0
LINE
5
671
100
AcDbEntity
8
0
100
AcDbLine
10
28.683778696399216
20
-21.512238557176751
30
0
11
29.207653456073288
21
-21.512238557176751
31
0
0
LINE
5
672
100
AcDbEntity
8
0
100
AcDbLine
10
29.207653456073288
20
-21.512238557176751
30
0
11
29.207653456073288
21
-20.268036897020501
31
0
0
LINE
5
673
100
AcDbEntity
8
0
100
AcDbLine
10
29.207653456073288
20
-20.268036897020501
30
0
11
29.797012262683396
21
-20.268036897020501
31
0
0
LINE
5
674
100
AcDbEntity
8
0
100
AcDbLine
10
29.797012262683396
20
-20.268036897020501
30
0
11
29.633302145343308
21
-21.675949866609734
31
0
0
LINE
5
675
100
AcDbEntity
8
0
100
AcDbLine
10
29.633302145343308
20
-21.675949866609734
30
0
11
30.058950834613327
21
-21.741433913545769
31
0
0
SPLINE
5
676
100
AcDbEntity
8
0
100
AcDbSpline
70
0
71
2
72
6
73
3
74
0
42
0.000000001
43
0.0000000001
44
0.0000000001
40
0
40
0
40
0
40
1
40
1
40
1
10
30.058950834613327
20
-21.741433913545769
30
0
10
29.338622742038254
20
-22.625472123460931
30
0
10
27.603288345675949
20
-22.756440217333001
30
0
0
LINE
5
677
100
AcDbEntity
8
0
100
AcDbLine
10
27.603288345675949
20
-22.756440217333001
30
0
11
27.603288345675949
21
-21.93788724644677
31
0
0
LINE
5
678
100
AcDbEntity
8
0
100
AcDbLine
10
27.603288345675949
20
-21.93788724644677
30
0
11
26.981186323504929
21
-21.93788724644677
31
0
0
LINE
5
679
100
AcDbEntity
8
0
100
AcDbLine
10
26.981186323504929
20
-21.93788724644677
30
0
11
26.981186323504929
21
-22.756440217333001
31
0
0
LINE
5
680
100
AcDbEntity
8
0
100
AcDbLine
10
26.981186323504929
20
-22.756440217333001
30
0
11
25.344079189639572
21
-22.756440217333001
31
0
0
LINE
5
681
100
AcDbEntity
8
0
100
AcDbLine
10
25.344079189639572
20
-22.756440217333001
30
0
11
25.344079189639572
21
-23.378541047411126
31
0
0
SPLINE
5
682
100
AcDbEntity
8
0
100
AcDbSpline
70
0
71
2
72
6
73
3
74
0
42
0.000000001
43
0.0000000001
44
0.0000000001
40
0
40
0
40
0
40
1
40
1
40
1
10
25.344079189639572
20
-23.378541047411126
30
0
10
25.37682121310759
20
-23.640478427248162
30
0
10
25.540532522540573
20
-23.411283070879144
30
0
0
LINE
5
683
100
AcDbEntity
8
0
100
AcDbLine
10
25.540532522540573
20
-23.411283070879144
30
0
11
26.981186323504929
21
-23.411283070879144
31
0
0
LINE
5
684
100
AcDbEntity
8
0
100
AcDbLine
10
26.981186323504929
20
-23.411283070879144
30
0
11
26.981186323504929
21
-25.146617467241448
31
0
0
LINE
5
685
100
AcDbEntity
8
0
100
AcDbLine
10
26.981186323504929
20
-25.146617467241448
30
0
11
27.603288345675949
21
-25.146617467241448
31
0
0
LINE
5
686
100
AcDbEntity
8
0
100
AcDbLine
10
27.603288345675949
20
-25.146617467241448
30
0
11
27.603288345675949
21
-23.509510333376092
31
0
0
SPLINE
5
687
100
AcDbEntity
8
0
100
AcDbSpline
70
0
71
2
72
6
73
3
74
0
42
0.000000001
43
0.0000000001
44
0.0000000001
40
0
40
0
40
0
40
1
40
1
40
1
10
27.603288345675949
20
-23.509510333376092
30
0
10
29.076685362201218
20
-23.73870568974511
30
0
10
30.353629045825485
20
-25.474040086107415
30
0
0
LINE
5
688
100
AcDbEntity
8
0
100
AcDbLine
10
30.353629045825485
20
-25.474040086107415
30
0
11
31.073955946307663
21
-25.081133420305413
31
0
0
SPLINE
5
689
100
AcDbEntity
8
0
100
AcDbSpline
70
0
71
2
72
6
73
3
74
0
42
0.000000001
43
0.0000000001
44
0.0000000001
40
0
40
0
40
0
40
1
40
1
40
1
10
30.97572987590361
20
-23.869673783617181
30
0
10
31.499604635577683
20
-24.557258660631341
30
0
10
32.285415582995896
20
-25.081133420305413
30
0
0
LINE
5
690
100
AcDbEntity
8
0
100
AcDbLine
10
32.285415582995896
20
-25.081133420305413
30
0
11
32.678322248797897
21
-24.459032590227288
31
0
0
SPLINE
5
691
100
AcDbEntity
8
0
100
AcDbSpline
70
0
71
2
72
6
73
3
74
0
42
0.000000001
43
0.0000000001
44
0.0000000001
40
0
40
0
40
0
40
1
40
1
40
1
10
32.678322248797897
20
-24.459032590227288
30
0
10
31.990737371783737
20
-24.033383900957269
30
0
10
31.303152494769577
20
-23.345799023943108
30
0
0
LINE
5
692
100
AcDbEntity
8
0
100
AcDbLine
10
31.303152494769577
20
-23.345799023943108
30
0
11
30.97572987590361
21
-23.869673783617181
31
0
0
SPLINE
5
693
100
AcDbEntity
8
0
100
AcDbSpline
70
0
71
2
72
6
73
3
74
0
42
0.000000001
43
0.0000000001
44
0.0000000001
40
0
40
0
40
0
40
1
40
1
40
1
10
32.612838201861862
20
-22.199823434190911
30
0
10
31.5323466590457
20
-21.905145222978753
30
0
10
31.204926424365524
20
-21.708691890077752
30
0
0
LINE
5
694
100
AcDbEntity
8
0
100
AcDbLine
10
31.204926424365524
20
-21.708691890077752
30
0
11
31.041213922839646
21
-22.330792720155877
31
0
0
SPLINE
5
695
100
AcDbEntity
8
0
100
AcDbSpline
70
0
71
2
72
6
73
3
74
0
42
0.000000001
43
0.0000000001
44
0.0000000001
40
0
40
0
40
0
40
1
40
1
40
1
10
31.041213922839646
20
-22.330792720155877
30
0
10
31.630572729449753
20
-22.789182240801019
30
0
10
32.449128084521774
20
-22.920151526765984
30
0
0
LINE
5
696
100
AcDbEntity
8
0
100
AcDbLine
10
32.449128084521774
20
-22.920151526765984
30
0
11
32.612838201861862
21
-22.199823434190911
31
0
0
SPLINE
5
697
100
AcDbEntity
8
0
100
AcDbSpline
70
0
71
2
72
6
73
3
74
0
42
0.000000001
43
0.0000000001
44
0.0000000001
40
0
40
0
40
0
40
1
40
1
40
1
10
25.606016569476608
20
-24.131611163454217
30
0
10
25.900694780688767
20
-24.491774613695306
30
0
10
26.260859423022751
20
-24.753711993532342
30
0
0
LINE
5
698
100
AcDbEntity
8
0
100
AcDbLine
10
26.260859423022751
20
-24.753711993532342
30
0
11
26.719250135760788
21
-24.2953224728872
31
0
0
SPLINE
5
699
100
AcDbEntity
8
0
100
AcDbSpline
70
0
71
2
72
6
73
3
74
0
42
0.000000001
43
0.0000000001
44
0.0000000001
40
0
40
0
40
0
40
1
40
1
40
1
10
26.719250135760788
20
-24.2953224728872
30
0
10
26.260859423022751
20
-24.000641877489251
30
0
10
26.031664066653732
20
-23.705963666277093
30
0
0
LINE
5
700
100
AcDbEntity
8
0
100
AcDbLine
10
26.031664066653732
20
-23.705963666277093
30
0
11
25.606016569476608
21
-24.131611163454217
31
0
0
SPLINE
5
701
100
AcDbEntity
8
0
100
AcDbSpline
70
0
71
2
72
6
73
3
74
0
42
0.000000001
43
0.0000000001
44
0.0000000001
40
0
40
0
40
0
40
1
40
1
40
1
10
31.106697969775681
20
-20.824653680162591
30
0
10
31.696056776385788
20
-21.021105820970696
30
0
10
32.612838201861862
20
-20.988363797502679
30
0
0
LINE
5
702
100
AcDbEntity
8
0
100
AcDbLine
10
32.612838201861862
20
-20.988363797502679
30
0
11
32.64558022532988
21
-20.268036897020501
31
0
0
SPLINE
5
703
100
AcDbEntity
8
0
100
AcDbSpline
70
0
71
2
72
6
73
3
74
0
42
0.000000001
43
0.0000000001
44
0.0000000001
40
0
40
0
40
0
40
1
40
1
40
1
10
32.64558022532988
20
-20.268036897020501
30
0
10
31.925253324847702
20
-20.268036897020501
30
0
10
31.172184400897507
20
-20.169810826616448
30
0
0
LINE
5
704
100
AcDbEntity
8
0
100
AcDbLine
10
31.172184400897507
20
-20.169810826616448
30
0
11
31.106697969775681
21
-20.824653680162591
31
0
0
LINE
5
705
100
AcDbEntity
8
0
100
AcDbLine
10
25.998922043185715
20
-19.711420113878411
30
0
11
25.998922043185715
21
-18.860123927431268
31
0
0
LINE
5
706
100
AcDbEntity
8
0
100
AcDbLine
10
25.998922043185715
20
-18.860123927431268
30
0
11
26.522796802859787
21
-18.860123927431268
31
0
0
LINE
5
707
100
AcDbEntity
8
0
100
AcDbLine
10
26.522796802859787
20
-18.860123927431268
30
0
11
26.522796802859787
21
-19.711420113878411
31
0
0
LINE
5
708
100
AcDbEntity
8
0
100
AcDbLine
10
26.522796802859787
20
-19.711420113878411
30
0
11
25.998922043185715
21
-19.711420113878411
31
0
0
LINE
5
709
100
AcDbEntity
8
0
100
AcDbLine
10
26.522796802859787
20
-21.119333083467644
30
0
11
25.998922043185715
21
-21.119333083467644
31
0
0
LINE
5
710
100
AcDbEntity
8
0
100
AcDbLine
10
25.998922043185715
20
-21.119333083467644
30
0
11
25.998922043185715
21
-20.268036897020501
31
0
0
LINE
5
711
100
AcDbEntity
8
0
100
AcDbLine
10
25.998922043185715
20
-20.268036897020501
30
0
11
26.522796802859787
21
-20.268036897020501
31
0
0
LINE
5
712
100
AcDbEntity
8
0
100
AcDbLine
10
26.522796802859787
20
-20.268036897020501
30
0
11
26.522796802859787
21
-21.119333083467644
31
0
0
LINE
5
713
100
AcDbEntity
8
0
100
AcDbLine
10
27.603288345675949
20
-19.711420113878411
30
0
11
27.046671562533859
21
-19.711420113878411
31
0
0
LINE
5
714
100
AcDbEntity
8
0
100
AcDbLine
10
27.046671562533859
20
-19.711420113878411
30
0
11
27.046671562533859
21
-18.860123927431268
31
0
0
LINE
5
715
100
AcDbEntity
8
0
100
AcDbLine
10
27.046671562533859
20
-18.860123927431268
30
0
11
27.603288345675949
21
-18.860123927431268
31
0
0
LINE
5
716
100
AcDbEntity
8
0
100
AcDbLine
10
27.603288345675949
20
-18.860123927431268
30
0
11
27.603288345675949
21
-19.711420113878411
31
0
0
LINE
5
717
100
AcDbEntity
8
0
100
AcDbLine
10
27.603288345675949
20
-21.119333083467644
30
0
11
27.046671562533859
21
-21.119333083467644
31
0
0
LINE
5
718
100
AcDbEntity
8
0
100
AcDbLine
10
27.046671562533859
20
-21.119333083467644
30
0
11
27.046671562533859
21
-20.268036897020501
31
0
0
LINE
5
719
100
AcDbEntity
8
0
100
AcDbLine
10
27.046671562533859
20
-20.268036897020501
30
0
11
27.603288345675949
21
-20.268036897020501
31
0
0
LINE
5
720
100
AcDbEntity
8
0
100
AcDbLine
10
27.603288345675949
20
-20.268036897020501
30
0
11
27.603288345675949
21
-21.119333083467644
31
0
0
SPLINE
5
721
100
AcDbEntity
8
0
100
AcDbSpline
70
0
71
2
72
6
73
3
74
0
42
0.000000001
43
0.0000000001
44
0.0000000001
40
0
40
0
40
0
40
1
40
1
40
1
10
31.237668447833542
20
-19.482224757509393
30
0
10
31.892511301379685
20
-19.253029401140374
30
0
10
32.77654831920195
20
-18.368991191225213
30
0
0
LINE
5
722
100
AcDbEntity
8
0
100
AcDbLine
10
32.77654831920195
20
-18.368991191225213
30
0
11
32.285415582995896
21
-17.845117623644036
31
0
0
SPLINE
5
723
100
AcDbEntity
8
0
100
AcDbSpline
70
0
71
2
72
6
73
3
74
0
42
0.000000001
43
0.0000000001
44
0.0000000001
40
0
40
0
40
0
40
1
40
1
40
1
10
32.285415582995896
20
-17.845117623644036
30
0
10
31.434120588641647
20
-18.630928571062249
30
0
10
30.910245828967575
20
-18.860123927431268
30
0
0
LINE
5
724
100
AcDbEntity
8
0
100
AcDbLine
10
30.910245828967575
20
-18.860123927431268
30
0
11
31.237668447833542
21
-19.482224757509393
31
0
0
SPLINE
5
725
100
AcDbEntity
8
0
100
AcDbSpline
70
0
71
2
72
6
73
3
74
0
42
0.000000001
43
0.0000000001
44
0.0000000001
40
0
40
0
40
0
40
1
40
1
40
1
10
31.827027254443649
20
-30.352620656328362
30
0
10
31.761543207507614
20
-30.876495416002435
30
0
10
31.40137856517363
20
-31.236657674150628
30
0
0
SPLINE
5
726
100
AcDbEntity
8
0
100
AcDbSpline
70
0
71
2
72
6
73
3
74
0
42
0.000000001
43
0.0000000001
44
0.0000000001
40
0
40
0
40
0
40
1
40
1
40
1
10
31.40137856517363
20
-31.236657674150628
30
0
10
31.008471899371628
20
-31.62956433995263
30
0
10
30.353629045825485
20
-31.62956433995263
30
0
0
SPLINE
5
727
100
AcDbEntity
8
0
100
AcDbSpline
70
0
71
2
72
6
73
3
74
0
42
0.000000001
43
0.0000000001
44
0.0000000001
40
0
40
0
40
0
40
1
40
1
40
1
10
30.353629045825485
20
-31.62956433995263
30
0
10
29.633302145343308
20
-31.62956433995263
30
0
10
29.207654648166184
20
-31.203918034868401
30
0
0
SPLINE
5
728
100
AcDbEntity
8
0
100
AcDbSpline
70
0
71
2
72
6
73
3
74
0
42
0.000000001
43
0.0000000001
44
0.0000000001
40
0
40
0
40
0
40
1
40
1
40
1
10
29.207654648166184
20
-31.203918034868401
30
0
10
28.782005958896164
20
-30.778269345598382
30
0
10
28.782005958896164
20
-29.861487920122308
30
0
0
SPLINE
5
729
100
AcDbEntity
8
0
100
AcDbSpline
70
0
71
2
72
6
73
3
74
0
42
0.000000001
43
0.0000000001
44
0.0000000001
40
0
40
0
40
0
40
1
40
1
40
1
10
28.782005958896164
20
-29.861487920122308
30
0
10
28.782005958896164
20
-28.780998761491936
30
0
10
29.207654648166184
20
-28.191637570696038
30
0
0
SPLINE
5
730
100
AcDbEntity
8
0
100
AcDbSpline
70
0
71
2
72
6
73
3
74
0
42
0.000000001
43
0.0000000001
44
0.0000000001
40
0
40
0
40
0
40
1
40
1
40
1
10
29.207654648166184
20
-28.191637570696038
30
0
10
29.60056012187529
20
-27.635020787553948
30
0
10
30.615567617755417
20
-26.750983769731683
30
0
0
LINE
5
731
100
AcDbEntity
8
0
100
AcDbLine
10
30.615567617755417
20
-26.750983769731683
30
0
11
30.124434881549362
21
-26.194366986589593
31
0
0
SPLINE
5
732
100
AcDbEntity
8
0
100
AcDbSpline
70
0
71
2
72
6
73
3
74
0
42
0.000000001
43
0.0000000001
44
0.0000000001
40
0
40
0
40
0
40
1
40
1
40
1
10
30.124434881549362
20
-26.194366986589593
30
0
10
27.766999655108933
20
-28.551802213030022
30
0
10
26.195375376086716
20
-29.763261849718255
30
0
0
SPLINE
5
733
100
AcDbEntity
8
0
100
AcDbSpline
70
0
71
2
72
6
73
3
74
0
42
0.000000001
43
0.0000000001
44
0.0000000001
40
0
40
0
40
0
40
1
40
1
40
1
10
26.195375376086716
20
-29.763261849718255
30
0
10
26.326344662051682
20
-28.682770306902093
30
0
10
26.424570732455734
20
-27.602281148271722
30
0
0
LINE
5
734
100
AcDbEntity
8
0
100
AcDbLine
10
26.424570732455734
20
-27.602281148271722
30
0
11
25.671500616412644
21
-27.373084599809808
31
0
0
SPLINE
5
735
100
AcDbEntity
8
0
100
AcDbSpline
70
0
71
2
72
6
73
3
74
0
42
0.000000001
43
0.0000000001
44
0.0000000001
40
0
40
0
40
0
40
1
40
1
40
1
10
25.671500616412644
20
-27.373084599809808
30
0
10
25.671500616412644
20
-28.977450902300042
30
0
10
25.507790499072556
20
-30.221652562456292
30
0
0
LINE
5
736
100
AcDbEntity
8
0
100
AcDbLine
10
25.507790499072556
20
-30.221652562456292
30
0
11
25.376822405200485
21
-30.516333157854241
31
0
0
LINE
5
737
100
AcDbEntity
8
0
100
AcDbLine
10
25.376822405200485
20
-30.516333157854241
30
0
11
25.736985855441574
21
-30.876495416002435
31
0
0
SPLINE
5
738
100
AcDbEntity
8
0
100
AcDbSpline
70
0
71
2
72
6
73
3
74
0
42
0.000000001
43
0.0000000001
44
0.0000000001
40
0
40
0
40
0
40
1
40
1
40
1
10
25.736985855441574
20
-30.876495416002435
30
0
10
26.064407282214646
20
-31.236657674150628
30
0
10
26.162633352618698
20
-30.712785298662347
30
0
0
SPLINE
5
739
100
AcDbEntity
8
0
100
AcDbSpline
70
0
71
2
72
6
73
3
74
0
42
0.000000001
43
0.0000000001
44
0.0000000001
40
0
40
0
40
0
40
1
40
1
40
1
10
26.162633352618698
20
-30.712785298662347
30
0
10
27.275866918902878
20
-29.730519826250237
30
0
10
28.35635846171904
20
-28.748254353838128
30
0
0
SPLINE
5
740
100
AcDbEntity
8
0
100
AcDbSpline
70
0
71
2
72
6
73
3
74
0
42
0.000000001
43
0.0000000001
44
0.0000000001
40
0
40
0
40
0
40
1
40
1
40
1
10
28.35635846171904
20
-28.748254353838128
30
0
10
28.192647152286057
20
-29.435839230852288
30
0
10
28.192647152286057
20
-29.894229943590325
30
0
0
SPLINE
5
741
100
AcDbEntity
8
0
100
AcDbSpline
70
0
71
2
72
6
73
3
74
0
42
0.000000001
43
0.0000000001
44
0.0000000001
40
0
40
0
40
0
40
1
40
1
40
1
10
28.192647152286057
20
-29.894229943590325
30
0
10
28.192647152286057
20
-31.138433987932366
30
0
10
28.782005958896164
20
-31.727790410356683
30
0
0
SPLINE
5
742
100
AcDbEntity
8
0
100
AcDbSpline
70
0
71
2
72
6
73
3
74
0
42
0.000000001
43
0.0000000001
44
0.0000000001
40
0
40
0
40
0
40
1
40
1
40
1
10
28.782005958896164
20
-31.727790410356683
30
0
10
29.371364765506272
20
-32.317151601152581
30
0
10
30.28814499888945
20
-32.317151601152581
30
0
0
SPLINE
5
743
100
AcDbEntity
8
0
100
AcDbSpline
70
0
71
2
72
6
73
3
74
0
42
0.000000001
43
0.0000000001
44
0.0000000001
40
0
40
0
40
0
40
1
40
1
40
1
10
30.28814499888945
20
-32.317151601152581
30
0
10
31.237668447833542
20
-32.317151601152581
30
0
10
31.761543207507614
20
-31.793274457292718
30
0
0
SPLINE
5
744
100
AcDbEntity
8
0
100
AcDbSpline
70
0
71
2
72
6
73
3
74
0
42
0.000000001
43
0.0000000001
44
0.0000000001
40
0
40
0
40
0
40
1
40
1
40
1
10
31.761543207507614
20
-31.793274457292718
30
0
10
32.547354154925827
20
-31.007463509874505
30
0
10
32.547354154925827
20
-29.796003873186272
30
0
0
SPLINE
5
745
100
AcDbEntity
8
0
100
AcDbSpline
70
0
71
2
72
6
73
3
74
0
42
0.000000001
43
0.0000000001
44
0.0000000001
40
0
40
0
40
0
40
1
40
1
40
1
10
32.547354154925827
20
-29.796003873186272
30
0
10
32.547354154925827
20
-28.650028283434075
30
0
10
32.023479395251755
20
-28.126153523760003
30
0
0
SPLINE
5
746
100
AcDbEntity
8
0
100
AcDbSpline
70
0
71
2
72
6
73
3
74
0
42
0.000000001
43
0.0000000001
44
0.0000000001
40
0
40
0
40
0
40
1
40
1
40
1
10
32.023479395251755
20
-28.126153523760003
30
0
10
31.597830705981735
20
-27.700504834489983
30
0
10
31.008471899371628
20
-27.700504834489983
30
0
0
SPLINE
5
747
100
AcDbEntity
8
0
100
AcDbSpline
70
0
71
2
72
6
73
3
74
0
42
0.000000001
43
0.0000000001
44
0.0000000001
40
0
40
0
40
0
40
1
40
1
40
1
10
31.008471899371628
20
-27.700504834489983
30
0
10
30.615567617755417
20
-27.700504834489983
30
0
10
30.320887022357468
20
-27.995185429887933
30
0
0
SPLINE
5
748
100
AcDbEntity
8
0
100
AcDbSpline
70
0
71
2
72
6
73
3
74
0
42
0.000000001
43
0.0000000001
44
0.0000000001
40
0
40
0
40
0
40
1
40
1
40
1
10
30.320887022357468
20
-27.995185429887933
30
0
10
29.993466787677292
20
-28.322605664568108
30
0
10
29.993466787677292
20
-28.748254353838128
30
0
0
SPLINE
5
749
100
AcDbEntity
8
0
100
AcDbSpline
70
0
71
2
72
6
73
3
74
0
42
0.000000001
43
0.0000000001
44
0.0000000001
40
0
40
0
40
0
40
1
40
1
40
1
10
29.993466787677292
20
-28.748254353838128
30
0
10
29.993466787677292
20
-29.337615544634026
30
0
10
30.386371069293503
20
-29.730519826250237
30
0
0
SPLINE
5
750
100
AcDbEntity
8
0
100
AcDbSpline
70
0
71
2
72
6
73
3
74
0
42
0.000000001
43
0.0000000001
44
0.0000000001
40
0
40
0
40
0
40
1
40
1
40
1
10
30.386371069293503
20
-29.730519826250237
30
0
10
30.84476178203154
20
-30.188910538988274
30
0
10
31.827027254443649
20
-30.352620656328362
30
0
0
SPLINE
5
751
100
AcDbEntity
8
0
100
AcDbSpline
70
0
71
2
72
6
73
3
74
0
42
0.000000001
43
0.0000000001
44
0.0000000001
40
0
40
0
40
0
40
1
40
1
40
1
10
31.925253324847702
20
-29.69777780278222
30
0
10
31.073955946307663
20
-29.599551732378167
30
0
10
30.779277735095505
20
-29.304871136980218
30
0
0
SPLINE
5
752
100
AcDbEntity
8
0
100
AcDbSpline
70
0
71
2
72
6
73
3
74
0
42
0.000000001
43
0.0000000001
44
0.0000000001
40
0
40
0
40
0
40
1
40
1
40
1
10
30.779277735095505
20
-29.304871136980218
30
0
10
30.550083570819382
20
-29.075676972704095
30
0
10
30.550083570819382
20
-28.846482808427972
30
0
0
SPLINE
5
753
100
AcDbEntity
8
0
100
AcDbSpline
70
0
71
2
72
6
73
3
74
0
42
0.000000001
43
0.0000000001
44
0.0000000001
40
0
40
0
40
0
40
1
40
1
40
1
10
30.550083570819382
20
-28.846482808427972
30
0
10
30.550083570819382
20
-28.58454423649804
30
0
10
30.681051664691452
20
-28.45357614262597
30
0
0
SPLINE
5
754
100
AcDbEntity
8
0
100
AcDbSpline
70
0
71
2
72
6
73
3
74
0
42
0.000000001
43
0.0000000001
44
0.0000000001
40
0
40
0
40
0
40
1
40
1
40
1
10
30.681051664691452
20
-28.45357614262597
30
0
10
30.84476178203154
20
-28.289866025285882
30
0
10
31.041213922839646
20
-28.289866025285882
30
0
0
SPLINE
5
755
100
AcDbEntity
8
0
100
AcDbSpline
70
0
71
2
72
6
73
3
74
0
42
0.000000001
43
0.0000000001
44
0.0000000001
40
0
40
0
40
0
40
1
40
1
40
1
10
31.041213922839646
20
-28.289866025285882
30
0
10
31.335894518237595
20
-28.289866025285882
30
0
10
31.597830705981735
20
-28.551802213030022
30
0
0
SPLINE
5
756
100
AcDbEntity
8
0
100
AcDbSpline
70
0
71
2
72
6
73
3
74
0
42
0.000000001
43
0.0000000001
44
0.0000000001
40
0
40
0
40
0
40
1
40
1
40
1
10
31.597830705981735
20
-28.551802213030022
30
0
10
31.925253324847702
20
-28.879222447710198
30
0
10
31.925253324847702
20
-29.403099591570061
30
0
0
SPLINE
5
757
100
AcDbEntity
8
0
100
AcDbSpline
70
0
71
2
72
6
73
3
74
0
42
0.000000001
43
0.0000000001
44
0.0000000001
40
0
40
0
40
0
40
1
40
1
40
1
10
31.925253324847702
20
-29.403099591570061
30
0
10
31.925253324847702
20
-29.534067685442132
30
0
10
31.925253324847702
20
-29.69777780278222
30
0
0
ENDSEC
0
SECTION
2
OBJECTS
0
DICTIONARY
5
C
100
AcDbDictionary
3
ACAD_GROUP
350
D
3
ACAD_MLINESTYLE
350
17
0
DICTIONARY
5
D
100
AcDbDictionary
0
DICTIONARY
5
1A
330
C
100
AcDbDictionary
0
DICTIONARY
5
17
100
AcDbDictionary
0
ENDSEC
0
EOF
