0
SECTION
2
HEADER
9
$INSUNITS
70
4
9
$ACADVER
1
AC1014
9
$HANDSEED
5
FFFF
0
ENDSEC
0
SECTION
2
TABLES
0
TABLE
2
VPORT
5
8
100
AcDbSymbolTable
0
ENDTAB
0
TABLE
2
LTYPE
5
5
100
AcDbSymbolTable
0
LTYPE
5
14
100
AcDbSymbolTableRecord
100
AcDbLinetypeTableRecord
2
BYBLOCK
70
0
0
LTYPE
5
15
100
AcDbSymbolTableRecord
100
AcDbLinetypeTableRecord
2
BYLAYER
70
0
0
ENDTAB
0
TABLE
2
LAYER
5
2
100
AcDbSymbolTable
70
2
0
LAYER
5
50
100
AcDbSymbolTableRecord
100
AcDbLayerTableRecord
2
0
70
0
6
CONTINUOUS
0
ENDTAB
0
TABLE
2
STYLE
5
3
100
AcDbSymbolTable
70
1
0
STYLE
5
11
100
AcDbSymbolTableRecord
100
AcDbTextStyleTableRecord
2
STANDARD
70
0
0
ENDTAB
0
TABLE
2
VIEW
5
6
100
AcDbSymbolTable
70
0
0
ENDTAB
0
TABLE
2
UCS
5
7
100
AcDbSymbolTable
70
0
0
ENDTAB
0
TABLE
2
APPID
5
9
100
AcDbSymbolTable
70
2
0
APPID
5
12
100
AcDbSymbolTableRecord
100
AcDbRegAppTableRecord
2
ACAD
70
0
0
ENDTAB
0
TABLE
2
DIMSTYLE
5
A
100
AcDbSymbolTable
70
1
0
ENDTAB
0
TABLE
2
BLOCK_RECORD
5
1
100
AcDbSymbolTable
70
1
0
BLOCK_RECORD
5
1F
100
AcDbSymbolTableRecord
100
AcDbBlockTableRecord
2
*MODEL_SPACE
0
BLOCK_RECORD
5
1B
100
AcDbSymbolTableRecord
100
AcDbBlockTableRecord
2
*PAPER_SPACE
0
ENDTAB
0
ENDSEC
0
SECTION
2
BLOCKS
0
BLOCK
5
20
100
AcDbEntity
100
AcDbBlockBegin
2
*MODEL_SPACE
0
ENDBLK
5
21
100
AcDbEntity
100
AcDbBlockEnd
0
BLOCK
5
1C
100
AcDbEntity
100
AcDbBlockBegin
2
*PAPER_SPACE
0
ENDBLK
5
1D
100
AcDbEntity
100
AcDbBlockEnd
0
ENDSEC
0
SECTION
2
ENTITIES
0
LWPOLYLINE
5
100
100
AcDbEntity
8
0
100
AcDbPolyline
90
4
70
1
43
0.0
10
70
20
30
10
0
20
30
10
0
20
-30
10
70
20
-30
0
LINE
5
101
100
AcDbEntity
8
0
100
AcDbLine
10
100
20
30
30
0
11
92
21
30
31
0
0
LINE
5
102
100
AcDbEntity
8
0
100
AcDbLine
10
92
20
30
30
0
11
92
21
-30
31
0
0
LINE
5
103
100
AcDbEntity
8
0
100
AcDbLine
10
92
20
-30
30
0
11
100
21
-30
31
0
0
LWPOLYLINE
5
104
100
AcDbEntity
8
0
100
AcDbPolyline
90
20
70
1
43
0.0
10
120.43479088522227
20
-20.025000335276122
10
117.98479078323786
20
-20.025000335276122
10
117.98784173571281
20
-9.9902831945502868
10
120.43784158885438
20
-9.9910268548723522
10
120.43935144692327
20
-5.0250001117587084
10
117.98935137893423
20
-5.0250001117587084
10
117.99240697807322
20
5.0250001117587084
10
120.44240702328537
20
5.0250001117587058
10
120.44391200862428
20
9.975000111758705
10
117.99391197463061
20
9.975000111758705
10
117.99696757376961
20
20.025000335276122
10
120.44696758498638
20
20.025000335276122
10
120.44847234384864
20
24.974255438059014
10
117.99847257032698
20
24.975000335276132
10
117.99999963023944
20
29.997567682443929
10
110
20
30
10
109.98175761832948
20
-29.999997226795855
10
117.98175724856893
20
-30.002429544351923
10
117.98328114541981
20
-24.990265646130361
10
120.43328103218064
20
-24.991010543381908
0
LINE
5
105
100
AcDbEntity
8
0
100
AcDbLine
10
100
20
-20.025000335276122
30
0
11
102.44998959638451
21
-20.025000335276122
31
0
0
LINE
5
106
100
AcDbEntity
8
0
100
AcDbLine
10
102.4499919174157
20
-9.9855669157369515
30
0
11
100
21
-9.9848232578236562
31
0
0
LINE
5
107
100
AcDbEntity
8
0
100
AcDbLine
10
100
20
-5.0250001117587084
30
0
11
102.44999306425633
21
-5.0250001117587084
31
0
0
LINE
5
108
100
AcDbEntity
8
0
100
AcDbLine
10
100
20
5.0250001117587084
30
0
11
102.44999538773047
21
5.0250001117587084
31
0
0
LINE
5
109
100
AcDbEntity
8
0
100
AcDbLine
10
100
20
9.975000111758705
30
0
11
102.44999653212817
21
9.975000111758705
31
0
0
LINE
5
110
100
AcDbEntity
8
0
100
AcDbLine
10
100
20
20.025000335276122
30
0
11
102.44999885560232
21
20.025000335276122
31
0
0
LINE
5
111
100
AcDbEntity
8
0
100
AcDbLine
10
100
20
24.975000335276132
30
0
11
102.44999999999999
21
24.975000335276132
31
0
0
LINE
5
112
100
AcDbEntity
8
0
100
AcDbLine
10
100
20
24.975000335276132
30
0
11
102.44999999999999
21
24.975000335276132
31
0
0
LINE
5
113
100
AcDbEntity
8
0
100
AcDbLine
10
100
20
-25
30
0
11
102.44998844620712
21
-25.000000011219647
31
0
0
LINE
5
114
100
AcDbEntity
8
0
100
AcDbLine
10
102.44998959638451
20
-20.025000335276122
30
0
11
102.44998844620712
21
-25.000000011219647
31
0
0
LINE
5
115
100
AcDbEntity
8
0
100
AcDbLine
10
102.44999999999999
20
24.975000335276132
30
0
11
102.44999885560232
21
20.025000335276122
31
0
0
LINE
5
116
100
AcDbEntity
8
0
100
AcDbLine
10
102.44999653212817
20
9.975000111758705
30
0
11
102.44999538773047
21
5.0250001117587084
31
0
0
LINE
5
117
100
AcDbEntity
8
0
100
AcDbLine
10
102.44999306425633
20
-5.0250001117587084
30
0
11
102.4499919174157
21
-9.9855669157369515
31
0
0
LWPOLYLINE
5
118
100
AcDbEntity
8
0
100
AcDbPolyline
90
4
70
1
43
0.0
10
22.600003460831985
20
24.977452834573072
10
25.050001005828378
20
24.975000335276128
10
25.045086037919919
20
20.065046100233516
10
22.595088492923523
20
20.06749859953046
0
LWPOLYLINE
5
119
100
AcDbEntity
8
0
100
AcDbPolyline
90
4
70
1
43
0.0
10
22.550002455003604
20
-24.972547835979185
10
25
20
-24.975000335276128
10
25.004995131289974
20
-19.984964491991729
10
22.554997586293585
20
-19.982511992694786
0
LWPOLYLINE
5
120
100
AcDbEntity
8
0
100
AcDbPolyline
90
4
70
1
43
0.0
10
22.585028190379546
20
10.017458395494899
10
25.035025735375946
20
10.015005896197955
10
25.030070685775996
20
5.065010856307274
10
22.580073140779604
20
5.0674633556042181
0
LWPOLYLINE
5
121
100
AcDbEntity
8
0
100
AcDbPolyline
90
4
70
1
43
0.0
10
22.570012888337775
20
-4.9825267973879885
10
25.020010433334171
20
-4.9849792966849327
10
25.015055383734222
20
-9.9349743365756122
10
22.565057838737829
20
-9.932521837278669
0
LWPOLYLINE
5
122
100
AcDbEntity
8
0
100
AcDbPolyline
90
4
70
1
43
0.0
10
42.550001002283054
20
-24.972547764717842
10
44.999998547136784
20
-24.975000335276128
10
45.004973782724136
20
-20.004984311524407
10
42.554976237870406
20
-20.002531740966127
0
LWPOLYLINE
5
123
100
AcDbEntity
8
0
100
AcDbPolyline
90
4
70
1
43
0.0
10
42.600003460974648
20
24.977452905834415
10
45.050001005828378
20
24.975000335276128
10
45.045065854261836
20
20.045026279822991
10
42.595068309408106
20
20.047478850381278
0
LINE
5
124
100
AcDbEntity
8
0
100
AcDbLine
10
45.015034327485324
20
-9.9549941566934628
30
0
11
42.565036782631594
21
-9.9525415861351778
31
0
0
LINE
5
125
100
AcDbEntity
8
0
100
AcDbLine
10
45.019969499062356
20
-5.025000111758704
30
0
11
42.554976237870406
21
-5.0250001117587084
31
0
0
LWPOLYLINE
5
126
100
AcDbEntity
8
0
100
AcDbPolyline
90
4
70
1
43
0.0
10
42.580052520967314
20
5.0474436058742178
10
45.030050065821044
20
5.0449910353159293
10
45.035005259397998
20
9.9949860749183568
10
42.585007714544275
20
9.9974386454766453
0
LINE
5
127
100
AcDbEntity
8
0
100
AcDbLine
10
45.019969499062356
20
-5.025000111758704
30
0
11
45.015034327485324
21
-9.9549941566934628
31
0
0
LINE
5
128
100
AcDbEntity
8
0
100
AcDbLine
10
42.569969499062353
20
-5.0250001117587084
30
0
11
42.565036782631594
21
-9.9525415861351778
31
0
0
LWPOLYLINE
5
129
100
AcDbEntity
8
0
100
AcDbPolyline
90
5
70
1
43
0.0
10
67.0000009983778
20
-7.4750000000000005
10
67.0000009983778
20
0
10
67.0000009983778
20
7.4749999999999979
10
64.550000998377797
20
7.4749999999999979
10
64.550000998377797
20
-7.4750000000000005
0
LINE
5
130
100
AcDbEntity
8
0
100
AcDbLine
10
100
20
24.975000335276132
30
0
11
100
21
30
31
0
0
LINE
5
131
100
AcDbEntity
8
0
100
AcDbLine
10
100
20
9.975000111758705
30
0
11
100
21
20.025000335276122
31
0
0
LINE
5
132
100
AcDbEntity
8
0
100
AcDbLine
10
100
20
-5.0250001117587084
30
0
11
100
21
5.0250001117587084
31
0
0
LINE
5
133
100
AcDbEntity
8
0
100
AcDbLine
10
100
20
-30
30
0
11
100
21
-25
31
0
0
LINE
5
134
100
AcDbEntity
8
0
100
AcDbLine
10
100
20
-20.025000335276122
30
0
11
100
21
-9.9848232578236562
31
0
0
ENDSEC
0
SECTION
2
OBJECTS
0
DICTIONARY
5
C
100
AcDbDictionary
3
ACAD_GROUP
350
D
3
ACAD_MLINESTYLE
350
17
0
DICTIONARY
5
D
100
AcDbDictionary
0
DICTIONARY
5
1A
330
C
100
AcDbDictionary
0
DICTIONARY
5
17
100
AcDbDictionary
0
ENDSEC
0
EOF
